<?xml version="1.0" encoding="UTF-8"?>
<svg version="1.1" xmlns="http://www.w3.org/2000/svg" width="512" height="512">
<path d="M0 0 C1.26263672 -0.01998047 2.52527344 -0.03996094 3.82617188 -0.06054688 C8.94408185 -0.05784613 12.9696203 -0.0412966 17.69140625 2.02734375 C23.50198538 7.93364906 24.91887988 13.94164615 26.3125 21.875 C26.48523438 22.79732422 26.65796875 23.71964844 26.8359375 24.66992188 C27.25637224 26.92391924 27.66489265 29.17938432 28.0625 31.4375 C31.53052368 33.31735905 34.04297205 34.42281232 38.0625 34.4375 C43.01672605 32.31205602 47.2389477 28.82555527 51.50634766 25.58691406 C54.98320573 23.01881745 57.61516737 22.12982605 61.9375 22.0625 C63.17113281 22.01996094 63.17113281 22.01996094 64.4296875 21.9765625 C71.06554405 23.13832967 75.7630251 28.83019279 80.3125 33.4375 C80.93640625 34.05367187 81.5603125 34.66984375 82.203125 35.3046875 C82.80125 35.90539063 83.399375 36.50609375 84.015625 37.125 C84.55348633 37.66511719 85.09134766 38.20523438 85.64550781 38.76171875 C89.1137326 42.86335468 89.56005892 46.56123489 89.4375 51.79296875 C88.65212216 57.33151873 85.55426665 61.6187708 82.06640625 65.87109375 C81.40511719 66.69738281 80.74382812 67.52367188 80.0625 68.375 C79.423125 69.10589844 78.78375 69.83679688 78.125 70.58984375 C76.41738121 75.16651322 78.38666367 79.01640743 80.0625 83.4375 C80.72781738 83.56278076 81.39313477 83.68806152 82.07861328 83.81713867 C85.11890385 84.40079188 88.1528767 85.01259108 91.1875 85.625 C92.23421875 85.82158203 93.2809375 86.01816406 94.359375 86.22070312 C100.61465499 87.50739046 104.67794045 88.70073813 109.0625 93.4375 C112.42333804 98.71892104 111.47244506 105.21546868 111.5 111.25 C111.53287109 112.50876953 111.56574219 113.76753906 111.59960938 115.06445312 C111.66664829 126.62561892 111.66664829 126.62561892 107.5871582 131.18530273 C101.77369843 135.95988002 93.94409472 136.54090408 86.73828125 137.546875 C82.21906987 138.24777622 82.21906987 138.24777622 78.78320312 140.99804688 C77.15315078 144.46144608 76.82941264 146.89042275 78.0625 150.4375 C79.06227321 152.25377922 79.06227321 152.25377922 80.3125 154.00390625 C80.7559375 154.65423828 81.199375 155.30457031 81.65625 155.97460938 C82.35234375 156.97717773 82.35234375 156.97717773 83.0625 158 C83.98232124 159.33246327 84.89911696 160.66702148 85.8125 162.00390625 C86.42351562 162.88477905 86.42351562 162.88477905 87.046875 163.78344727 C88.94521871 166.87510078 89.27153562 169.70498374 89.375 173.25 C89.41238281 174.08144531 89.44976562 174.91289062 89.48828125 175.76953125 C88.43070729 182.39634788 82.69553223 187.14104856 78.125 191.6875 C77.51720703 192.31140625 76.90941406 192.9353125 76.28320312 193.578125 C71.98000042 197.88596978 68.2671431 200.62566197 62 201 C55.43328899 200.89000484 50.38732531 196.9105355 45.0625 193.4375 C43.39965377 192.43116 41.7342592 191.42896303 40.0625 190.4375 C39.876875 191.015 39.69125 191.5925 39.5 192.1875 C36.79383641 196.42323431 32.79203583 198.05166865 28.03979492 199.11181641 C25.72565841 199.50197606 23.41005811 199.88352714 21.09326172 200.25756836 C10.1326858 201.75733819 10.1326858 201.75733819 0.65625 206.90625 C-1.01737754 209.79706121 -1.89588698 211.8100819 -1.58789062 215.17773438 C0.87375501 223.73065929 7.21784648 231.29632018 12.49267578 238.30541992 C15.03485848 241.75812311 15.27411679 243.9185475 15.375 248.1875 C15.43107422 249.72664063 15.43107422 249.72664063 15.48828125 251.296875 C14.46775331 258.8244389 7.87716936 263.98896777 2.75 269.125 C2.01587891 269.88361328 1.28175781 270.64222656 0.52539062 271.42382812 C-4.66395806 276.64080422 -8.75411855 279.69925621 -16.125 281 C-25.71435214 279.58517755 -33.70565413 273.51811753 -41.12915039 267.60205078 C-44.35764739 265.00873212 -44.35764739 265.00873212 -48.31420898 264.74536133 C-49.17989502 264.97376709 -50.04558105 265.20217285 -50.9375 265.4375 C-51.78135254 265.59750488 -52.62520508 265.75750977 -53.49462891 265.92236328 C-56.44855913 266.74715094 -58.48549183 267.57338167 -60.9375 269.4375 C-62.97739803 273.90388349 -63.61331918 278.47690679 -64.3125 283.3125 C-67.12766664 300.50075345 -67.12766664 300.50075345 -73.9375 305.75 C-80.08765588 309.20946268 -86.27976547 308.65577676 -93.1875 308.6875 C-94.84845703 308.7184375 -94.84845703 308.7184375 -96.54296875 308.75 C-104.45002806 308.78760789 -111.07223037 308.26785789 -117.1875 302.75 C-121.6258655 297.08143537 -122.52871895 289.33876619 -123.9375 282.4375 C-124.164375 281.40753906 -124.39125 280.37757813 -124.625 279.31640625 C-125.43340621 275.53823003 -125.9375 272.3292212 -125.9375 268.4375 C-126.618125 268.334375 -127.29875 268.23125 -128 268.125 C-130.9375 267.4375 -130.9375 267.4375 -134.4375 265.8125 C-138.22601912 264.3241532 -139.17681815 264.2973596 -142.9375 265.4375 C-145.33293764 266.80532835 -145.33293764 266.80532835 -147.66796875 268.5625 C-148.55419922 269.18640625 -149.44042969 269.8103125 -150.35351562 270.453125 C-152.18828324 271.76681344 -154.01654945 273.08963408 -155.83789062 274.421875 C-162.50262787 279.07997294 -167.8333141 281.38234929 -176.01318359 280.11621094 C-182.43755633 278.25698567 -186.7173001 273.35914762 -191.25 268.6875 C-192.44592773 267.50800781 -192.44592773 267.50800781 -193.66601562 266.3046875 C-199.15467274 260.74678745 -202.40161219 256.52364454 -203.4375 248.625 C-203.07832598 241.64106066 -199.152037 235.98877741 -195.05078125 230.55859375 C-194.54071533 229.86894531 -194.03064941 229.17929688 -193.50512695 228.46875 C-192.47599215 227.09421954 -191.41893873 225.7400721 -190.33276367 224.41015625 C-187.48542807 220.67227581 -187.48542807 220.67227581 -187.26171875 216.14892578 C-188.04922253 213.85508092 -188.98243392 211.66556055 -189.9375 209.4375 C-190.32169998 207.44664554 -190.67966322 205.44862687 -190.9375 203.4375 C-191.70191406 203.32792969 -192.46632812 203.21835938 -193.25390625 203.10546875 C-222.50267294 198.77622891 -222.50267294 198.77622891 -228.3125 191.4375 C-231.79900659 185.00087246 -231.19305862 178.36211389 -231.25 171.1875 C-231.27900391 169.98480469 -231.30800781 168.78210938 -231.33789062 167.54296875 C-231.40131509 158.65378641 -230.29923249 153.41703433 -224.578125 146.64453125 C-219.54030953 142.86300121 -212.71696137 142.27912417 -206.6875 141.125 C-205.39585937 140.86138672 -204.10421875 140.59777344 -202.7734375 140.32617188 C-193.41347403 138.4375 -193.41347403 138.4375 -190.9375 138.4375 C-190.834375 137.57125 -190.73125 136.705 -190.625 135.8125 C-189.9375 132.4375 -189.9375 132.4375 -188.25 129.375 C-186.61092114 126.57052954 -186.61092114 126.57052954 -187.66772461 124.05126953 C-188.93516764 121.44230104 -190.33429584 119.09317433 -191.94140625 116.6796875 C-192.51697266 115.80699219 -193.09253906 114.93429688 -193.68554688 114.03515625 C-194.28431641 113.13667969 -194.88308594 112.23820312 -195.5 111.3125 C-196.69185517 109.52025575 -197.88079492 107.7260683 -199.06640625 105.9296875 C-199.59306885 105.13933105 -200.11973145 104.34897461 -200.66235352 103.53466797 C-202.53279678 100.45844595 -203.1309167 97.7911613 -203.25 94.25 C-203.28738281 93.53457031 -203.32476562 92.81914063 -203.36328125 92.08203125 C-202.10692063 84.27876393 -197.11306125 79.00694886 -191.625 73.6875 C-190.98626953 73.04167969 -190.34753906 72.39585938 -189.68945312 71.73046875 C-184.47765779 66.58731915 -179.15363379 61.94018294 -171.5 61.5625 C-162.06583845 61.83578176 -154.29496713 68.43475588 -146.99975586 73.88525391 C-143.4513676 76.69350796 -143.4513676 76.69350796 -139.125 77.4375 C-137.5471875 76.9425 -137.5471875 76.9425 -135.9375 76.4375 C-135.08027344 76.18871094 -134.22304688 75.93992187 -133.33984375 75.68359375 C-130.8628916 74.96245578 -128.39856199 74.21083766 -125.9375 73.4375 C-125.80988281 72.15230469 -125.68226563 70.86710937 -125.55078125 69.54296875 C-124.99309847 64.55312402 -124.13051647 59.66717269 -123.125 54.75 C-122.97224609 53.93466797 -122.81949219 53.11933594 -122.66210938 52.27929688 C-121.13841793 44.82946954 -118.24243137 39.91731966 -111.9375 35.4375 C-109.08243631 34.00996816 -106.68343542 34.38221445 -103.49609375 34.4375 C-101.48526926 34.43551596 -99.474444 34.43346094 -97.46362305 34.42919922 C-96.08360827 34.43468379 -94.70356933 34.45428377 -93.32397461 34.48876953 C-84.74062818 34.78509209 -84.74062818 34.78509209 -77.10595703 31.4375 C-74.71526693 29.06873953 -74.71526693 29.06873953 -72.75415039 26.56640625 C-70.35527388 23.75519765 -68.29230374 22.65979077 -64.67578125 22.06640625 C-54.45563705 21.78662775 -48.08467788 27.09705715 -40.296875 33.1796875 C-38.01562067 34.66494529 -38.01562067 34.66494529 -35.453125 34.2578125 C-34.62296875 33.98710938 -33.7928125 33.71640625 -32.9375 33.4375 C-32.09034424 33.1895166 -31.24318848 32.9415332 -30.37036133 32.68603516 C-27.77421033 31.674103 -27.77421033 31.674103 -26.97436523 29.28613281 C-26.81653564 28.41311523 -26.65870605 27.54009766 -26.49609375 26.640625 C-26.30466797 25.6815625 -26.11324219 24.7225 -25.91601562 23.734375 C-25.73748047 22.72890625 -25.55894531 21.7234375 -25.375 20.6875 C-22.70209341 6.1801342 -22.70209341 6.1801342 -16.70263672 1.80932617 C-11.49447436 -0.77452199 -5.70532498 -0.03193821 0 0 Z M-5.9375 18.4375 C-8.12421918 24.39509491 -9.20846247 30.49058756 -10.34960938 36.71289062 C-10.51138672 37.53337891 -10.67316406 38.35386719 -10.83984375 39.19921875 C-11.04855103 40.3123645 -11.04855103 40.3123645 -11.26147461 41.44799805 C-12.06937098 43.82558834 -12.99405255 44.8674113 -14.9375 46.4375 C-17.17759861 47.35023583 -19.45448758 48.17477383 -21.75 48.9375 C-25.36535331 50.14649275 -28.63445831 51.26455792 -31.94921875 53.15625 C-35.93574222 54.86550451 -37.7631382 54.63581837 -41.9375 53.4375 C-45.24559494 51.63825952 -48.29967188 49.54334174 -51.375 47.375 C-52.20193359 46.80716797 -53.02886719 46.23933594 -53.88085938 45.65429688 C-55.90793953 44.25994694 -57.92611806 42.85435656 -59.9375 41.4375 C-63.28994891 42.82472024 -65.19286409 44.21801361 -66.9375 47.4375 C-66.87580593 51.70403069 -65.81476758 55.83180617 -64.9375 60 C-64.62232422 61.72379883 -64.62232422 61.72379883 -64.30078125 63.48242188 C-64.07777344 64.58263672 -63.85476563 65.68285156 -63.625 66.81640625 C-63.42261719 67.8226001 -63.22023438 68.82879395 -63.01171875 69.86547852 C-61.63499306 73.16179786 -60.08837098 73.88926649 -56.9375 75.4375 C-56.21691406 75.93894531 -55.49632812 76.44039062 -54.75390625 76.95703125 C-51.96409088 78.55742794 -50.17568715 79.28309637 -46.9375 79.4375 C-43.02749158 77.4188649 -39.81331858 75.03831685 -36.4296875 72.25390625 C-29.45029166 66.53278163 -23.50653416 63.62215354 -14.5625 62.125 C-13.68078125 61.95677734 -12.7990625 61.78855469 -11.890625 61.61523438 C3.24133045 58.89725118 18.16400809 60.55402738 31.0625 69.4375 C42.64699153 78.21413945 49.74287595 90.01164759 52.0625 104.4375 C53.27497356 121.59866428 48.29247555 134.89782647 38.0625 148.4375 C38.701875 149.30375 39.34125 150.17 40 151.0625 C42.34744361 154.9229139 41.97696304 157.6947436 41.6875 162.125 C41.79170463 166.01391687 42.06087452 168.42825139 44.85888672 171.24755859 C49.91299339 175.18895453 55.42438727 178.40773988 61.0625 181.4375 C62.19449353 180.5294838 63.31782363 179.61066174 64.4375 178.6875 C65.06398438 178.17703125 65.69046875 177.6665625 66.3359375 177.140625 C68.14562318 175.35550519 69.06367455 173.75800356 70.0625 171.4375 C69.70422119 170.92888428 69.34594238 170.42026855 68.97680664 169.89624023 C67.34596533 167.56499215 65.73548636 165.22035073 64.125 162.875 C63.56103516 162.07513672 62.99707031 161.27527344 62.41601562 160.45117188 C59.2642951 155.82739027 56.97476514 152.22125182 57.0625 146.4375 C58.171875 142.9375 58.171875 142.9375 59.8125 139.4375 C60.34359375 138.2825 60.8746875 137.1275 61.421875 135.9375 C61.96328125 134.7825 62.5046875 133.6275 63.0625 132.4375 C63.59168453 131.16797216 64.11780125 129.89716057 64.640625 128.625 C66.0625 125.4375 66.0625 125.4375 68.0625 123.4375 C70.47680664 122.76733398 70.47680664 122.76733398 73.47265625 122.18359375 C74.54451172 121.96896484 75.61636719 121.75433594 76.72070312 121.53320312 C78.40583008 121.20739258 78.40583008 121.20739258 80.125 120.875 C82.34570098 120.43949375 84.56579231 120.00086314 86.78515625 119.55859375 C87.77265869 119.3670874 88.76016113 119.17558105 89.77758789 118.97827148 C92.01514775 118.6599341 92.01514775 118.6599341 93.0625 117.4375 C93.13494053 115.41785801 93.14627188 113.39582876 93.125 111.375 C93.11597656 110.27027344 93.10695313 109.16554688 93.09765625 108.02734375 C93.08605469 107.17269531 93.07445312 106.31804687 93.0625 105.4375 C87.32472892 103.36193972 81.4910923 102.19751448 75.51953125 101.02539062 C67.69739294 99.38652859 67.69739294 99.38652859 65.0625 96.4375 C63.68359375 93.29296875 63.68359375 93.29296875 62.5 89.625 C61.3155318 86.00169234 60.236261 82.74267024 58.34765625 79.42578125 C56.63310966 75.43906958 56.86362219 73.61381062 58.0625 69.4375 C59.86174048 66.12940506 61.95665826 63.07532812 64.125 60 C64.69283203 59.17306641 65.26066406 58.34613281 65.84570312 57.49414062 C67.24005306 55.46706047 68.64564344 53.44888194 70.0625 51.4375 C68.65571502 48.4965231 67.30076794 46.44801716 64.9375 44.1875 C63.98875 43.28 63.04 42.3725 62.0625 41.4375 C56.64132608 43.25494336 52.34975407 46.57094801 47.765625 49.89257812 C43.56428747 52.812079 40.3366626 54.4077361 35.0625 54.4375 C31.5625 53.328125 31.5625 53.328125 28.0625 51.6875 C26.9075 51.15640625 25.7525 50.6253125 24.5625 50.078125 C23.4075 49.53671875 22.2525 48.9953125 21.0625 48.4375 C19.79297216 47.90831547 18.52216057 47.38219875 17.25 46.859375 C14.0625 45.4375 14.0625 45.4375 12.0625 43.4375 C11.39233398 41.02319336 11.39233398 41.02319336 10.80859375 38.02734375 C10.59396484 36.95548828 10.37933594 35.88363281 10.15820312 34.77929688 C9.83239258 33.09416992 9.83239258 33.09416992 9.5 31.375 C9.06449375 29.15429902 8.62586314 26.93420769 8.18359375 24.71484375 C7.9920874 23.72734131 7.80058105 22.73983887 7.60327148 21.72241211 C7.2849341 19.48485225 7.2849341 19.48485225 6.0625 18.4375 C4.04285801 18.36505947 2.02082876 18.35372812 0 18.375 C-1.10472656 18.38402344 -2.20945312 18.39304687 -3.34765625 18.40234375 C-4.62962891 18.41974609 -4.62962891 18.41974609 -5.9375 18.4375 Z M-103.9375 52.4375 C-104.33582031 54.54511719 -104.73414063 56.65273438 -105.14453125 58.82421875 C-105.53940202 60.87668402 -105.93762947 62.92847143 -106.33618164 64.98022461 C-106.61020342 66.40044956 -106.88076085 67.82134768 -107.14770508 69.24291992 C-107.53325919 71.29274674 -107.93143704 73.33978483 -108.33203125 75.38671875 C-108.56768799 76.61737061 -108.80334473 77.84802246 -109.04614258 79.1159668 C-110.12437725 83.13387497 -111.1755612 86.35807731 -114.83520508 88.60009766 C-115.53540771 88.84808105 -116.23561035 89.09606445 -116.95703125 89.3515625 C-117.73240234 89.63773438 -118.50777344 89.92390625 -119.30664062 90.21875 C-120.11294922 90.4971875 -120.91925781 90.775625 -121.75 91.0625 C-123.34080942 91.63534621 -124.93067575 92.21081898 -126.51953125 92.7890625 C-127.28217285 93.06137695 -128.04481445 93.33369141 -128.83056641 93.61425781 C-131.16118792 94.47369166 -131.16118792 94.47369166 -134.07421875 96.1484375 C-137.73028581 97.79441585 -139.95605225 97.95831641 -143.9375 97.4375 C-146.74173601 96.19848626 -149.21423386 94.58867125 -151.75 92.875 C-152.44416016 92.42334473 -153.13832031 91.97168945 -153.85351562 91.50634766 C-159.29844249 87.94085585 -164.67052134 84.26112393 -169.9375 80.4375 C-173.75066478 82.02706284 -176.310284 84.44510697 -179.25 87.3125 C-180.15363281 88.17617187 -181.05726563 89.03984375 -181.98828125 89.9296875 C-184.17362423 92.15121826 -184.17362423 92.15121826 -183.76831055 94.25976562 C-182.70631575 97.043484 -181.24122175 99.30537403 -179.59375 101.7890625 C-178.92472656 102.80484375 -178.25570312 103.820625 -177.56640625 104.8671875 C-176.51259766 106.44886719 -176.51259766 106.44886719 -175.4375 108.0625 C-174.05129834 110.15833518 -172.66584309 112.25466429 -171.28125 114.3515625 C-170.66443359 115.2792041 -170.04761719 116.2068457 -169.41210938 117.16259766 C-166.99547218 120.89078067 -166.57964261 122.95375744 -166.9375 127.4375 C-167.93639486 129.96279598 -168.9626213 132.28113405 -170.1875 134.6875 C-172.75004453 139.86618809 -174.96274475 144.93093133 -176.625 150.484375 C-180.87917045 156.8149858 -192.55657755 157.23102671 -199.375 158.625 C-200.69219734 158.89972001 -202.00925616 159.17510502 -203.32617188 159.45117188 C-206.52859191 160.11980903 -209.73286937 160.77953929 -212.9375 161.4375 C-212.9375 167.7075 -212.9375 173.9775 -212.9375 180.4375 C-208.59013266 181.88662245 -204.78041815 182.94102597 -200.33203125 183.76953125 C-198.48641602 184.13208008 -198.48641602 184.13208008 -196.60351562 184.50195312 C-194.02536899 185.00242457 -191.44455165 185.48932127 -188.86132812 185.96289062 C-187.63478516 186.20845703 -186.40824219 186.45402344 -185.14453125 186.70703125 C-184.0253833 186.91948486 -182.90623535 187.13193848 -181.75317383 187.35083008 C-178.2121803 188.71742699 -177.49605433 190.04080456 -175.9375 193.4375 C-175.39744828 194.67996274 -174.89344457 195.93911491 -174.4375 197.21484375 C-174.19 197.89353516 -173.9425 198.57222656 -173.6875 199.27148438 C-173.31625 200.31272461 -173.31625 200.31272461 -172.9375 201.375 C-172.44080798 202.7603051 -171.9408494 204.1444437 -171.4375 205.52734375 C-171.19515625 206.19491699 -170.9528125 206.86249023 -170.703125 207.55029297 C-169.8845306 209.68797165 -169.8845306 209.68797165 -168.1875 212.50390625 C-166.55732984 216.32971185 -167.05349376 218.39862615 -167.9375 222.4375 C-169.53564453 225.37182617 -169.53564453 225.37182617 -171.5703125 228.23046875 C-172.29347656 229.27267578 -173.01664063 230.31488281 -173.76171875 231.38867188 C-174.91789153 233.01496924 -176.07408151 234.64125522 -177.23193359 236.26635742 C-178.35482181 237.85145777 -179.46280308 239.44708532 -180.5703125 241.04296875 C-181.57408936 242.45292114 -181.57408936 242.45292114 -182.59814453 243.89135742 C-184.13504691 246.27847525 -184.13504691 246.27847525 -183.80444336 248.59985352 C-182.34360811 251.69636349 -179.82161599 253.86000763 -177.375 256.1875 C-176.85486328 256.69410156 -176.33472656 257.20070313 -175.79882812 257.72265625 C-174.51839916 258.96784405 -173.22882446 260.20361502 -171.9375 261.4375 C-168.10664644 260.05597958 -165.00821819 258.27547225 -161.6640625 255.9609375 C-160.6740625 255.290625 -159.6840625 254.6203125 -158.6640625 253.9296875 C-156.5980261 252.51937046 -154.53808154 251.10008716 -152.484375 249.671875 C-144.94944856 244.60292449 -144.94944856 244.60292449 -140.06640625 243.8046875 C-136.69103185 244.48734749 -134.24726212 245.49866611 -131.25 247.1875 C-126.08979364 249.96257319 -121.08646585 251.77622226 -115.43359375 253.28515625 C-112.16074602 254.79609534 -111.54968119 256.2330613 -109.9375 259.4375 C-109.06201172 262.74316406 -109.06201172 262.74316406 -108.3671875 266.453125 C-108.24062775 267.10955994 -108.11406799 267.76599487 -107.9836731 268.44232178 C-107.58403621 270.52241549 -107.19755046 272.60466134 -106.8125 274.6875 C-106.41823739 276.78415109 -106.02119504 278.88020765 -105.61990356 280.9755249 C-105.25888066 282.86572495 -104.90633311 284.75753788 -104.55419922 286.64941406 C-104.22311624 289.33111862 -104.22311624 289.33111862 -102.9375 290.4375 C-101.52179877 290.52401611 -100.101905 290.54454904 -98.68359375 290.53515625 C-97.40258789 290.53032227 -97.40258789 290.53032227 -96.09570312 290.52539062 C-95.19787109 290.51701172 -94.30003906 290.50863281 -93.375 290.5 C-92.47330078 290.49548828 -91.57160156 290.49097656 -90.64257812 290.48632812 C-88.40748686 290.47450225 -86.17252563 290.4580222 -83.9375 290.4375 C-83.7516333 289.4587793 -83.5657666 288.48005859 -83.37426758 287.47167969 C-82.67705459 283.82964991 -81.95324999 280.19332652 -81.22143555 276.55810547 C-80.90885242 274.98628665 -80.60342788 273.41302612 -80.30541992 271.83837891 C-79.87487891 269.57033755 -79.4185502 267.30878955 -78.95703125 265.046875 C-78.82972122 264.34568542 -78.70241119 263.64449585 -78.57124329 262.92205811 C-77.82875725 259.41391388 -77.09121958 257.58929809 -74.515625 255.04589844 C-71.47393241 253.14829704 -68.53211762 252.0494149 -65.125 250.9375 C-61.04887096 249.56175321 -57.21215165 248.19120197 -53.4375 246.125 C-49.61903939 244.28395649 -48.09537952 243.94014599 -43.9375 244.4375 C-41.1773907 245.69798446 -38.70766077 247.31808236 -36.1875 249 C-35.48882812 249.45165527 -34.79015625 249.90331055 -34.0703125 250.36865234 C-28.60251195 253.92600136 -23.21646522 257.60517429 -17.9375 261.4375 C-13.86373969 259.82739473 -11.17242931 256.89927729 -8.1875 253.8125 C-7.68089844 253.296875 -7.17429687 252.78125 -6.65234375 252.25 C-5.40946098 250.98366661 -4.17284724 249.7111856 -2.9375 248.4375 C-3.89334932 246.91510423 -4.85243205 245.3947389 -5.8125 243.875 C-6.75416016 242.37646484 -6.75416016 242.37646484 -7.71484375 240.84765625 C-9.27980158 238.40200491 -10.92736407 236.03609787 -12.62890625 233.68359375 C-13.31073975 232.72078491 -13.31073975 232.72078491 -14.00634766 231.73852539 C-14.8992389 230.48201112 -15.80849325 229.23691989 -16.73583984 228.00561523 C-20.09543167 223.22135342 -20.89249988 219.22483748 -19.9375 213.4375 C-19.09526079 210.75731936 -17.93763855 208.35380804 -16.625 205.875 C-14.61579848 201.87158727 -12.6532487 197.95243005 -11.25 193.6875 C-9.80661677 190.1134082 -9.16876186 189.35537995 -5.9375 187.4375 C-2.74536133 186.56201172 -2.74536133 186.56201172 0.98046875 185.8671875 C1.63831863 185.74062775 2.29616852 185.61406799 2.97395325 185.4836731 C5.06419874 185.08315612 7.15677495 184.69711235 9.25 184.3125 C11.35339372 183.91836871 13.45614515 183.52120985 15.55818176 183.11990356 C17.45714309 182.7585206 19.35781196 182.40614517 21.25854492 182.05419922 C23.95435292 181.72521731 23.95435292 181.72521731 25.0625 180.4375 C25.14901611 179.02179877 25.16954904 177.601905 25.16015625 176.18359375 C25.15693359 175.32958984 25.15371094 174.47558594 25.15039062 173.59570312 C25.14201172 172.69787109 25.13363281 171.80003906 25.125 170.875 C25.11823242 169.52245117 25.11823242 169.52245117 25.11132812 168.14257812 C25.09950225 165.90748686 25.0830222 163.67252563 25.0625 161.4375 C23.391875 161.07398438 23.391875 161.07398438 21.6875 160.703125 C18.49313301 160.00614019 15.30456987 159.28679138 12.1171875 158.55859375 C8.90278448 157.82860763 5.69016151 157.17634203 2.4453125 156.59765625 C-7.81174636 154.64568869 -7.81174636 154.64568869 -10.64453125 151.60546875 C-11.7150378 149.23841244 -12.31548264 146.95909134 -12.9375 144.4375 C-13.78430008 142.32182706 -14.66050274 140.21773584 -15.5625 138.125 C-15.96726562 137.13886719 -16.37203125 136.15273437 -16.7890625 135.13671875 C-17.82258385 132.51855349 -17.82258385 132.51855349 -19.0859375 130.58203125 C-20.51865429 126.97395089 -20.83981698 124.16981115 -19.9375 120.4375 C-17.46864022 115.68645032 -14.47725947 111.33213055 -11.4375 106.9375 C-10.61680258 105.72249198 -9.79777468 104.50635448 -8.98046875 103.2890625 C-6.98526973 100.32524417 -4.96776416 97.37744447 -2.9375 94.4375 C-6.11781122 90.6716894 -9.28891825 86.95311011 -12.8125 83.5 C-13.85416667 82.47916667 -14.89583333 81.45833333 -15.9375 80.4375 C-20.62215192 82.9125543 -25.13985626 85.49461829 -29.47265625 88.55078125 C-30.21966797 89.07607422 -30.96667969 89.60136719 -31.73632812 90.14257812 C-33.25730034 91.22261275 -34.77027703 92.31398825 -36.27539062 93.41601562 C-41.47752026 97.03547488 -44.58947882 98.35161505 -50.9375 97.4375 C-53.55394828 96.56354465 -55.93669884 95.40764133 -58.375 94.125 C-63.2557724 91.6663929 -67.80322917 89.6196011 -73.203125 88.53125 C-76.99523955 86.13982641 -77.71328043 81.33864521 -78.73291016 77.24072266 C-79.5715779 73.50134632 -80.35740331 69.75459022 -81.125 66 C-81.39972001 64.68280266 -81.67510502 63.36574384 -81.95117188 62.04882812 C-82.61980903 58.84640809 -83.27953929 55.64213063 -83.9375 52.4375 C-90.5375 52.4375 -97.1375 52.4375 -103.9375 52.4375 Z M9.0625 79.4375 C9.4234375 79.95957031 9.784375 80.48164062 10.15625 81.01953125 C14.00242388 87.11999038 15.57005324 92.26932748 14.0625 99.4375 C11.6373386 105.03113852 8.33187886 109.97272727 4.41796875 114.62890625 C1.86166131 117.75920375 -0.32433024 120.69248465 -1.9375 124.4375 C-1.19153951 130.18324523 0.93431106 135.30931106 5.0625 139.4375 C9.91882327 141.14213765 14.78116399 142.42458336 19.64453125 140.3203125 C28.0327607 134.11845291 33.07832289 125.60640768 35.0625 115.4375 C36.30851623 106.31735341 32.97509411 97.81875808 27.734375 90.4765625 C23.67934698 85.53094421 19.03612283 81.82694913 13.0625 79.4375 C11.7425 79.4375 10.4225 79.4375 9.0625 79.4375 Z " fill="#000000" transform="translate(400.9375,-0.4375)"/>
<path d="M0 0 C0.90291779 -0.00971832 1.80583557 -0.01943665 2.7361145 -0.02944946 C5.3334567 -0.05318068 7.92991398 -0.05533931 10.52734375 -0.05078125 C11.31297699 -0.05988525 12.09861023 -0.06898926 12.90805054 -0.07836914 C17.47368862 -0.04042046 20.45718796 0.44281134 24.0625 3.3125 C26.56281654 7.06297482 26.59853554 8.87106266 26.0625 13.3125 C23.31375999 16.99496976 21.84398989 18.19018551 17.25488281 18.90844727 C15.75850105 18.92291173 14.26172298 18.91143995 12.765625 18.87890625 C11.54570862 18.88491096 11.54570862 18.88491096 10.30114746 18.89103699 C8.55084135 18.89937188 6.8004655 18.89780608 5.0501709 18.8873291 C0.39711941 18.86637408 -4.25398787 18.93924712 -8.90625 19.01953125 C-10.31345306 19.04332352 -10.31345306 19.04332352 -11.74908447 19.06759644 C-25.60978757 19.36284137 -39.24840657 21.22492638 -52.9375 23.3125 C-54.79157471 23.5911792 -54.79157471 23.5911792 -56.68310547 23.87548828 C-100.97005355 30.67127444 -147.59184871 39.92403437 -176.3046875 77.40234375 C-189.86939807 96.38824488 -197.75657973 115.91793177 -203.38330078 138.47924805 C-206.04231065 149.04146756 -209.59567191 158.88701048 -213.90234375 168.87890625 C-214.39444336 170.03495361 -214.39444336 170.03495361 -214.89648438 171.21435547 C-215.53129053 172.69715369 -216.17901457 174.17451314 -216.84179688 175.64501953 C-218.07033391 178.49168 -218.93436685 180.88137899 -218.95703125 184 C-217.52075905 187.2577515 -215.41895029 188.86461534 -212.6875 191.125 C-205.52962126 197.29471141 -200.56350532 203.6723896 -199.765625 213.41015625 C-199.92798567 221.51465955 -204.05449442 228.25733355 -207.8125 235.20361328 C-208.88335304 237.21099794 -209.90201614 239.23597523 -210.90625 241.27734375 C-219.16150863 257.82824878 -229.81072641 273.26353709 -241.09765625 287.88671875 C-243.89436468 291.57409866 -246.43277866 295.4228151 -248.9375 299.3125 C-247.53364994 302.78627042 -246.16746881 304.07405715 -242.8671875 305.79296875 C-242.05628662 306.23012207 -241.24538574 306.66727539 -240.40991211 307.11767578 C-239.12419312 307.80192627 -239.12419312 307.80192627 -237.8125 308.5 C-222.69152824 316.93233458 -222.69152824 316.93233458 -219 325.484375 C-215.50624382 337.79986552 -220.70876502 348.43181651 -225.9375 359.3125 C-225.05964844 359.73402344 -225.05964844 359.73402344 -224.1640625 360.1640625 C-220.15925634 362.22969936 -216.21015264 364.59718558 -213.5 368.25 C-211.7562187 374.64386478 -213.81920115 378.82763507 -216.9375 384.3125 C-216.2775 384.498125 -215.6175 384.68375 -214.9375 384.875 C-208.40730469 388.00405192 -203.18060212 392.77734936 -200.5546875 399.609375 C-198.71875565 407.65029171 -199.58255733 415.92455884 -201.125 423.9375 C-202.4670943 431.64740344 -201.56503621 439.52970759 -197.02734375 446.0625 C-194.02330887 449.29675064 -191.26886845 450.80566402 -186.9375 451.3125 C-177.03411619 450.02831348 -167.30456814 447.19269766 -157.75 444.375 C-157.09721069 444.18375549 -156.44442139 443.99251099 -155.77185059 443.79547119 C-140.35957031 439.27016924 -125.13041505 434.21187271 -109.93310547 429.01611328 C-106.43273917 427.81988498 -102.928811 426.63482483 -99.42236328 425.45654297 C-94.63076306 423.84605299 -89.84474777 422.21981953 -85.06188965 420.58355713 C-83.22225292 419.95643547 -81.38107467 419.33381321 -79.53820801 418.71624756 C-53.70833489 410.22894461 -53.70833489 410.22894461 -34 392.4375 C-32.78108901 388.85246769 -32.11431244 385.32400939 -31.5625 381.58203125 C-30.83546614 378.94198956 -30.11715323 377.94470544 -27.9375 376.3125 C-24.95164591 375.59011595 -22.9196293 375.10322777 -19.9375 375.3125 C-17.07756522 377.07714061 -15.43967151 378.30815697 -13.9375 381.3125 C-12.92452426 390.87764798 -15.09590088 398.51676376 -20.5625 406.375 C-33.31815117 422.01399246 -50.9305633 428.8911513 -69.4375 435.4375 C-70.48132339 435.80678619 -70.48132339 435.80678619 -71.54623413 436.18353271 C-83.30409058 440.3125 -83.30409058 440.3125 -86.9375 440.3125 C-86.58558594 440.78445801 -86.23367187 441.25641602 -85.87109375 441.74267578 C-73.36126348 458.59256793 -65.66640647 473.02412052 -57.9375 493.3125 C5.0925 493.3125 68.1225 493.3125 133.0625 493.3125 C131.0825 490.0125 129.1025 486.7125 127.0625 483.3125 C116.10597587 461.9728773 111.0481538 438.81056431 107.0625 415.3125 C106.92972656 414.58756348 106.79695313 413.86262695 106.66015625 413.11572266 C98.93730531 370.71596942 109.20982312 326.35989713 133.5 291.0625 C136.90650822 286.18428536 140.46407281 281.4391884 144.125 276.75 C156.33142005 261.09882338 165.66039718 244.95779344 171.62963867 225.9621582 C174.18203135 218.08002353 174.18203135 218.08002353 178.0625 215.3125 C182.99582128 214.60773982 184.90687903 214.54208602 189.0625 217.3125 C191.56684277 221.06901416 191.5014787 223.96892129 191.0625 228.3125 C190.44307263 231.22874212 189.54756031 234.00079255 188.5625 236.8125 C188.1598291 237.98208252 188.1598291 237.98208252 187.74902344 239.17529297 C181.37503324 257.07540083 171.27292559 273.24153879 159.56640625 288.11328125 C143.39518851 308.67012818 131.69552106 330.67294341 126.0625 356.3125 C125.815 357.42367188 125.5675 358.53484375 125.3125 359.6796875 C117.13802172 405.20699012 131.60841093 454.58768005 155.0625 493.3125 C157.7494903 497.88038351 158.74062912 500.98434264 158.0625 506.3125 C156.26687595 509.06579021 155.00995078 510.83877461 152.0625 512.3125 C149.18916004 512.41937706 146.33958372 512.46471848 143.46562195 512.46640015 C142.56497586 512.4707824 141.66432976 512.47516465 140.73639137 512.4796797 C137.70015404 512.49309904 134.66394576 512.49925356 131.62768555 512.50537109 C129.45818957 512.51326951 127.28869492 512.5215383 125.11920166 512.53015137 C117.97922017 512.55639883 110.83923273 512.57168047 103.69921875 512.5859375 C101.24455066 512.59129582 98.78988262 512.59667332 96.33521461 512.60206985 C86.12775907 512.62370145 75.92030513 512.64243984 65.71283245 512.65369225 C51.06647471 512.66994228 36.42048482 512.70314242 21.77422684 512.76009309 C11.4854461 512.79874136 1.19673635 512.81831881 -9.0921151 512.82361281 C-15.24209071 512.82727291 -21.39178402 512.83936444 -27.54168129 512.87171555 C-33.32586177 512.90170644 -39.10958779 512.90813996 -44.89382935 512.89633179 C-47.01871112 512.89611031 -49.14361344 512.90447637 -51.26842308 512.92198563 C-54.16605793 512.94456671 -57.0620294 512.93643361 -59.95967102 512.92050171 C-60.80364215 512.9343838 -61.64761327 512.94826588 -62.51715928 512.96256864 C-66.83693136 512.90391057 -68.43998883 512.71103751 -71.93091106 509.91459084 C-73.82157565 507.4628276 -74.82896369 505.73805061 -75.67578125 502.79296875 C-75.93423828 501.94331543 -76.19269531 501.09366211 -76.45898438 500.21826172 C-76.72001953 499.32123535 -76.98105469 498.42420898 -77.25 497.5 C-80.25760857 487.87198477 -83.99398628 479.09568462 -88.9375 470.3125 C-89.51371094 469.28511719 -90.08992187 468.25773437 -90.68359375 467.19921875 C-94.49155298 460.84089422 -99.77058338 452.08911859 -107.10522461 449.56713867 C-110.90317104 449.22568034 -113.93587428 450.31650388 -117.46484375 451.55859375 C-118.1984462 451.80498596 -118.93204865 452.05137817 -119.68788147 452.30523682 C-121.26607324 452.83548722 -122.84264638 453.37057496 -124.41772461 453.91000366 C-128.56940027 455.3292147 -132.73469949 456.70662457 -136.90234375 458.078125 C-137.74356781 458.35504684 -138.58479187 458.63196869 -139.45150757 458.9172821 C-147.5416628 461.55476674 -155.70630354 463.84850115 -163.9375 466 C-165.18136475 466.32605225 -166.42522949 466.65210449 -167.70678711 466.98803711 C-180.00533305 470.16338589 -191.47627749 472.8581544 -203.13671875 466.0234375 C-205.19452259 464.55749724 -207.0666994 463.00955454 -208.9375 461.3125 C-209.48277344 460.83296875 -210.02804688 460.3534375 -210.58984375 459.859375 C-218.23548256 452.15537254 -221.02244276 439.56339582 -221.125 429 C-221.09629811 425.62465823 -220.65053122 422.54713726 -219.9375 419.25 C-218.97345594 414.71828924 -218.38820691 410.94225607 -218.9375 406.3125 C-222.05965238 402.08248709 -226.45194754 399.52010138 -230.8515625 396.7421875 C-234.1069842 394.51094341 -235.67379363 393.1036191 -236.9375 389.3125 C-237.0799965 385.03760507 -237.09735331 381.8819774 -235.9375 377.75 C-235.56105537 374.32724361 -235.56105537 374.32724361 -237.58203125 372.42578125 C-239.00394841 371.2037011 -240.46250796 370.02275946 -241.95703125 368.890625 C-243.9375 367.3125 -243.9375 367.3125 -245.9375 364.3125 C-246.71213201 356.82439061 -244.3942005 351.70302217 -240.78125 345.24609375 C-238.08172171 340.31945463 -236.75812966 336.93718932 -237.9375 331.3125 C-240.57501615 328.68788124 -243.6760295 327.06266938 -246.9375 325.3125 C-255.62702464 320.58602729 -264.05338304 315.93370715 -267.9375 306.3125 C-269.35339301 297.15003851 -267.15598125 290.77179912 -261.9375 283.3125 C-259.7898673 280.50778161 -257.61037148 277.73829132 -255.39160156 274.98999023 C-243.32806773 259.94693323 -233.58984369 243.05261817 -224.4375 226.125 C-224.11104492 225.52534424 -223.78458984 224.92568848 -223.44824219 224.30786133 C-221.54797239 220.73144834 -219.77953251 217.28601288 -218.9375 213.3125 C-219.9509467 211.11428187 -219.9509467 211.11428187 -221.875 209.375 C-222.53113281 208.69179687 -223.18726563 208.00859375 -223.86328125 207.3046875 C-225.15624603 206.06285692 -226.46392261 204.83594901 -227.79296875 203.6328125 C-233.84122623 198.05185968 -237.31081715 191.62964853 -238.5 183.4375 C-237.82223641 174.62657333 -234.01730915 166.27757536 -230.4375 158.3125 C-226.6294838 149.83446394 -223.97627899 141.26881784 -221.609375 132.28125 C-213.42209859 101.30422266 -201.22673707 76.32092312 -179.9375 52.3125 C-179.35742188 51.64734375 -178.77734375 50.9821875 -178.1796875 50.296875 C-144.81619091 14.41854198 -86.59510653 8.6111858 -40.9375 2.3125 C-39.57431641 2.11116455 -39.57431641 2.11116455 -38.18359375 1.90576172 C-25.52520694 0.05236118 -12.76626699 0.08291338 0 0 Z " fill="#000000" transform="translate(267.9375,-0.3125)"/>
<path d="M0 0 C11.08308016 10.51642644 19.06401843 23.86095641 19.55078125 39.41015625 C19.83095405 58.67646907 16.00011286 74.25642816 2.34765625 88.71484375 C-9.37309683 99.97320005 -24.49883771 105.66051469 -40.65234375 106.08984375 C-57.51624833 105.62347471 -72.15012582 99.41439205 -84.02734375 87.53515625 C-96.29812825 74.35136695 -101.43923319 58.93085635 -100.9609375 41.1328125 C-100.10085779 24.78416036 -92.41939764 10.84427403 -80.65234375 -0.28515625 C-56.99529951 -19.91628535 -23.410753 -20.16979456 0 0 Z M-72.83984375 17.96484375 C-80.51525224 27.43884933 -83.91209393 38.63698893 -82.65234375 50.71484375 C-80.90250559 59.05640181 -78.02890715 66.08852228 -72.65234375 72.71484375 C-72.15089844 73.34003906 -71.64945312 73.96523437 -71.1328125 74.609375 C-64.17814529 82.37626612 -53.62061141 86.97828119 -43.328125 87.9296875 C-31.0571395 88.41128034 -19.42434009 83.78154509 -10.34765625 75.5703125 C-0.92970223 65.26264393 2.15481963 54.53695382 1.6953125 40.8828125 C1.11564279 31.69743698 -2.65985731 24.53438038 -8.65234375 17.71484375 C-9.15378906 17.10898438 -9.65523438 16.503125 -10.171875 15.87890625 C-16.63047253 8.68173431 -25.93382127 4.11514032 -35.55859375 3.44140625 C-50.62051438 2.97123497 -62.36125243 6.66388198 -72.83984375 17.96484375 Z " fill="#000000" transform="translate(347.65234375,125.28515625)"/>
<path d="M0 0 C2.51930235 3.70022533 2.7066341 5.5406656 2 9.9375 C-0.19589793 13.62728246 -1.62704546 14.79912046 -5.6953125 16.30859375 C-7.16791084 16.68014319 -8.64486922 17.03469467 -10.125 17.375 C-11.74961595 17.79069937 -13.37329371 18.21007974 -14.99609375 18.6328125 C-15.82608887 18.84583008 -16.65608398 19.05884766 -17.51123047 19.27832031 C-43.63356164 26.19712492 -62.97177505 37.76913105 -77.0625 61.4921875 C-84.69597174 75.06622395 -88.94556189 88.94706713 -93 103.9375 C-99.14154225 103.35259121 -105.00679849 102.39683748 -111 100.9375 C-105.88203325 75.97669011 -97.74006325 53.55696705 -81 33.9375 C-80.36964844 33.13441406 -79.73929688 32.33132812 -79.08984375 31.50390625 C-67.0213574 16.71936989 -18.63242373 -12.80979132 0 0 Z " fill="#000000" transform="translate(189,47.0625)"/>
<path d="M0 0 C1.9375 1.0625 1.9375 1.0625 3 3 C4.67546482 9.38770961 4.67546482 9.38770961 3.22265625 12.85546875 C1.57077798 15.19702011 -0.15484716 16.76362929 -2.94140625 17.54296875 C-6.8517803 17.81751114 -8.69070418 17.20619721 -12 15 C-14.20619721 11.69070418 -14.81751114 9.8517803 -14.54296875 5.94140625 C-13.76362929 3.15484716 -12.19702011 1.42922202 -9.85546875 -0.22265625 C-6.27673683 -1.72195657 -3.71125636 -0.97344429 0 0 Z " fill="#000000" transform="translate(82,171)"/>
<path d="M0 0 C2.99380345 1.99586897 4.63808488 3.38259171 5.44140625 6.97265625 C5.63651403 10.33983897 5.25780968 12.5978169 3.4375 15.4375 C0.1454077 17.54781557 -2.08699373 18 -6 18 C-9.375 16.5625 -9.375 16.5625 -12 14 C-13.50509038 9.96400346 -13.43911269 6.98277601 -11.6875 3.0625 C-8.56612554 -0.75251323 -4.65415842 -0.76531094 0 0 Z " fill="#000000" transform="translate(311,162)"/>
</svg>
