<?xml version="1.0" encoding="UTF-8"?>
<svg version="1.1" xmlns="http://www.w3.org/2000/svg" width="100" height="100">
<path d="M0 0 C0.74185547 -0.020625 1.48371094 -0.04125 2.24804688 -0.0625 C4.40234375 -0.078125 4.40234375 -0.078125 8.0625 0.25 C10.0625 3.25 10.0625 3.25 10.0625 6.25 C11.0525 5.59 12.0425 4.93 13.0625 4.25 C18.05087985 3.51161675 22.07874981 3.80900854 26.6875 5.875 C29.0625 8.25 29.0625 8.25 29.5 11.375 C29.0625 14.25 29.0625 14.25 28.0625 16.25 C28.81015625 16.33636719 29.5578125 16.42273438 30.328125 16.51171875 C38.37686326 17.6600335 38.37686326 17.6600335 41.75 20.5625 C43.20748624 23.54687658 43.63359624 24.98659292 43.0625 28.25 C42.08060813 29.92739862 41.08116229 31.59467377 40.0625 33.25 C40.0625 34.57 40.0625 35.89 40.0625 37.25 C41.031875 37.394375 42.00125 37.53875 43 37.6875 C46.0625 38.25 46.0625 38.25 47.0625 39.25 C47.13455511 40.93608966 47.14636068 42.62500659 47.125 44.3125 C47.11597656 45.23160156 47.10695313 46.15070312 47.09765625 47.09765625 C47.08605469 47.80792969 47.07445313 48.51820312 47.0625 49.25 C44.41511084 50.7106285 43.16801666 51.25 40.0625 51.25 C40.39210216 56.26535052 40.39210216 56.26535052 43.0625 60.25 C43.58359465 63.46341703 43.1759496 65.0282576 41.6875 67.9375 C37.90558398 71.26918792 33.96066626 71.62370775 29.0625 72.25 C29.18625 73.4875 29.31 74.725 29.4375 76 C29.41225668 79.55930817 29.28619902 80.01452735 26.6875 82.75 C22.07896798 84.65697877 17.99492256 84.98010041 13.0625 84.25 C12.0725 83.59 11.0825 82.93 10.0625 82.25 C9.918125 83.054375 9.77375 83.85875 9.625 84.6875 C9.0625 87.25 9.0625 87.25 8.0625 88.25 C5.40247189 88.40317991 2.7862812 88.48159875 0.125 88.5 C-0.61685547 88.520625 -1.35871094 88.54125 -2.12304688 88.5625 C-4.27734375 88.578125 -4.27734375 88.578125 -7.9375 88.25 C-9.9375 85.25 -9.9375 85.25 -9.9375 82.25 C-10.9275 82.91 -11.9175 83.57 -12.9375 84.25 C-17.92587985 84.98838325 -21.95374981 84.69099146 -26.5625 82.625 C-28.9375 80.25 -28.9375 80.25 -29.375 77.125 C-28.9375 74.25 -28.9375 74.25 -27.9375 72.25 C-29.05898438 72.12044922 -29.05898438 72.12044922 -30.203125 71.98828125 C-38.25186326 70.8399665 -38.25186326 70.8399665 -41.625 67.9375 C-43.08248624 64.95312342 -43.50859624 63.51340708 -42.9375 60.25 C-41.95560813 58.57260138 -40.95616229 56.90532623 -39.9375 55.25 C-39.9375 53.93 -39.9375 52.61 -39.9375 51.25 C-40.906875 51.105625 -41.87625 50.96125 -42.875 50.8125 C-45.9375 50.25 -45.9375 50.25 -46.9375 49.25 C-47.00955511 47.56391034 -47.02136068 45.87499341 -47 44.1875 C-46.99097656 43.26839844 -46.98195312 42.34929688 -46.97265625 41.40234375 C-46.96105469 40.69207031 -46.94945312 39.98179688 -46.9375 39.25 C-44.29011084 37.7893715 -43.04301666 37.25 -39.9375 37.25 C-40.26710216 32.23464948 -40.26710216 32.23464948 -42.9375 28.25 C-43.47320328 24.94649643 -43.0499089 23.45608298 -41.4375 20.5 C-37.92918446 17.34251601 -35.60747928 17.54650662 -30.9375 17.25 C-29.9475 16.92 -28.9575 16.59 -27.9375 16.25 C-28.2675 15.59 -28.5975 14.93 -28.9375 14.25 C-29.375 11.375 -29.375 11.375 -28.9375 8.25 C-25.45471259 4.76721259 -22.52387322 3.98683305 -17.75 3.875 C-14.09662525 3.93111943 -13.09760357 4.14326429 -9.9375 6.25 C-9.793125 5.445625 -9.64875 4.64125 -9.5 3.8125 C-8.36808623 -1.34399608 -4.49236482 0.03106216 0 0 Z " fill="#54586C" transform="translate(49.9375,5.75)"/>
<path d="M0 0 C3.25 -0.3125 3.25 -0.3125 7 0 C9.67305878 2.3988989 10.81705052 3.95457442 11.4375 7.5 C10.91039968 10.51200181 9.59244956 12.41226947 8 15 C8 16.32 8 17.64 8 19 C8.969375 19.144375 9.93875 19.28875 10.9375 19.4375 C14 20 14 20 15 21 C15.07205511 22.68608966 15.08386068 24.37500659 15.0625 26.0625 C15.05347656 26.98160156 15.04445313 27.90070312 15.03515625 28.84765625 C15.02355469 29.55792969 15.01195313 30.26820312 15 31 C12.35261084 32.4606285 11.10551666 33 8 33 C8.32960216 38.01535052 8.32960216 38.01535052 11 42 C11.54441203 45.3572075 11.10181685 46.81672968 9.4375 49.8125 C7 52 7 52 3.25 52.3125 C2.1775 52.209375 1.105 52.10625 0 52 C0.495 51.278125 0.99 50.55625 1.5 49.8125 C3.09315671 46.82533117 3.44864851 45.31999901 3 42 C2.34 41.34 1.68 40.68 1 40 C1 36.5625 1 36.5625 2 33 C5.0625 31.0625 5.0625 31.0625 8 30 C8 27.36 8 24.72 8 22 C6.5459375 21.4740625 6.5459375 21.4740625 5.0625 20.9375 C2 19 2 19 1 15.4375 C1 12 1 12 3 10 C3.57258316 5.76288459 2.37600959 3.46501398 0 0 Z " fill="#463B4B" transform="translate(82,24)"/>
<path d="M0 0 C3.91641711 -0.11618764 7.83239101 -0.18724654 11.75 -0.25 C13.41675781 -0.30027344 13.41675781 -0.30027344 15.1171875 -0.3515625 C16.18710937 -0.36445312 17.25703125 -0.37734375 18.359375 -0.390625 C19.34389648 -0.41157227 20.32841797 -0.43251953 21.34277344 -0.45410156 C24.75307863 0.12869591 25.93452715 1.27180859 28 4 C27.9375 7.125 27.9375 7.125 27 10 C23.60102327 12.26598448 22.43680827 12.23742654 18.45703125 12.1953125 C16.84731445 12.18564453 16.84731445 12.18564453 15.20507812 12.17578125 C13.52575195 12.15064453 13.52575195 12.15064453 11.8125 12.125 C10.68134766 12.11597656 9.55019531 12.10695313 8.38476562 12.09765625 C5.58963172 12.07406862 2.79492155 12.041153 0 12 C0.33644531 11.40445313 0.67289063 10.80890625 1.01953125 10.1953125 C2.3731159 7.16457714 1.75839236 5.17145895 1 2 C0.67 1.34 0.34 0.68 0 0 Z " fill="#463C4B" transform="translate(44,44)"/>
<path d="M0 0 C1.60488281 0.01450195 1.60488281 0.01450195 3.2421875 0.02929688 C4.35335937 0.05443359 5.46453125 0.07957031 6.609375 0.10546875 C8.29933594 0.12577148 8.29933594 0.12577148 10.0234375 0.14648438 C12.80256764 0.1818123 15.58072863 0.23114355 18.359375 0.29296875 C17.369375 1.77796875 17.369375 1.77796875 16.359375 3.29296875 C16.14622515 6.70336635 16.274481 9.03828674 17.359375 12.29296875 C13.42201377 12.37993052 9.48489872 12.4333471 5.546875 12.48046875 C3.86754883 12.51817383 3.86754883 12.51817383 2.15429688 12.55664062 C1.08115234 12.56630859 0.00800781 12.57597656 -1.09765625 12.5859375 C-2.5822937 12.60950317 -2.5822937 12.60950317 -4.09692383 12.63354492 C-6.640625 12.29296875 -6.640625 12.29296875 -8.4597168 10.9621582 C-10.31539359 8.33919723 -10.09433315 6.40411037 -9.640625 3.29296875 C-6.5653308 0.22798531 -4.2504013 -0.06782555 0 0 Z " fill="#463C4B" transform="translate(31.640625,24.70703125)"/>
<path d="M0 0 C1.6097168 0.01450195 1.6097168 0.01450195 3.25195312 0.02929688 C4.37150391 0.05443359 5.49105469 0.07957031 6.64453125 0.10546875 C7.77568359 0.11900391 8.90683594 0.13253906 10.07226562 0.14648438 C12.86766442 0.18186917 15.66211017 0.23123927 18.45703125 0.29296875 C18.31394531 1.21529297 18.31394531 1.21529297 18.16796875 2.15625 C18.00167969 3.36861328 18.00167969 3.36861328 17.83203125 4.60546875 C17.71601562 5.40597656 17.6 6.20648438 17.48046875 7.03125 C17.24169718 9.5802009 17.24169718 9.5802009 19.45703125 12.29296875 C15.54061414 12.40915639 11.62464024 12.48021529 7.70703125 12.54296875 C6.04027344 12.59324219 6.04027344 12.59324219 4.33984375 12.64453125 C3.26992188 12.65742187 2.2 12.6703125 1.09765625 12.68359375 C-0.37912598 12.71501465 -0.37912598 12.71501465 -1.88574219 12.74707031 C-5.28515184 12.16613481 -6.44223913 10.97185836 -8.54296875 8.29296875 C-8.98046875 5.73046875 -8.98046875 5.73046875 -8.54296875 3.29296875 C-6.10568548 -0.07952182 -4.0152701 -0.06373445 0 0 Z " fill="#463C4B" transform="translate(30.54296875,62.70703125)"/>
<path d="M0 0 C2.28125 1.30859375 2.28125 1.30859375 4 3 C4.5 6.5 4.5 6.5 4 10 C1.7963743 12.21896416 0.4154313 12.93849928 -2.69140625 13.3984375 C-3.63886719 13.39070313 -4.58632813 13.38296875 -5.5625 13.375 C-6.51253906 13.38273437 -7.46257813 13.39046875 -8.44140625 13.3984375 C-11 13 -11 13 -12.8125 11.66015625 C-14.69018276 9.03510634 -14.44716631 7.13016417 -14 4 C-10.97163298 -1.23081576 -5.4356334 -0.96691556 0 0 Z " fill="#D4E3ED" transform="translate(61,62)"/>
<path d="M0 0 C0.845625 -0.00773437 1.69125 -0.01546875 2.5625 -0.0234375 C5.50674905 0.45783398 6.88415063 1.28800313 9 3.375 C9.5 6.875 9.5 6.875 9 10.375 C6.13775687 13.19170745 3.96448697 13.80645657 0 13.8125 C-3.34170863 13.6991382 -4.7347052 13.53923011 -7.625 11.75 C-9.41142544 8.66435606 -9.59713581 6.88317286 -9 3.375 C-6.09618668 0.57018031 -3.98981614 -0.03649222 0 0 Z " fill="#995EA8" transform="translate(56,24.625)"/>
<path d="M0 0 C1.04027344 -0.01933594 2.08054687 -0.03867187 3.15234375 -0.05859375 C6.72244659 0.55000096 7.91786759 1.56244931 10.0625 4.4375 C10 7.5625 10 7.5625 9.0625 10.4375 C5.61574591 12.73533606 4.12921888 12.73504883 0.0625 12.75 C-0.989375 12.76675781 -2.04125 12.78351562 -3.125 12.80078125 C-5.9375 12.4375 -5.9375 12.4375 -7.7890625 11.10546875 C-9.5795006 8.50507056 -9.32053014 6.50174113 -8.9375 3.4375 C-6.51502849 -0.05250133 -4.07047302 0.00503149 0 0 Z " fill="#8DC43C" transform="translate(36.9375,43.5625)"/>
<path d="M0 0 C0 0.99 0 1.98 0 3 C0.12375 4.299375 0.2475 5.59875 0.375 6.9375 C0.37109375 9.05859375 0.37109375 9.05859375 0 11 C-3.31488859 14.23403765 -5.25358374 14.95184411 -9.875 15.25 C-10.90625 15.1675 -11.9375 15.085 -13 15 C-12.175 14.505 -11.35 14.01 -10.5 13.5 C-7.83795308 11.35493402 -7.83795308 11.35493402 -7.7734375 9.05859375 C-7.80695313 8.35863281 -7.84046875 7.65867187 -7.875 6.9375 C-8 3 -8 3 -6.8125 1 C-4.44004321 -0.30894168 -2.6664882 -0.21620175 0 0 Z " fill="#463D4C" transform="translate(79,75)"/>
<path d="M0 0 C4.15723417 -0.33257873 6.63127225 -0.17430766 10.4375 1.625 C13 4 13 4 13.4375 7.125 C13 10 13 10 12 12 C12.66 12 13.32 12 14 12 C14 12.99 14 13.98 14 15 C11.125 15.125 11.125 15.125 8 15 C5.58469807 12.58469807 5.79141497 11.91746374 5.6875 8.625 C5.37179337 4.85473428 5.25918763 4.25918763 2.4375 1.4375 C1.633125 0.963125 0.82875 0.48875 0 0 Z " fill="#453C4B" transform="translate(66,10)"/>
<path d="M0 0 C1.58246707 -0.08153933 3.16616273 -0.13943557 4.75 -0.1875 C6.07257812 -0.23970703 6.07257812 -0.23970703 7.421875 -0.29296875 C10.5125515 0.05824449 11.81474628 0.80973423 14 3 C14.5 6.5 14.5 6.5 14 10 C12.375 11.9375 12.375 11.9375 10 13 C6.75 13.1875 6.75 13.1875 4 13 C4.495 12.67 4.99 12.34 5.5 12 C7.88179561 8.82427253 7.19168226 5.89753934 7 2 C4.69 1.67 2.38 1.34 0 1 C0 0.67 0 0.34 0 0 Z " fill="#A1BCD3" transform="translate(51,62)"/>
<path d="M0 0 C3.55930982 -0.32357362 5.41791735 -0.3880551 8.4375 1.625 C10 4 10 4 10 7.0625 C9 10 9 10 7.3125 11.875 C4.40422845 13.28983481 2.19384754 13.21776233 -1 13 C-0.505 12.649375 -0.01 12.29875 0.5 11.9375 C2.77541639 8.9984205 2.32194022 6.60573045 2 3 C1.34 2.01 0.68 1.02 0 0 Z " fill="#493E4F" transform="translate(62,25)"/>
<path d="M0 0 C6.27455919 0.59193955 6.27455919 0.59193955 9 2.125 C10.66299961 5.24312427 9.84309589 7.68783759 9 11 C5.77208445 13.1519437 4.71599191 13.20086443 1 13 C1.33 12.01 1.66 11.02 2 10 C2.343491 4.66704568 2.343491 4.66704568 0 0 Z " fill="#4A4352" transform="translate(62,62)"/>
<path d="M0 0 C3.18136394 -0.21691118 5.43969547 -0.25066255 8.375 1.0625 C10 3 10 3 10.5 6.5 C10 10 10 10 8.296875 11.70703125 C5.5467664 13.2551366 3.88058752 13.31107582 0.75 13.1875 C-0.14203125 13.16042969 -1.0340625 13.13335937 -1.953125 13.10546875 C-2.62859375 13.07066406 -3.3040625 13.03585938 -4 13 C-4 12.67 -4 12.34 -4 12 C-2.5459375 11.814375 -2.5459375 11.814375 -1.0625 11.625 C-0.051875 11.41875 0.95875 11.2125 2 11 C3.39935013 8.20129973 3.25265405 6.09501208 3 3 C1.62493901 1.12109566 1.62493901 1.12109566 0 0 Z " fill="#7D4B8C" transform="translate(55,25)"/>
<path d="M0 0 C3.55930982 -0.32357362 5.41791735 -0.3880551 8.4375 1.625 C10 4 10 4 9.9375 7.125 C9 10 9 10 6 12 C2.8125 12.125 2.8125 12.125 0 12 C0.515625 11.46375 1.03125 10.9275 1.5625 10.375 C3.2978856 8.01548747 3.2978856 8.01548747 2.8125 4.875 C2.22389082 1.89845558 2.22389082 1.89845558 0 0 Z " fill="#5FA745" transform="translate(37,44)"/>
<path d="M0 0 C-0.99 1.485 -0.99 1.485 -2 3 C-2.33957563 7.07490752 -2.31332486 8.53001271 0 12 C-5.4 12.36 -5.4 12.36 -7.875 10.875 C-9.52854531 8.11909116 -9.39365568 6.14924548 -9 3 C-6.77089201 -0.71517998 -4.03410755 -0.2689405 0 0 Z " fill="#463D4B" transform="translate(31,44)"/>
<path d="M0 0 C-0.99 2.31 -1.98 4.62 -3 7 C-5.31 7 -7.62 7 -10 7 C-6.57692308 -1.55769231 -6.57692308 -1.55769231 0 0 Z " fill="#433A48" transform="translate(61,87)"/>
<path d="M0 0 C3.375 -0.1875 3.375 -0.1875 7 0 C9.1519437 3.22791555 9.20086443 4.28400809 9 8 C6.1875 7.9375 6.1875 7.9375 3 7 C1.5073959 4.72555566 0.85757989 2.62038301 0 0 Z " fill="#473B4C" transform="translate(51,6)"/>
<path d="M0 0 C6.52307692 -0.36923077 6.52307692 -0.36923077 8.9375 1.5 C9.288125 1.995 9.63875 2.49 10 3 C9 4 9 4 6.125 4.3125 C3 4 3 4 1.125 2 C0.75375 1.34 0.3825 0.68 0 0 Z " fill="#443B4A" transform="translate(30,10)"/>
<path d="M0 0 C2.31 0.33 4.62 0.66 7 1 C5.9375 2.5 5.9375 2.5 4 4 C0.3125 4.1875 0.3125 4.1875 -3 4 C-2.01 2.68 -1.02 1.36 0 0 Z " fill="#433A49" transform="translate(33,86)"/>
</svg>
