<?xml version="1.0" encoding="UTF-8"?>
<svg version="1.1" xmlns="http://www.w3.org/2000/svg" width="96" height="96">
<path d="M0 0 C1.67231689 0.00205444 1.67231689 0.00205444 3.37841797 0.00415039 C11.37090816 0.25630817 11.37090816 0.25630817 14.34204102 2.64575195 C16.60484286 5.49552722 17.09926197 8.32076215 18.0625 11.8125 C19.13481442 15.25710801 19.13481442 15.25710801 22.0625 17.8125 C26.66872353 19.23061974 31.30242448 20.08703395 36.0625 20.8125 C36.0625 22.7925 36.0625 24.7725 36.0625 26.8125 C33.01932614 26.94808695 29.98224438 27.04687239 26.9375 27.125 C25.65359375 27.1878418 25.65359375 27.1878418 24.34375 27.25195312 C19.85896437 27.338199 16.97593774 27.23515645 13.4453125 24.29296875 C12.65898438 23.47441406 11.87265625 22.65585937 11.0625 21.8125 C9.4432643 24.38094284 8.51808983 25.8694944 8.0625 28.8125 C9.027024 31.4960201 10.27881707 33.75744833 11.765625 36.1875 C14.75587962 42.24006357 14.19025152 49.14955764 14.125 55.75 C14.12048828 56.62462891 14.11597656 57.49925781 14.11132812 58.40039062 C14.09964834 60.53779047 14.08171689 62.67515463 14.0625 64.8125 C12.0825 64.8125 10.1025 64.8125 8.0625 64.8125 C7.66417969 63.29269531 7.66417969 63.29269531 7.2578125 61.7421875 C6.90114311 60.39059823 6.54436657 59.03903722 6.1875 57.6875 C6.01347656 57.02234375 5.83945312 56.3571875 5.66015625 55.671875 C5.30898307 54.34522077 4.94993808 53.02062497 4.58300781 51.69824219 C4.11291661 49.9951538 3.67554736 48.28311576 3.2421875 46.5703125 C1.80967673 43.22146282 0.03388223 41.845551 -2.9375 39.8125 C-3.43894531 40.39 -3.94039062 40.9675 -4.45703125 41.5625 C-9.45649956 46.46828151 -13.33504701 48.30214956 -20.2409668 48.42382812 C-30.78950761 48.22353304 -30.78950761 48.22353304 -35.9375 46.8125 C-35.9375 44.8325 -35.9375 42.8525 -35.9375 40.8125 C-34.63554688 40.60496094 -33.33359375 40.39742187 -31.9921875 40.18359375 C-30.2653563 39.87389033 -28.53880766 39.5626085 -26.8125 39.25 C-25.9565625 39.11787109 -25.100625 38.98574219 -24.21875 38.84960938 C-18.56589563 37.78426374 -15.57780395 36.20886914 -12.00048828 31.6730957 C-10.4615357 28.9793985 -10.06241753 26.33193883 -9.5703125 23.30078125 C-8.32431341 18.40138976 -5.50338566 14.12932021 -2.9375 9.8125 C-8.93269835 10.82502239 -13.03358672 12.22427077 -17.9375 15.8125 C-18.5975 15.8125 -19.2575 15.8125 -19.9375 15.8125 C-18.9475 17.2975 -18.9475 17.2975 -17.9375 18.8125 C-18.26408025 22.05909193 -19.49944923 23.82886845 -21.75 26.125 C-22.25144531 26.65738281 -22.75289062 27.18976562 -23.26953125 27.73828125 C-24.9375 28.8125 -24.9375 28.8125 -26.8359375 28.75 C-29.69927381 27.47267525 -31.52257581 25.6986368 -33.75 23.5 C-34.56082031 22.72011719 -35.37164062 21.94023438 -36.20703125 21.13671875 C-37.9375 18.8125 -37.9375 18.8125 -37.86328125 16.7265625 C-36.86912669 14.67113746 -35.8663496 13.17433527 -34.3125 11.5 C-33.84585938 10.96761719 -33.37921875 10.43523438 -32.8984375 9.88671875 C-30.9375 8.8125 -30.9375 8.8125 -27.5 9.421875 C-26.324375 9.55078125 -25.14875 9.6796875 -23.9375 9.8125 C-21.6106633 7.9490116 -21.6106633 7.9490116 -19.5625 5.375 C-13.55187981 -0.05231106 -7.90566343 -0.04104064 0 0 Z " fill="#46B3DB" transform="translate(47.9375,23.1875)"/>
<path d="M0 0 C9.27525957 3.58775637 15.2894091 7.06749023 19.94140625 16.12109375 C22.31416511 22.57394718 22.12949227 29.16097441 22.0625 35.9375 C22.05798828 36.81212891 22.05347656 37.68675781 22.04882812 38.58789062 C22.03714834 40.72529047 22.01921689 42.86265463 22 45 C20.02 45 18.04 45 16 45 C15.60167969 43.48019531 15.60167969 43.48019531 15.1953125 41.9296875 C14.83864311 40.57809823 14.48186657 39.22653722 14.125 37.875 C13.95097656 37.20984375 13.77695312 36.5446875 13.59765625 35.859375 C13.24648307 34.53272077 12.88743808 33.20812497 12.52050781 31.88574219 C12.05041661 30.1826538 11.61304736 28.47061576 11.1796875 26.7578125 C9.74717673 23.40896282 7.97138223 22.033051 5 20 C4.49855469 20.5775 3.99710938 21.155 3.48046875 21.75 C-1.51899956 26.65578151 -5.39754701 28.48964956 -12.3034668 28.61132812 C-22.85200761 28.41103304 -22.85200761 28.41103304 -28 27 C-28 25.02 -28 23.04 -28 21 C-26.69804687 20.79246094 -25.39609375 20.58492187 -24.0546875 20.37109375 C-22.3278563 20.06139033 -20.60130766 19.7501085 -18.875 19.4375 C-17.59109375 19.23930664 -17.59109375 19.23930664 -16.28125 19.03710938 C-10.63611808 17.97321913 -7.53315463 16.43440332 -4.07324219 11.78051758 C-2.74699743 9.58026667 -2.05280885 7.66895803 -1.6875 5.125 C-1.04426559 1.04426559 -1.04426559 1.04426559 0 0 Z " fill="#094171" transform="translate(40,43)"/>
<path d="M0 0 C0 2.97 0 5.94 0 9 C-1.051875 9.433125 -2.10375 9.86625 -3.1875 10.3125 C-5.54729641 11.31565232 -7.59905825 12.35943495 -9.8125 13.6875 C-12 15 -12 15 -14 15 C-13.01 16.485 -13.01 16.485 -12 18 C-12.32658025 21.24659193 -13.56194923 23.01636845 -15.8125 25.3125 C-16.31394531 25.84488281 -16.81539062 26.37726562 -17.33203125 26.92578125 C-19 28 -19 28 -20.8984375 27.9375 C-23.76177381 26.66017525 -25.58507581 24.8861368 -27.8125 22.6875 C-28.62332031 21.90761719 -29.43414063 21.12773438 -30.26953125 20.32421875 C-32 18 -32 18 -31.92578125 15.9140625 C-30.93162669 13.85863746 -29.9288496 12.36183527 -28.375 10.6875 C-27.90835937 10.15511719 -27.44171875 9.62273438 -26.9609375 9.07421875 C-25 8 -25 8 -21.6328125 8.609375 C-17.94461926 9.39537529 -17.94461926 9.39537529 -15.15625 7.12890625 C-14.2796875 6.28199219 -13.403125 5.43507813 -12.5 4.5625 C-8.21468376 0.43473215 -5.97975333 -0.54024999 0 0 Z " fill="#94414C" transform="translate(42,24)"/>
<path d="M0 0 C2.5 1.5 2.5 1.5 4 4 C4.791013 8.02098277 4.62153384 10.96411027 2.5 14.5 C-1.03588973 16.62153384 -3.97901723 16.791013 -8 16 C-10.5 14.5 -10.5 14.5 -12 12 C-12.791013 7.97901723 -12.62153384 5.03588973 -10.5 1.5 C-6.96411027 -0.62153384 -4.02098277 -0.791013 0 0 Z " fill="#FFD056" transform="translate(72,8)"/>
<path d="M0 0 C0 2.97 0 5.94 0 9 C-1.5159375 9.61875 -1.5159375 9.61875 -3.0625 10.25 C-5.78872873 11.3923671 -8.19850583 12.72320719 -10.6875 14.3125 C-14 16 -14 16 -16.3125 15.5 C-18.2015004 13.82088854 -18.93635977 12.26662197 -20 10 C-17.99456619 8.31121364 -15.97398912 6.65060455 -13.9375 5 C-13.37611328 4.52304687 -12.81472656 4.04609375 -12.23632812 3.5546875 C-8.1044279 0.24916732 -5.45994058 -0.55642707 0 0 Z " fill="#EFB421" transform="translate(42,24)"/>
<path d="M0 0 C0.66 0 1.32 0 2 0 C2.33 0.66 2.66 1.32 3 2 C5.33247815 2.62852934 7.69291467 3.15535246 10.0625 3.625 C11.99802734 4.01558594 11.99802734 4.01558594 13.97265625 4.4140625 C14.97167969 4.60742188 15.97070312 4.80078125 17 5 C17 6.98 17 8.96 17 11 C13.89614789 11.11613204 10.79285338 11.18722029 7.6875 11.25 C6.80642578 11.28351562 5.92535156 11.31703125 5.01757812 11.3515625 C-1.52876499 11.45112665 -1.52876499 11.45112665 -4.10546875 8.984375 C-4.40066406 8.32953125 -4.69585937 7.6746875 -5 7 C-4.21654285 5.82780457 -3.42297164 4.66236332 -2.625 3.5 C-2.18414062 2.8503125 -1.74328125 2.200625 -1.2890625 1.53125 C-0.65097656 0.77328125 -0.65097656 0.77328125 0 0 Z " fill="#F8C33F" transform="translate(67,39)"/>
<path d="M0 0 C3 1 3 1 4.1875 3.0625 C4.455625 3.701875 4.72375 4.34125 5 5 C3.35 7.31 1.7 9.62 0 12 C-1.32 11.34 -2.64 10.68 -4 10 C-2.66666667 6.66666667 -1.33333333 3.33333333 0 0 Z " fill="#2E83AA" transform="translate(63,34)"/>
</svg>
