<?xml version="1.0" encoding="UTF-8"?>
<svg version="1.1" xmlns="http://www.w3.org/2000/svg" width="90" height="90">
<path d="M0 0 C24.09 0 48.18 0 73 0 C73 2.97 73 5.94 73 9 C75.97 9 78.94 9 82 9 C82.00410889 10.25135742 82.00821777 11.50271484 82.01245117 12.79199219 C82.03422973 17.43661642 82.08850618 22.08039195 82.15258789 26.72460938 C82.17577903 28.73429223 82.19016622 30.74409682 82.19555664 32.75390625 C82.20483807 35.64400183 82.24581012 38.53217989 82.29296875 41.421875 C82.2890361 42.31992859 82.28510345 43.21798218 82.28105164 44.14324951 C82.35731096 49.45005862 82.35731096 49.45005862 85.54418945 53.59863281 C86.35460693 54.06108398 87.16502441 54.52353516 88 55 C87.49175613 59.09367333 85.48988996 60.68884268 82.4375 63.3125 C81.53902344 64.09109375 80.64054687 64.8696875 79.71484375 65.671875 C78.81894531 66.44015625 77.92304687 67.2084375 77 68 C76.21753906 68.70640625 75.43507813 69.4128125 74.62890625 70.140625 C73.92636719 70.77484375 73.22382812 71.4090625 72.5 72.0625 C71.8709375 72.63097656 71.241875 73.19945313 70.59375 73.78515625 C69 75 69 75 67 75 C67 71.37 67 67.74 67 64 C62.05 64 57.1 64 52 64 C52 62.35 52 60.7 52 59 C37.81 59 23.62 59 9 59 C9 56.03 9 53.06 9 50 C6.03 50 3.06 50 0 50 C0 33.5 0 17 0 0 Z " fill="#F7B87E" transform="translate(2,11)"/>
<path d="M0 0 C24.09 0 48.18 0 73 0 C73 2.97 73 5.94 73 9 C75.97 9 78.94 9 82 9 C82.00410889 10.25135742 82.00821777 11.50271484 82.01245117 12.79199219 C82.03422973 17.43661642 82.08850618 22.08039195 82.15258789 26.72460938 C82.17577903 28.73429223 82.19016622 30.74409682 82.19555664 32.75390625 C82.20483807 35.64400183 82.24581012 38.53217989 82.29296875 41.421875 C82.2890361 42.31992859 82.28510345 43.21798218 82.28105164 44.14324951 C82.35731096 49.45005862 82.35731096 49.45005862 85.54418945 53.59863281 C86.35460693 54.06108398 87.16502441 54.52353516 88 55 C87.49175613 59.09367333 85.48988996 60.68884268 82.4375 63.3125 C81.53902344 64.09109375 80.64054687 64.8696875 79.71484375 65.671875 C78.81894531 66.44015625 77.92304687 67.2084375 77 68 C76.21753906 68.70640625 75.43507813 69.4128125 74.62890625 70.140625 C73.92636719 70.77484375 73.22382812 71.4090625 72.5 72.0625 C71.8709375 72.63097656 71.241875 73.19945313 70.59375 73.78515625 C69 75 69 75 67 75 C67 71.37 67 67.74 67 64 C62.05 64 57.1 64 52 64 C52 59.38 52 54.76 52 50 C57.28 50 62.56 50 68 50 C68 46.37 68 42.74 68 39 C72 42 76 45 80 48 C79.67 38.76 79.34 29.52 79 20 C75.04 21.98 71.08 23.96 67 26 C66.34 25.67 65.68 25.34 65 25 C65.99902344 24.50371094 66.99804688 24.00742187 68.02734375 23.49609375 C69.33142393 22.81121711 70.63477208 22.12494534 71.9375 21.4375 C72.59685547 21.11458984 73.25621094 20.79167969 73.93554688 20.45898438 C76.13955378 19.33836317 76.13955378 19.33836317 79 17 C79.33 14.69 79.66 12.38 80 10 C57.23 10.33 34.46 10.66 11 11 C11 12.98 11 14.96 11 17 C14.63 18.98 18.26 20.96 22 23 C21.34 23.33 20.68 23.66 20 24 C16.7 22.35 13.4 20.7 10 19 C10 31.87 10 44.74 10 58 C23.2 58 36.4 58 50 58 C50 58.33 50 58.66 50 59 C36.47 59 22.94 59 9 59 C9 56.03 9 53.06 9 50 C6.03 50 3.06 50 0 50 C0 33.5 0 17 0 0 Z " fill="#67757F" transform="translate(2,11)"/>
<path d="M0 0 C23.1 0 46.2 0 70 0 C70 2.31 70 4.62 70 7 C69 8 69 8 66.56394958 8.12025452 C65.48251175 8.11803391 64.40107391 8.11581329 63.28686523 8.11352539 C62.0656749 8.11344986 60.84448456 8.11337433 59.58628845 8.11329651 C58.24372314 8.10818911 56.90115825 8.10297311 55.55859375 8.09765625 C54.19238842 8.09579199 52.82618243 8.09436813 51.4599762 8.09336853 C47.85798305 8.08954394 44.25603 8.07971417 40.65405273 8.06866455 C36.98096255 8.05844916 33.30786591 8.05387064 29.63476562 8.04882812 C22.42315877 8.03809184 15.211585 8.02101614 8 8 C7.67 8.99 7.34 9.98 7 11 C3.535 9.02 3.535 9.02 0 7 C0 4.69 0 2.38 0 0 Z " fill="#F5B77F" transform="translate(3,12)"/>
<path d="M0 0 C3.14101463 1.57050732 4.80286248 2.53469073 7.234375 4.8203125 C7.80800781 5.35527344 8.38164063 5.89023437 8.97265625 6.44140625 C9.55917969 6.99699219 10.14570312 7.55257812 10.75 8.125 C11.35199219 8.68832031 11.95398438 9.25164063 12.57421875 9.83203125 C14.05334151 11.21724146 15.52719641 12.6080729 17 14 C6.53271028 26.82242991 6.53271028 26.82242991 0 29 C0 26.03 0 23.06 0 20 C-5.28 20 -10.56 20 -16 20 C-16 16.37 -16 12.74 -16 9 C-10.72 9 -5.44 9 0 9 C0 6.03 0 3.06 0 0 Z " fill="#E6CDB9" transform="translate(71,53)"/>
<path d="M0 0 C6 2 6 2 8 3 C8 14.88 8 26.76 8 39 C5.36 39 2.72 39 0 39 C0 26.13 0 13.26 0 0 Z " fill="#F4B77F" transform="translate(3,21)"/>
<path d="M0 0 C8.57142857 6.28571429 8.57142857 6.28571429 12 10 C12.66 9.67 13.32 9.34 14 9 C14.33 9.99 14.66 10.98 15 12 C16.62332967 13.38576923 18.28724465 14.72641268 20 16 C19.49175613 20.09367333 17.48988996 21.68884268 14.4375 24.3125 C13.53902344 25.09109375 12.64054687 25.8696875 11.71484375 26.671875 C10.81894531 27.44015625 9.92304687 28.2084375 9 29 C8.21753906 29.70640625 7.43507813 30.4128125 6.62890625 31.140625 C5.92636719 31.77484375 5.22382812 32.4090625 4.5 33.0625 C3.8709375 33.63097656 3.241875 34.19945312 2.59375 34.78515625 C1 36 1 36 -1 36 C-1 32.37 -1 28.74 -1 25 C-5.95 25 -10.9 25 -16 25 C-16 20.38 -16 15.76 -16 11 C-10.72 11 -5.44 11 0 11 C0 7.37 0 3.74 0 0 Z M1 3 C1 5.97 1 8.94 1 12 C-4.28 12 -9.56 12 -15 12 C-15 15.63 -15 19.26 -15 23 C-9.72 23 -4.44 23 1 23 C1 25.97 1 28.94 1 32 C4.14101463 30.42949268 5.80286248 29.46530927 8.234375 27.1796875 C8.80800781 26.64472656 9.38164063 26.10976562 9.97265625 25.55859375 C10.55917969 25.00300781 11.14570312 24.44742188 11.75 23.875 C12.35199219 23.31167969 12.95398438 22.74835938 13.57421875 22.16796875 C15.05334151 20.78275854 16.52719641 19.3919271 18 18 C15.14600468 14.48586316 12.36713419 11.22280419 8.9375 8.25 C8.28652344 7.67765625 7.63554688 7.1053125 6.96484375 6.515625 C4.77974095 4.72971341 4.77974095 4.72971341 1 3 Z " fill="#7B8082" transform="translate(70,50)"/>
<path d="M0 0 C0.66 0.33 1.32 0.66 2 1 C0.02 2.98 -1.96 4.96 -4 7 C-4.99 6.67 -5.98 6.34 -7 6 C-4.69 4.02 -2.38 2.04 0 0 Z " fill="#7A8084" transform="translate(84,71)"/>
</svg>
