<?xml version="1.0" encoding="UTF-8"?>
<svg version="1.1" xmlns="http://www.w3.org/2000/svg" width="48" height="48">
<path d="M0 0 C23.4375 -1.20535714 23.4375 -1.20535714 28.9375 3.3125 C34.23320586 10.18140718 32.67227048 19.8414582 32 28 C32.99 28 33.98 28 35 28 C35 30.31 35 32.62 35 35 C36.65 35 38.3 35 40 35 C38.33248852 38.94139078 35.77289351 41.7892812 33 45 C32.47889648 44.67854004 31.95779297 44.35708008 31.42089844 44.02587891 C28.28597813 42.69742639 25.66710392 42.6754501 22.265625 42.5859375 C21.09805664 42.55032715 19.93048828 42.5147168 18.72753906 42.47802734 C17.24995117 42.44402832 15.77236328 42.4100293 14.25 42.375 C9.5475 42.25125 4.845 42.1275 0 42 C0 28.14 0 14.28 0 0 Z " fill="#0E7339" transform="translate(8,3)"/>
<path d="M0 0 C1.98 0 3.96 0 6 0 C6 2.31 6 4.62 6 7 C7.65 7 9.3 7 11 7 C9.33248852 10.94139078 6.77289351 13.7892812 4 17 C-0.79834628 15.2863049 -2.80715961 11.38568079 -5 7 C-3.35 7 -1.7 7 0 7 C0 4.69 0 2.38 0 0 Z " fill="#445A63" transform="translate(37,31)"/>
<path d="M0 0 C1.875 0.25 1.875 0.25 4 1 C5.25 3.0625 5.25 3.0625 6 5 C6.99 3.35 7.98 1.7 9 0 C10.32 0.33 11.64 0.66 13 1 C12.29875 1.886875 11.5975 2.77375 10.875 3.6875 C8.63152584 6.77424074 8.63152584 6.77424074 9.625 9.625 C10.305625 10.800625 10.305625 10.800625 11 12 C11.556875 13.1446875 11.556875 13.1446875 12.125 14.3125 C12.41375 14.869375 12.7025 15.42625 13 16 C11.68 16 10.36 16 9 16 C8.71125 15.360625 8.4225 14.72125 8.125 14.0625 C7.17176549 11.84793921 7.17176549 11.84793921 5 11 C4.34 12.65 3.68 14.3 3 16 C1.68 15.67 0.36 15.34 -1 15 C0.051875 13.6696875 0.051875 13.6696875 1.125 12.3125 C3.38350954 9.22011349 3.38350954 9.22011349 2.3125 6.375 C1.879375 5.59125 1.44625 4.8075 1 4 C0.64141484 2.67323492 0.2981424 1.34164079 0 0 Z " fill="#EEF5F1" transform="translate(18,17)"/>
<path d="M0 0 C1.65 0 3.3 0 5 0 C5 0.66 5 1.32 5 2 C4.01 2 3.02 2 2 2 C2 4.31 2 6.62 2 9 C0.68 9.33 -0.64 9.66 -2 10 C-0.68 11.65 0.64 13.3 2 15 C1.01 15 0.02 15 -1 15 C-5 10.77142857 -5 10.77142857 -5 7 C-3.35 7 -1.7 7 0 7 C0 4.69 0 2.38 0 0 Z " fill="#429E47" transform="translate(35,29)"/>
<path d="M0 0 C6.75 5.625 6.75 5.625 9 9 C6.03 9 3.06 9 0 9 C0 6.03 0 3.06 0 0 Z " fill="#D7EAC4" transform="translate(29,5)"/>
</svg>
