<?xml version="1.0" encoding="UTF-8"?>
<svg version="1.1" xmlns="http://www.w3.org/2000/svg" width="100" height="100">
<path d="M0 0 C1.62640734 2.91588402 3.25087728 5.83284294 4.875 8.75 C5.33519531 9.575 5.79539063 10.4 6.26953125 11.25 C6.71425781 12.04921875 7.15898438 12.8484375 7.6171875 13.671875 C8.02565918 14.4050293 8.43413086 15.13818359 8.85498047 15.89355469 C12.73584789 23.03302677 12.73584789 23.03302677 12 28 C9.52725599 33.14619777 6.98269064 37.98320341 2 41 C-0.84082031 41.34057617 -0.84082031 41.34057617 -4.078125 41.29296875 C-5.23828125 41.28330078 -6.3984375 41.27363281 -7.59375 41.26367188 C-8.8003125 41.23853516 -10.006875 41.21339844 -11.25 41.1875 C-13.08304688 41.16719727 -13.08304688 41.16719727 -14.953125 41.14648438 C-17.96919498 41.1111398 -20.98437487 41.0617956 -24 41 C-24 43.64 -24 46.28 -24 49 C-28.0174366 46.06006416 -30.92802144 42.76235288 -33.8125 38.75 C-34.21919922 38.19570312 -34.62589844 37.64140625 -35.04492188 37.0703125 C-36.03591711 35.71789547 -37.01881466 34.35955093 -38 33 C-36.57717709 31.10290278 -35.1537119 29.20634754 -33.7265625 27.3125 C-32.58293394 25.7807622 -31.45246366 24.23910443 -30.3359375 22.6875 C-29.81257813 21.965625 -29.28921875 21.24375 -28.75 20.5 C-28.27046875 19.8296875 -27.7909375 19.159375 -27.296875 18.46875 C-26.86890625 17.9840625 -26.4409375 17.499375 -26 17 C-25.34 17 -24.68 17 -24 17 C-24 19.31 -24 21.62 -24 24 C-18.39 24 -12.78 24 -7 24 C-9.62568263 19.52350064 -9.62568263 19.52350064 -12.265625 15.05541992 C-15 10.33333333 -15 10.33333333 -15 7 C-12.48046875 5.17578125 -12.48046875 5.17578125 -9.1875 3.3125 C-7.56908203 2.37857422 -7.56908203 2.37857422 -5.91796875 1.42578125 C-3 0 -3 0 0 0 Z " fill="#46A14B" transform="translate(84,47)"/>
<path d="M0 0 C1.54300781 -0.03867187 1.54300781 -0.03867187 3.1171875 -0.078125 C7.38338478 0.38727834 9.94554479 1.85899631 12.71484375 5.125 C13.15957031 5.82625 13.60429688 6.5275 14.0625 7.25 C14.55878906 8.03246094 15.05507812 8.81492187 15.56640625 9.62109375 C18.2179611 14.09351584 20.70084972 18.65099149 23.125 23.25 C25.435 22.59 27.745 21.93 30.125 21.25 C28.80512492 28.56930729 26.3511132 34.54308046 23.125 41.25 C16.525 40.26 9.925 39.27 3.125 38.25 C4.25804992 34.85085025 5.25018475 34.19745549 8.125 32.25 C7.36703125 30.98542969 7.36703125 30.98542969 6.59375 29.6953125 C5.9440625 28.59960938 5.294375 27.50390625 4.625 26.375 C3.9753125 25.28445312 3.325625 24.19390625 2.65625 23.0703125 C1.125 20.25 1.125 20.25 1.125 18.25 C0.465 18.25 -0.195 18.25 -0.875 18.25 C-1.184375 19.425625 -1.184375 19.425625 -1.5 20.625 C-3.37963619 25.58040451 -6.07714215 29.74909824 -8.875 34.25 C-13.495 31.94 -18.115 29.63 -22.875 27.25 C-22.875 23.1739885 -22.53455791 22.16330146 -20.57421875 18.80859375 C-20.09146484 17.97779297 -19.60871094 17.14699219 -19.11132812 16.29101562 C-18.60021484 15.43185547 -18.08910156 14.57269531 -17.5625 13.6875 C-17.06298828 12.82447266 -16.56347656 11.96144531 -16.04882812 11.07226562 C-11.61768299 3.51877716 -9.23935933 0.13824478 0 0 Z " fill="#469F4B" transform="translate(49.875,3.75)"/>
<path d="M0 0 C5.37129841 12.48519362 5.37129841 12.48519362 7 19 C4.69 18.34 2.38 17.68 0 17 C-2.64 21.62 -5.28 26.24 -8 31 C-2.06 31 3.88 31 10 31 C10 36.61 10 42.22 10 48 C5.60351118 48.1078893 1.20966751 48.18727932 -3.1875 48.25 C-4.43337891 48.28351563 -5.67925781 48.31703125 -6.96289062 48.3515625 C-8.16494141 48.36445312 -9.36699219 48.37734375 -10.60546875 48.390625 C-11.71043701 48.41157227 -12.81540527 48.43251953 -13.95385742 48.45410156 C-18.46545511 47.78153831 -20.84834502 45.45486849 -23.6171875 41.95703125 C-24.03226563 41.24933594 -24.44734375 40.54164062 -24.875 39.8125 C-25.30554688 39.11769531 -25.73609375 38.42289063 -26.1796875 37.70703125 C-27.64843786 32.86015507 -27.04397856 28.32020022 -24.97167969 23.71459961 C-23.69834241 21.44322116 -22.34895411 19.25054509 -20.9375 17.0625 C-20.00565661 15.57638141 -19.07709404 14.08819892 -18.15234375 12.59765625 C-17.73976318 11.95320557 -17.32718262 11.30875488 -16.90209961 10.64477539 C-15.83970525 9.0203917 -15.83970525 9.0203917 -16 7 C-18.46326712 5.3553326 -18.46326712 5.3553326 -21 4 C-18.34281926 1.34281926 -16.44208487 1.4060533 -12.75 0.875 C-11.63109375 0.70742188 -10.5121875 0.53984375 -9.359375 0.3671875 C-6.20552869 0.02246476 -3.16914916 -0.06722438 0 0 Z " fill="#46A14B" transform="translate(31,40)"/>
<path d="M0 0 C1.5617377 2.57297782 3.09906742 5.15591462 4.625 7.75 C5.07101563 8.47960938 5.51703125 9.20921875 5.9765625 9.9609375 C6.3890625 10.66992188 6.8015625 11.37890625 7.2265625 12.109375 C7.80784912 13.08342285 7.80784912 13.08342285 8.40087891 14.07714844 C9 16 9 16 8.23583984 18.18066406 C7 20 7 20 5 21 C2.795636 21.22950319 0.58607827 21.41075933 -1.625 21.5625 C-2.81351563 21.64628906 -4.00203125 21.73007813 -5.2265625 21.81640625 C-6.14179687 21.87699219 -7.05703125 21.93757813 -8 22 C-9.17460192 20.06730041 -10.33944472 18.12866687 -11.5 16.1875 C-12.1496875 15.10855469 -12.799375 14.02960937 -13.46875 12.91796875 C-15 10 -15 10 -15 7 C-12.48046875 5.17578125 -12.48046875 5.17578125 -9.1875 3.3125 C-7.56908203 2.37857422 -7.56908203 2.37857422 -5.91796875 1.42578125 C-3 0 -3 0 0 0 Z " fill="#408243" transform="translate(84,47)"/>
<path d="M0 0 C2.75 -0.32421875 2.75 -0.32421875 6 0 C8.1875 2.23046875 8.1875 2.23046875 10 5.1875 C10.61875 6.15042969 11.2375 7.11335938 11.875 8.10546875 C13 11 13 11 12.3515625 13.5625 C11.90554687 14.366875 11.45953125 15.17125 11 16 C10.57460938 16.81082031 10.14921875 17.62164063 9.7109375 18.45703125 C8.47395833 20.63802083 7.23697917 22.81901042 6 25 C1.38 22.69 -3.24 20.38 -8 18 C-8 13.27740792 -6.35101802 10.65777319 -4 6.75 C-3.6184375 6.1003125 -3.236875 5.450625 -2.84375 4.78125 C-1.90356117 3.18292899 -0.95279986 1.59083547 0 0 Z " fill="#3F8243" transform="translate(35,13)"/>
<path d="M0 0 C4.95 0 9.9 0 15 0 C15 5.61 15 11.22 15 17 C8.4 17 1.8 17 -5 17 C-6.3374212 8.97547279 -4.07623992 6.82146272 0 0 Z " fill="#408143" transform="translate(26,71)"/>
<path d="M0 0 C2.57207607 3.05113236 4.55155787 6.28026535 6 10 C5.66015625 12.328125 5.66015625 12.328125 5 14 C2 13 2 13 0.7890625 10.96875 C0.01396558 9.32492028 -0.75688333 7.67908073 -1.5234375 6.03125 C-2.87044375 3.74350641 -2.87044375 3.74350641 -5.6640625 3.21875 C-6.43492188 3.1465625 -7.20578125 3.074375 -8 3 C-8 2.34 -8 1.68 -8 1 C-4.88847976 -0.55576012 -3.45766656 -0.73142946 0 0 Z " fill="#50B054" transform="translate(44,10)"/>
<path d="M0 0 C0.33 0 0.66 0 1 0 C1.125 2.875 1.125 2.875 1 6 C-1 8 -1 8 -3.8203125 8.1953125 C-4.91085938 8.17210938 -6.00140625 8.14890625 -7.125 8.125 C-8.22070312 8.10695313 -9.31640625 8.08890625 -10.4453125 8.0703125 C-11.70988281 8.03550781 -11.70988281 8.03550781 -13 8 C-13.66 6.68 -14.32 5.36 -15 4 C-10.38 3.67 -5.76 3.34 -1 3 C-0.67 2.01 -0.34 1.02 0 0 Z " fill="#51B155" transform="translate(92,64)"/>
<path d="M0 0 C1.32 0 2.64 0 4 0 C3.49675344 2.6168821 2.72561298 4.53734125 1.5 6.9375 C0.13847378 9.7172827 -0.55317708 11.96160412 -1 15 C-2.32 14.34 -3.64 13.68 -5 13 C-5.73283757 8.30983957 -3.80587549 5.45055136 -1.484375 1.57421875 C-0.99453125 1.05472656 -0.5046875 0.53523438 0 0 Z " fill="#51B255" transform="translate(21,72)"/>
</svg>
