<?xml version="1.0" encoding="UTF-8"?>
<svg version="1.1" xmlns="http://www.w3.org/2000/svg" width="96" height="96">
<path d="M0 0 C2.5 1.875 2.5 1.875 4 4 C4 4.66 4 5.32 4 6 C4.56509277 5.98952637 5.13018555 5.97905273 5.71240234 5.96826172 C8.26655653 5.92675212 10.82063982 5.9006904 13.375 5.875 C14.26445313 5.85824219 15.15390625 5.84148438 16.0703125 5.82421875 C16.92109375 5.81777344 17.771875 5.81132812 18.6484375 5.8046875 C19.82672119 5.78897705 19.82672119 5.78897705 21.02880859 5.77294922 C23 6 23 6 25 8 C26.65816784 8.68753301 28.32459336 9.35561283 30 10 C31.77687645 11.77687645 31.13687972 14.36879254 31.14526367 16.77319336 C31.15164352 18.00794907 31.15802338 19.24270477 31.16459656 20.51487732 C31.16612512 21.87319907 31.16723914 23.23152134 31.16796875 24.58984375 C31.1711797 25.97367895 31.17454365 27.3575138 31.17805481 28.74134827 C31.18405224 31.64585151 31.18589409 34.55032498 31.18530273 37.45483398 C31.18520109 41.18202146 31.19885272 44.90901853 31.21607494 48.63616085 C31.2271778 51.49541608 31.22922247 54.35462503 31.22869301 57.21389961 C31.22987574 58.58825906 31.23431388 59.96261961 31.24202538 61.33695793 C31.25178998 63.25708452 31.24769215 65.17726662 31.24291992 67.09741211 C31.24434494 68.19137802 31.24576996 69.28534393 31.24723816 70.41246033 C31 73 31 73 29 75 C27.34183216 75.68753301 25.67540664 76.35561283 24 77 C23.67 77.33 23.34 77.66 23 78 C21.32291576 78.10397018 19.64147209 78.13852909 17.96118164 78.14526367 C16.88659195 78.15164352 15.81200226 78.15802338 14.70484924 78.16459656 C12.95022621 78.16626579 12.95022621 78.16626579 11.16015625 78.16796875 C9.96772812 78.17129715 8.77529999 78.17462555 7.54673767 78.17805481 C5.01887397 78.18312916 2.49100355 78.18546298 -0.03686523 78.18530273 C-3.91726654 78.1874886 -7.79738346 78.20563757 -11.67773438 78.22460938 C-14.12760319 78.22754323 -16.57747336 78.22952808 -19.02734375 78.23046875 C-20.77893044 78.24124702 -20.77893044 78.24124702 -22.56590271 78.25224304 C-24.18251549 78.2476281 -24.18251549 78.2476281 -25.83178711 78.24291992 C-27.25955727 78.24505745 -27.25955727 78.24505745 -28.71617126 78.24723816 C-31 78 -31 78 -33 76 C-34.65816784 75.31246699 -36.32459336 74.64438717 -38 74 C-39.77687645 72.22312355 -39.13687972 69.63120746 -39.14526367 67.22680664 C-39.15164352 65.99205093 -39.15802338 64.75729523 -39.16459656 63.48512268 C-39.16612512 62.12680093 -39.16723914 60.76847866 -39.16796875 59.41015625 C-39.1711797 58.02632105 -39.17454365 56.6424862 -39.17805481 55.25865173 C-39.18405224 52.35414849 -39.18589409 49.44967502 -39.18530273 46.54516602 C-39.18520109 42.81797854 -39.19885272 39.09098147 -39.21607494 35.36383915 C-39.2271778 32.50458392 -39.22922247 29.64537497 -39.22869301 26.78610039 C-39.22987574 25.41174094 -39.23431388 24.03738039 -39.24202538 22.66304207 C-39.25178998 20.74291548 -39.24769215 18.82273338 -39.24291992 16.90258789 C-39.24434494 15.80862198 -39.24576996 14.71465607 -39.24723816 13.58753967 C-39 11 -39 11 -37 9 C-35.34183216 8.31246699 -33.67540664 7.64438717 -32 7 C-31.67 6.67 -31.34 6.34 -31 6 C-29.58429877 5.91348389 -28.164405 5.89295096 -26.74609375 5.90234375 C-25.46508789 5.90717773 -25.46508789 5.90717773 -24.15820312 5.91210938 C-23.26037109 5.92048828 -22.36253906 5.92886719 -21.4375 5.9375 C-20.53580078 5.94201172 -19.63410156 5.94652344 -18.70507812 5.95117188 C-16.46998686 5.96299775 -14.23502563 5.9794778 -12 6 C-11.71125 5.195625 -11.4225 4.39125 -11.125 3.5625 C-9.04869532 -1.16686065 -4.63508429 -0.68701842 0 0 Z M-6 4 C-8.34973818 5.89755144 -8.34973818 5.89755144 -8.125 9.125 C-8.08375 10.07375 -8.0425 11.0225 -8 12 C-5.36 12 -2.72 12 0 12 C0.16681109 9.08347826 0.16681109 9.08347826 0 6 C-0.66 5.34 -1.32 4.68 -2 4 C-3.32 4 -4.64 4 -6 4 Z M-29 10 C-29.09930533 11.98887494 -29.12799462 13.98130417 -29.12939453 15.97265625 C-29.13254669 17.25068115 -29.13569885 18.52870605 -29.13894653 19.84545898 C-29.13715675 21.25113967 -29.1351058 22.65682005 -29.1328125 24.0625 C-29.13348558 25.49357113 -29.13445564 26.92464215 -29.13571167 28.35571289 C-29.13718844 31.35857224 -29.13503476 34.3614019 -29.13037109 37.36425781 C-29.12467381 41.22152571 -29.12795292 45.07872404 -29.13394356 48.93598938 C-29.13754974 51.89213591 -29.13641032 54.84826583 -29.13381577 57.80441284 C-29.13314665 59.22704069 -29.13397437 60.64967003 -29.13629532 62.07229614 C-29.13882274 64.05731174 -29.13429042 66.04233259 -29.12939453 68.02734375 C-29.12859894 69.15906006 -29.12780334 70.29077637 -29.12698364 71.45678711 C-29.28833982 73.93531511 -29.28833982 73.93531511 -28 75 C-26.50129952 75.09831146 -24.99801461 75.12798456 -23.49609375 75.12939453 C-22.53840088 75.13254669 -21.58070801 75.13569885 -20.59399414 75.13894653 C-19.03152954 75.13591019 -19.03152954 75.13591019 -17.4375 75.1328125 C-16.37587646 75.13376923 -15.31425293 75.13472595 -14.22045898 75.13571167 C-11.97086528 75.13639364 -9.72126963 75.13453819 -7.47167969 75.13037109 C-4.01492929 75.1250231 -0.55830883 75.13031554 2.8984375 75.13671875 C5.07812529 75.13605797 7.257813 75.13477682 9.4375 75.1328125 C10.47914307 75.13483673 11.52078613 75.13686096 12.59399414 75.13894653 C14.03053345 75.13421829 14.03053345 75.13421829 15.49609375 75.12939453 C16.34357178 75.12859894 17.1910498 75.12780334 18.06420898 75.12698364 C20.0065713 75.21319708 20.0065713 75.21319708 21 74 C21.09930533 72.01112506 21.12799462 70.01869583 21.12939453 68.02734375 C21.13254669 66.74931885 21.13569885 65.47129395 21.13894653 64.15454102 C21.13715675 62.74886033 21.1351058 61.34317995 21.1328125 59.9375 C21.13348558 58.50642887 21.13445564 57.07535785 21.13571167 55.64428711 C21.13718844 52.64142776 21.13503476 49.6385981 21.13037109 46.63574219 C21.12467381 42.77847429 21.12795292 38.92127596 21.13394356 35.06401062 C21.13754974 32.10786409 21.13641032 29.15173417 21.13381577 26.19558716 C21.13314665 24.77295931 21.13397437 23.35032997 21.13629532 21.92770386 C21.13882274 19.94268826 21.13429042 17.95766741 21.12939453 15.97265625 C21.12859894 14.84093994 21.12780334 13.70922363 21.12698364 12.54321289 C21.28833982 10.06468489 21.28833982 10.06468489 20 9 C17.30345146 8.92680379 14.63308542 8.90757463 11.9375 8.9375 C10.79958008 8.94426758 10.79958008 8.94426758 9.63867188 8.95117188 C7.75908129 8.9629932 5.87953101 8.98092922 4 9 C4 10.98 4 12.96 4 15 C-1.28 15 -6.56 15 -12 15 C-12 13.02 -12 11.04 -12 9 C-14.64590014 8.97315321 -17.29153096 8.95323643 -19.9375 8.9375 C-21.06961914 8.92493164 -21.06961914 8.92493164 -22.22460938 8.91210938 C-25.91191764 8.534744 -25.91191764 8.534744 -29 10 Z M-34 12 C-35.26184609 13.0386489 -35.26184609 13.0386489 -35.12025452 15.32215881 C-35.11803391 16.35030197 -35.11581329 17.37844513 -35.11352539 18.43774414 C-35.11344986 19.59887222 -35.11337433 20.76000031 -35.11329651 21.95631409 C-35.10813522 23.219832 -35.10297394 24.48334991 -35.09765625 25.78515625 C-35.0962413 27.07111191 -35.09482635 28.35706757 -35.09336853 29.68199158 C-35.08954418 33.10643443 -35.07971462 36.53083509 -35.06866455 39.95526123 C-35.05844864 43.44738189 -35.05387053 46.93950934 -35.04882812 50.43164062 C-35.03809227 57.28777778 -35.02101684 64.14388687 -35 71 C-34.34 71.33 -33.68 71.66 -33 72 C-33 52.2 -33 32.4 -33 12 C-33.33 12 -33.66 12 -34 12 Z M25 12 C25 31.8 25 51.6 25 72 C25.99 71.505 25.99 71.505 27 71 C27 51.86 27 32.72 27 13 C26.34 12.67 25.68 12.34 25 12 Z " fill="#7146FF" transform="translate(52,9)"/>
<path d="M0 0 C4.2173448 0.8786135 5.57388349 2.05718161 8 5.625 C8.22050927 8.21174342 8.12219506 10.67489839 7.9765625 13.265625 C8.0076467 16.39476731 9.29266221 18.06399331 11 20.625 C11 22.605 11 24.585 11 26.625 C3.74 26.625 -3.52 26.625 -11 26.625 C-10 17.625 -10 17.625 -8 14.625 C-7.94556527 12.50226983 -7.94556527 12.50226983 -8.1875 10.25 C-8.26646064 6.52670193 -8.11678304 5.79330497 -5.875 2.5625 C-3 0.625 -3 0.625 0 0 Z M-2 4.625 C-4.37994368 6.56832332 -4.37994368 6.56832332 -4.25 10.125 C-4.37994368 13.68167668 -4.37994368 13.68167668 -2 15.625 C1.30683466 15.33516731 1.30683466 15.33516731 4 13.625 C4.25003964 10.16678598 4.25003964 10.16678598 4 6.625 C3.34 5.965 2.68 5.305 2 4.625 C0.68 4.625 -0.64 4.625 -2 4.625 Z M-5 18.625 C-5.66 20.275 -6.32 21.925 -7 23.625 C-2.38 23.625 2.24 23.625 7 23.625 C6.34 21.975 5.68 20.325 5 18.625 C1.7 18.625 -1.6 18.625 -5 18.625 Z " fill="#644CFF" transform="translate(39,27.375)"/>
<path d="M0 0 C4.29 0 8.58 0 13 0 C13 4.95 13 9.9 13 15 C8.71 15 4.42 15 0 15 C0 10.05 0 5.1 0 0 Z " fill="#CDB0FF" transform="translate(58,60)"/>
<path d="M0 0 C4.29 0 8.58 0 13 0 C13 2.31 13 4.62 13 7 C8.71 7 4.42 7 0 7 C0 4.69 0 2.38 0 0 Z " fill="#95BDFF" transform="translate(58,60)"/>
<path d="M0 0 C5.28 0 10.56 0 16 0 C16 1.32 16 2.64 16 4 C10.72 4 5.44 4 0 4 C0 2.68 0 1.36 0 0 Z " fill="#5652FF" transform="translate(55,34)"/>
<path d="M0 0 C5.28 0 10.56 0 16 0 C16 1.32 16 2.64 16 4 C10.72 4 5.44 4 0 4 C0 2.68 0 1.36 0 0 Z " fill="#4958FF" transform="translate(55,28)"/>
<path d="M0 0 C4.29 0 8.58 0 13 0 C13 1.32 13 2.64 13 4 C8.71 4 4.42 4 0 4 C0 2.68 0 1.36 0 0 Z " fill="#634DFF" transform="translate(55,40)"/>
<path d="M0 0 C4.62 0 9.24 0 14 0 C14 0.99 14 1.98 14 3 C9.38 3 4.76 3 0 3 C0 2.01 0 1.02 0 0 Z " fill="#A72FFF" transform="translate(42,72)"/>
<path d="M0 0 C4.62 0 9.24 0 14 0 C14 0.99 14 1.98 14 3 C9.38 3 4.76 3 0 3 C0 2.01 0 1.02 0 0 Z " fill="#9935FF" transform="translate(42,66)"/>
<path d="M0 0 C4.62 0 9.24 0 14 0 C14 0.99 14 1.98 14 3 C9.38 3 4.76 3 0 3 C0 2.01 0 1.02 0 0 Z " fill="#8D3AFF" transform="translate(42,60)"/>
<path d="M0 0 C3.3 0 6.6 0 10 0 C10 1.32 10 2.64 10 4 C6.7 4 3.4 4 0 4 C0 2.68 0 1.36 0 0 Z " fill="#7047FF" transform="translate(55,46)"/>
<path d="M0 0 C4.29 0 8.58 0 13 0 C13 0.99 13 1.98 13 3 C8.71 3 4.42 3 0 3 C0 2.01 0 1.02 0 0 Z " fill="#AFB7FF" transform="translate(58,67)"/>
<path d="M0 0 C4.29 0 8.58 0 13 0 C13 0.99 13 1.98 13 3 C8.71 3 4.42 3 0 3 C0 2.01 0 1.02 0 0 Z " fill="#7BC3FF" transform="translate(58,60)"/>
<path d="M0 0 C3.63 0 7.26 0 11 0 C11 0.99 11 1.98 11 3 C7.37 3 3.74 3 0 3 C0 2.01 0 1.02 0 0 Z " fill="#A72FFF" transform="translate(28,72)"/>
<path d="M0 0 C3.63 0 7.26 0 11 0 C11 0.99 11 1.98 11 3 C7.37 3 3.74 3 0 3 C0 2.01 0 1.02 0 0 Z " fill="#9935FF" transform="translate(28,66)"/>
<path d="M0 0 C3.63 0 7.26 0 11 0 C11 0.99 11 1.98 11 3 C7.37 3 3.74 3 0 3 C0 2.01 0 1.02 0 0 Z " fill="#8D3AFF" transform="translate(28,60)"/>
</svg>
