<?xml version="1.0" encoding="UTF-8"?>
<svg version="1.1" xmlns="http://www.w3.org/2000/svg" width="100" height="100">
<path d="M0 0 C1.09026741 -0.0098568 1.09026741 -0.0098568 2.20256042 -0.01991272 C4.61762584 -0.03968918 7.03262899 -0.05131742 9.44775391 -0.0612793 C10.27053455 -0.06535482 11.0933152 -0.06943035 11.94102859 -0.07362938 C16.29515586 -0.09450795 20.64925143 -0.1088023 25.00341797 -0.11816406 C29.50862683 -0.12923687 34.01334287 -0.16364127 38.5183773 -0.20333576 C41.97558532 -0.22943842 45.43267478 -0.23785017 48.88997269 -0.24144554 C50.55101477 -0.24632743 52.21205101 -0.25798675 53.87299728 -0.27648354 C56.19568044 -0.30074306 58.51707362 -0.29993499 60.83984375 -0.29296875 C61.87326653 -0.31218384 61.87326653 -0.31218384 62.92756653 -0.33178711 C65.98701344 -0.29826512 67.6471549 -0.17931386 69.97663879 1.88461304 C71.22864606 4.56024226 71.42369482 6.37459999 71.42163086 9.32519531 C71.43097404 10.86215309 71.43097404 10.86215309 71.44050598 12.43016052 C71.43129623 13.53126663 71.42208649 14.63237274 71.41259766 15.7668457 C71.41334541 17.47185997 71.41334541 17.47185997 71.41410828 19.21131897 C71.41176839 21.61452991 71.40204494 24.01774333 71.38549805 26.42089844 C71.36192872 30.09698447 71.36493529 33.77234405 71.37158203 37.44848633 C71.36600439 39.78377711 71.35889397 42.11906483 71.35009766 44.4543457 C71.35100906 45.55342758 71.35192047 46.65250946 71.3528595 47.78489685 C71.34332748 48.81268753 71.33379547 49.84047821 71.32397461 50.89941406 C71.31706352 52.25032387 71.31706352 52.25032387 71.31001282 53.62852478 C71.0185383 56.477878 70.32043606 58.61527646 69.04931641 61.17700195 C66.33530347 62.53400842 64.20085324 62.28938805 61.16650391 62.2746582 C59.99990234 62.27143555 58.83330078 62.26821289 57.63134766 62.26489258 C56.40802734 62.25651367 55.18470703 62.24813477 53.92431641 62.23950195 C52.69326172 62.23499023 51.46220703 62.23047852 50.19384766 62.22583008 C47.14562249 62.21401525 44.09749327 62.19754223 41.04931641 62.17700195 C40.95770151 65.88435146 41.26675186 67.92644307 43.04931641 71.17700195 C43.40389643 72.50484302 43.74027657 73.83782935 44.04931641 75.17700195 C36.82278421 75.22758527 29.59629742 75.26268607 22.36962891 75.28686523 C19.90965061 75.29694178 17.44968435 75.31060326 14.98974609 75.32788086 C11.46009355 75.35205656 7.93059894 75.36346835 4.40087891 75.37231445 C3.29563873 75.38263702 2.19039856 75.39295959 1.05166626 75.40359497 C0.03075897 75.40374603 -0.99014832 75.40389709 -2.04199219 75.40405273 C-2.94356049 75.40849396 -3.84512878 75.41293518 -4.77401733 75.41751099 C-6.95068359 75.17700195 -6.95068359 75.17700195 -8.95068359 73.17700195 C-10.13827377 69.82176916 -10.08364915 66.55259942 -10.09594727 63.01904297 C-10.10232712 61.77417618 -10.10870697 60.52930939 -10.11528015 59.24671936 C-10.11680886 57.89144937 -10.11792281 56.53617886 -10.11865234 55.1809082 C-10.12186726 53.78612738 -10.12523151 52.39134689 -10.1287384 50.99656677 C-10.13471989 48.07550271 -10.13657928 45.15446819 -10.13598633 42.23339844 C-10.13588469 38.49650404 -10.14954307 34.75979956 -10.16675854 31.02295017 C-10.17789389 28.14299148 -10.17990508 25.26307852 -10.1793766 22.38310051 C-10.18055416 21.00563845 -10.18496336 19.62817511 -10.19270897 18.25073433 C-10.20254059 16.32196641 -10.19835838 14.39314258 -10.19360352 12.46435547 C-10.19502853 11.36833511 -10.19645355 10.27231476 -10.19792175 9.14308167 C-9.53198975 1.15399366 -7.34211852 0.02848822 0 0 Z M39.04931641 59.17700195 C39.04931641 61.15700195 39.04931641 63.13700195 39.04931641 65.17700195 C39.37931641 65.17700195 39.70931641 65.17700195 40.04931641 65.17700195 C40.04931641 63.19700195 40.04931641 61.21700195 40.04931641 59.17700195 C39.71931641 59.17700195 39.38931641 59.17700195 39.04931641 59.17700195 Z M42.04931641 60.17700195 C42.04931641 60.50700195 42.04931641 60.83700195 42.04931641 61.17700195 C49.96931641 61.17700195 57.88931641 61.17700195 66.04931641 61.17700195 C66.04931641 60.84700195 66.04931641 60.51700195 66.04931641 60.17700195 C58.12931641 60.17700195 50.20931641 60.17700195 42.04931641 60.17700195 Z " fill="#8694A6" transform="translate(18.95068359375,13.822998046875)"/>
<path d="M0 0 C12.87 0 25.74 0 39 0 C39 16.5 39 33 39 50 C26.13 50 13.26 50 0 50 C0 33.5 0 17 0 0 Z " fill="#11B0D8" transform="translate(46,19)"/>
<path d="M0 0 C0.33 0 0.66 0 1 0 C1 16.5 1 33 1 50 C13.87 50 26.74 50 40 50 C40 33.5 40 17 40 0 C40.33 0 40.66 0 41 0 C41.495 6.93 41.495 6.93 42 14 C43.87824891 12.12175109 43.39102397 8.96064724 43.5625 6.4375 C43.68818359 4.64119141 43.68818359 4.64119141 43.81640625 2.80859375 C43.87699219 1.88175781 43.93757813 0.95492188 44 0 C44.33 0 44.66 0 45 0 C45.05073147 7.17160012 45.08574687 14.3431539 45.10986328 21.51489258 C45.1199176 23.9543633 45.13356292 26.39382197 45.15087891 28.83325195 C45.17515182 32.34068779 45.18648891 35.84796421 45.1953125 39.35546875 C45.20563507 40.44522507 45.21595764 41.53498138 45.22659302 42.65776062 C45.22674408 43.67844131 45.22689514 44.69912201 45.22705078 45.75073242 C45.231492 46.64563889 45.23593323 47.54054535 45.24050903 48.46257019 C44.96995416 51.316991 44.27418194 53.43695111 43 56 C40.28598706 57.35700647 38.15153684 57.1123861 35.1171875 57.09765625 C33.95058594 57.09443359 32.78398438 57.09121094 31.58203125 57.08789062 C30.35871094 57.07951172 29.13539062 57.07113281 27.875 57.0625 C26.64394531 57.05798828 25.41289063 57.05347656 24.14453125 57.04882812 C21.09630608 57.0370133 18.04817686 57.02054028 15 57 C14.9083851 60.70734951 15.21743545 62.74944112 17 66 C17.33 67.32 17.66 68.64 18 70 C1.17 70 -15.66 70 -33 70 C-33 69.67 -33 69.34 -33 69 C-32.06615479 68.97494385 -31.13230957 68.9498877 -30.17016602 68.92407227 C-26.71674811 68.82913072 -23.2635104 68.72988742 -19.81030273 68.62768555 C-18.31360731 68.58428187 -16.81686061 68.54261087 -15.32006836 68.50268555 C-13.17285688 68.44511384 -11.02590479 68.38138284 -8.87890625 68.31640625 C-7.5854126 68.27974854 -6.29191895 68.24309082 -4.95922852 68.20532227 C-2.11444992 68.3332722 -2.11444992 68.3332722 -1 67 C-0.8761366 64.9145818 -0.82200933 62.82499859 -0.79467773 60.73608398 C-0.78477814 60.08244873 -0.77487854 59.42881348 -0.76467896 58.75537109 C-0.73298366 56.58564936 -0.70827508 54.4159057 -0.68359375 52.24609375 C-0.66303113 50.74536048 -0.64203485 49.2446331 -0.62062073 47.74391174 C-0.56532845 43.78688307 -0.51595089 39.82980151 -0.46777344 35.87268066 C-0.4176105 31.8375984 -0.36189732 27.80259328 -0.30664062 23.76757812 C-0.1989716 15.84511723 -0.09754621 7.92259196 0 0 Z M13 54 C13 55.98 13 57.96 13 60 C13.33 60 13.66 60 14 60 C14 58.02 14 56.04 14 54 C13.67 54 13.34 54 13 54 Z M16 55 C16 55.33 16 55.66 16 56 C23.92 56 31.84 56 40 56 C40 55.67 40 55.34 40 55 C32.08 55 24.16 55 16 55 Z " fill="#485669" transform="translate(45,19)"/>
<path d="M0 0 C1.09026741 -0.01226624 1.09026741 -0.01226624 2.20256042 -0.02478027 C4.61761641 -0.04967563 7.0326135 -0.06615991 9.44775391 -0.08056641 C10.27053455 -0.08589008 11.0933152 -0.09121376 11.94102859 -0.09669876 C16.29514892 -0.12344723 20.6492404 -0.14281741 25.00341797 -0.15722656 C29.50873977 -0.17388698 34.01333179 -0.21867073 38.5183773 -0.26959801 C41.97558465 -0.3031974 45.43261719 -0.31479586 48.88997269 -0.32045364 C50.55103768 -0.32718553 52.21209041 -0.34245774 53.87299728 -0.36634445 C56.19589038 -0.39784763 58.51679452 -0.39805655 60.83984375 -0.390625 C61.87326653 -0.415233 61.87326653 -0.415233 62.92756653 -0.44033813 C64.84799194 -0.41513062 64.84799194 -0.41513062 68.04931641 0.19287109 C71.27520726 4.07288443 71.36362113 6.94100902 70.92431641 11.88037109 C70.83923828 13.01861328 70.75416016 14.15685547 70.66650391 15.32958984 C70.04931641 18.19287109 70.04931641 18.19287109 67.04931641 20.19287109 C67.04931641 15.24287109 67.04931641 10.29287109 67.04931641 5.19287109 C53.18931641 5.19287109 39.32931641 5.19287109 25.04931641 5.19287109 C24.55431641 4.20287109 24.55431641 4.20287109 24.04931641 3.19287109 C19.99255148 3.14332398 15.93590447 3.1070821 11.87890625 3.08300781 C10.49964325 3.07296857 9.12040144 3.05933432 7.74121094 3.04199219 C5.75546501 3.01765356 3.76956191 3.00743855 1.78369141 2.99755859 C0.58969727 2.98708496 -0.60429687 2.97661133 -1.83447266 2.96582031 C-4.80866523 3.18252347 -6.45386738 3.63100987 -8.95068359 5.19287109 C-7.63505686 -0.63347585 -5.54858299 0.03410791 0 0 Z " fill="#86A0B6" transform="translate(18.95068359375,13.80712890625)"/>
<path d="M0 0 C1.07507813 -0.00128906 2.15015625 -0.00257812 3.2578125 -0.00390625 C4.38960937 -0.00003906 5.52140625 0.00382812 6.6875 0.0078125 C7.81929687 0.00394531 8.95109375 0.00007813 10.1171875 -0.00390625 C11.19226563 -0.00261719 12.26734375 -0.00132813 13.375 0 C14.86580078 0.00169189 14.86580078 0.00169189 16.38671875 0.00341797 C18.6875 0.1328125 18.6875 0.1328125 19.6875 1.1328125 C19.7854057 2.63019374 19.81724864 4.13224142 19.8125 5.6328125 C19.81636719 6.85484375 19.81636719 6.85484375 19.8203125 8.1015625 C19.6875 10.1328125 19.6875 10.1328125 18.6875 11.1328125 C16.91890807 11.23227703 15.14638549 11.26361467 13.375 11.265625 C12.29992187 11.26691406 11.22484375 11.26820312 10.1171875 11.26953125 C8.98539063 11.26566406 7.85359375 11.26179688 6.6875 11.2578125 C5.55570313 11.26167969 4.42390625 11.26554687 3.2578125 11.26953125 C2.18273437 11.26824219 1.10765625 11.26695313 0 11.265625 C-0.99386719 11.26449707 -1.98773438 11.26336914 -3.01171875 11.26220703 C-5.3125 11.1328125 -5.3125 11.1328125 -6.3125 10.1328125 C-6.4104057 8.63543126 -6.44224864 7.13338358 -6.4375 5.6328125 C-6.44007812 4.818125 -6.44265625 4.0034375 -6.4453125 3.1640625 C-6.17666661 -0.9446394 -3.51482588 0.00398894 0 0 Z " fill="#78899A" transform="translate(21.3125,33.8671875)"/>
<path d="M0 0 C1.07507813 -0.00128906 2.15015625 -0.00257812 3.2578125 -0.00390625 C4.38960937 -0.00003906 5.52140625 0.00382812 6.6875 0.0078125 C7.81929687 0.00394531 8.95109375 0.00007813 10.1171875 -0.00390625 C11.19226563 -0.00261719 12.26734375 -0.00132813 13.375 0 C14.86580078 0.00169189 14.86580078 0.00169189 16.38671875 0.00341797 C18.6875 0.1328125 18.6875 0.1328125 19.6875 1.1328125 C19.7854057 2.63019374 19.81724864 4.13224142 19.8125 5.6328125 C19.81636719 6.85484375 19.81636719 6.85484375 19.8203125 8.1015625 C19.6875 10.1328125 19.6875 10.1328125 18.6875 11.1328125 C16.91890807 11.23227703 15.14638549 11.26361467 13.375 11.265625 C12.29992187 11.26691406 11.22484375 11.26820312 10.1171875 11.26953125 C8.98539063 11.26566406 7.85359375 11.26179688 6.6875 11.2578125 C5.55570313 11.26167969 4.42390625 11.26554687 3.2578125 11.26953125 C2.18273437 11.26824219 1.10765625 11.26695313 0 11.265625 C-0.99386719 11.26449707 -1.98773438 11.26336914 -3.01171875 11.26220703 C-5.3125 11.1328125 -5.3125 11.1328125 -6.3125 10.1328125 C-6.4104057 8.63543126 -6.44224864 7.13338358 -6.4375 5.6328125 C-6.44007812 4.818125 -6.44265625 4.0034375 -6.4453125 3.1640625 C-6.17666661 -0.9446394 -3.51482588 0.00398894 0 0 Z " fill="#7B8E9E" transform="translate(21.3125,20.8671875)"/>
<path d="M0 0 C0.33 0 0.66 0 1 0 C1.495 6.93 1.495 6.93 2 14 C3.87824891 12.12175109 3.39102397 8.96064724 3.5625 6.4375 C3.64628906 5.23996094 3.73007813 4.04242188 3.81640625 2.80859375 C3.90728516 1.41833984 3.90728516 1.41833984 4 0 C4.33 0 4.66 0 5 0 C5.02529174 7.22655492 5.04284219 14.4530985 5.05493164 21.6796875 C5.05996989 24.13965278 5.0668006 26.59961505 5.07543945 29.05957031 C5.08752723 32.58920025 5.09323329 36.11879069 5.09765625 39.6484375 C5.10281754 40.75367767 5.10797882 41.85891785 5.11329651 42.99765015 C5.11337204 44.01855743 5.11344757 45.03946472 5.11352539 46.09130859 C5.115746 46.99287689 5.11796661 47.89444519 5.12025452 48.82333374 C5 51 5 51 4 53 C-1.28 53 -6.56 53 -12 53 C-12 52.34 -12 51.68 -12 51 C-18.27 51 -24.54 51 -31 51 C-31 50.67 -31 50.34 -31 50 C-20.77 50 -10.54 50 0 50 C0 33.5 0 17 0 0 Z " fill="#6C879E" transform="translate(85,19)"/>
<path d="M0 0 C0.69771011 0.00359528 1.39542023 0.00719055 2.11427307 0.01089478 C3.2117688 0.01067574 3.2117688 0.01067574 4.33143616 0.01045227 C6.76094989 0.0111515 9.19038789 0.01894432 11.61988831 0.02676392 C13.29997719 0.02862806 14.98006662 0.03005198 16.66015625 0.03105164 C21.09071849 0.03487709 25.52124815 0.04470761 29.95179749 0.05575562 C34.46941182 0.06596914 38.98703139 0.07054913 43.50465393 0.07559204 C52.37511098 0.08632986 61.24554381 0.10340661 70.11598206 0.12442017 C71.10598206 2.10442017 71.10598206 2.10442017 72.11598206 4.12442017 C71.12598206 3.62942017 71.12598206 3.62942017 70.11598206 3.12442017 C68.75845909 3.00737053 67.39572318 2.94764827 66.03346252 2.9190979 C65.192742 2.89915268 64.35202148 2.87920746 63.48582458 2.85865784 C62.12326035 2.8335891 62.12326035 2.8335891 60.73316956 2.80801392 C59.80376556 2.78723282 58.87436157 2.76645172 57.91679382 2.74504089 C54.94159995 2.6795437 51.96631628 2.62065964 48.99098206 2.56192017 C46.97664977 2.51873511 44.96232664 2.47512082 42.94801331 2.43106079 C38.00409542 2.32386213 33.06008703 2.22259515 28.11598206 2.12442017 C27.78598206 3.11442017 27.45598206 4.10442017 27.11598206 5.12442017 C26.62098206 4.13442017 26.62098206 4.13442017 26.11598206 3.12442017 C22.05921713 3.07487306 18.00257012 3.03863117 13.9455719 3.01455688 C12.5663089 3.00451764 11.18706709 2.99088339 9.80787659 2.97354126 C7.82213066 2.94920263 5.83622756 2.93898762 3.85035706 2.92910767 C2.65636292 2.91863403 1.46236877 2.9081604 0.23219299 2.89736938 C-2.74199958 3.11407254 -4.38720173 3.56255894 -6.88401794 5.12442017 C-5.76701283 0.17768324 -5.12912668 0.01114868 0 0 Z " fill="#C5D4E4" transform="translate(16.884017944335938,13.875579833984375)"/>
<path d="M0 0 C1.65 0 3.3 0 5 0 C5 0.33 5 0.66 5 1 C7.31 1.33 9.62 1.66 12 2 C12.02694851 3.95825873 12.04637218 5.91662226 12.0625 7.875 C12.07410156 8.96554688 12.08570313 10.05609375 12.09765625 11.1796875 C12 14 12 14 11 16 C7.37 16 3.74 16 0 16 C0 10.72 0 5.44 0 0 Z " fill="#3F4D5A" transform="translate(46,70)"/>
<path d="M0 0 C2.68678449 3.58237932 3.60238965 5.29800496 4.6875 9.4375 C4.93886719 10.36433594 5.19023438 11.29117188 5.44921875 12.24609375 C5.99171696 14.95858481 6.25292736 17.24590207 6 20 C5.319375 20.763125 4.63875 21.52625 3.9375 22.3125 C1.79232357 25.28806731 1.79020182 25.60506182 2.3125 29 C2.44140625 29.68964844 2.5703125 30.37929688 2.703125 31.08984375 C3.09005173 33.5794118 2.56318713 35.55952243 2 38 C1.87217026 41.70706238 1.82445921 44.47337764 3 48 C2.01 48 1.02 48 0 48 C0 32.16 0 16.32 0 0 Z " fill="#1470B8" transform="translate(46,21)"/>
<path d="M0 0 C0.33 0 0.66 0 1 0 C1 5.28 1 10.56 1 16 C1.66 15.34 2.32 14.68 3 14 C5.3828125 13.8046875 5.3828125 13.8046875 8.125 13.875 C9.03507812 13.89304687 9.94515625 13.91109375 10.8828125 13.9296875 C11.58148438 13.95289062 12.28015625 13.97609375 13 14 C13 12.35 13 10.7 13 9 C16.35914922 11.23943282 16.81681636 12.26842083 18 16 C18 16.99 18 17.98 18 19 C1.17 19 -15.66 19 -33 19 C-33 18.67 -33 18.34 -33 18 C-32.06615479 17.97494385 -31.13230957 17.9498877 -30.17016602 17.92407227 C-26.71674811 17.82913072 -23.2635104 17.72988742 -19.81030273 17.62768555 C-18.31360731 17.58428187 -16.81686061 17.54261087 -15.32006836 17.50268555 C-13.17285688 17.44511384 -11.02590479 17.38138284 -8.87890625 17.31640625 C-7.5854126 17.27974854 -6.29191895 17.24309082 -4.95922852 17.20532227 C-2.11444992 17.3332722 -2.11444992 17.3332722 -1 16 C-0.76321284 13.30764224 -0.57801975 10.63501844 -0.4375 7.9375 C-0.37272461 6.79958008 -0.37272461 6.79958008 -0.30664062 5.63867188 C-0.20026367 3.75934562 -0.09960066 1.87969756 0 0 Z " fill="#576273" transform="translate(45,70)"/>
<path d="M0 0 C1.07507813 -0.00128906 2.15015625 -0.00257812 3.2578125 -0.00390625 C4.38960937 -0.00003906 5.52140625 0.00382812 6.6875 0.0078125 C7.81929687 0.00394531 8.95109375 0.00007813 10.1171875 -0.00390625 C11.19226563 -0.00261719 12.26734375 -0.00132813 13.375 0 C14.86580078 0.00169189 14.86580078 0.00169189 16.38671875 0.00341797 C18.6875 0.1328125 18.6875 0.1328125 19.6875 1.1328125 C19.7854057 2.63019374 19.81724864 4.13224142 19.8125 5.6328125 C19.81636719 6.85484375 19.81636719 6.85484375 19.8203125 8.1015625 C19.6875 10.1328125 19.6875 10.1328125 18.6875 11.1328125 C16.91890807 11.23227703 15.14638549 11.26361467 13.375 11.265625 C12.29992187 11.26691406 11.22484375 11.26820312 10.1171875 11.26953125 C8.98539063 11.26566406 7.85359375 11.26179688 6.6875 11.2578125 C5.55570313 11.26167969 4.42390625 11.26554687 3.2578125 11.26953125 C2.18273437 11.26824219 1.10765625 11.26695313 0 11.265625 C-0.99386719 11.26449707 -1.98773438 11.26336914 -3.01171875 11.26220703 C-5.3125 11.1328125 -5.3125 11.1328125 -6.3125 10.1328125 C-6.4104057 8.63543126 -6.44224864 7.13338358 -6.4375 5.6328125 C-6.44007812 4.818125 -6.44265625 4.0034375 -6.4453125 3.1640625 C-6.17666661 -0.9446394 -3.51482588 0.00398894 0 0 Z M-4.3125 1.1328125 C-4.3125 3.7728125 -4.3125 6.4128125 -4.3125 9.1328125 C2.9475 9.1328125 10.2075 9.1328125 17.6875 9.1328125 C17.6875 6.4928125 17.6875 3.8528125 17.6875 1.1328125 C10.4275 1.1328125 3.1675 1.1328125 -4.3125 1.1328125 Z " fill="#4F5C6C" transform="translate(21.3125,33.8671875)"/>
<path d="M0 0 C3.97915159 -0.02886984 7.95827653 -0.04675406 11.9375 -0.0625 C13.07380859 -0.07087891 14.21011719 -0.07925781 15.38085938 -0.08789062 C16.46044922 -0.09111328 17.54003906 -0.09433594 18.65234375 -0.09765625 C20.15269165 -0.10551147 20.15269165 -0.10551147 21.68334961 -0.11352539 C24 0 24 0 25 1 C25.0979057 2.49738124 25.12974864 3.99942892 25.125 5.5 C25.12886719 6.72203125 25.12886719 6.72203125 25.1328125 7.96875 C25 10 25 10 24 11 C22.21928754 11.08726223 20.4351686 11.10699041 18.65234375 11.09765625 C17.57275391 11.09443359 16.49316406 11.09121094 15.38085938 11.08789062 C14.24455078 11.07951172 13.10824219 11.07113281 11.9375 11.0625 C10.79732422 11.05798828 9.65714844 11.05347656 8.48242188 11.04882812 C5.65489649 11.03699747 2.8274736 11.0205141 0 11 C0 10.34 0 9.68 0 9 C7.59 9 15.18 9 23 9 C23 6.36 23 3.72 23 1 C15.41 1 7.82 1 0 1 C0 0.67 0 0.34 0 0 Z " fill="#515E6F" transform="translate(16,21)"/>
<path d="M0 0 C24.09 0 48.18 0 73 0 C73 0.33 73 0.66 73 1 C48.91 1 24.82 1 0 1 C0 0.67 0 0.34 0 0 Z " fill="#C3D2E3" transform="translate(13,12)"/>
<path d="M0 0 C0.33 0 0.66 0 1 0 C1.02505615 0.70084717 1.0501123 1.40169434 1.07592773 2.1237793 C1.19226545 5.31185488 1.31482044 8.49966242 1.4375 11.6875 C1.47681641 12.79029297 1.51613281 13.89308594 1.55664062 15.02929688 C1.59853516 16.09599609 1.64042969 17.16269531 1.68359375 18.26171875 C1.72025146 19.24100342 1.75690918 20.22028809 1.79467773 21.22924805 C1.94242366 24.00565135 1.94242366 24.00565135 2.54711914 26.71020508 C3.08930452 29.45152945 2.58331368 31.27786949 2 34 C1.87217026 37.70706238 1.82445921 40.47337764 3 44 C2.01 44 1.02 44 0 44 C0 29.48 0 14.96 0 0 Z " fill="#11699C" transform="translate(46,25)"/>
<path d="M0 0 C2 1.75 2 1.75 4 4 C4 5.32 4 6.64 4 8 C4.99 8 5.98 8 7 8 C8.42705634 13.30723432 9.4002792 17.53891111 8 23 C3.54425838 18.54425838 2.65793881 10.95727945 1.4296875 4.9453125 C0.99132253 2.80035369 0.99132253 2.80035369 0 0 Z " fill="#148ED0" transform="translate(47,22)"/>
<path d="M0 0 C7.26 0 14.52 0 22 0 C22 0.66 22 1.32 22 2 C21.01 2.495 21.01 2.495 20 3 C20 3.99 20 4.98 20 6 C19.01 6 18.02 6 17 6 C17 5.01 17 4.02 17 3 C11.39 2.67 5.78 2.34 0 2 C0 1.34 0 0.68 0 0 Z " fill="#8DA1B2" transform="translate(17,22)"/>
<path d="M0 0 C16.5 0 33 0 50 0 C50 0.33 50 0.66 50 1 C33.5 1 17 1 0 1 C0 0.67 0 0.34 0 0 Z " fill="#637082" transform="translate(12,90)"/>
<path d="M0 0 C4.70588235 0.70588235 4.70588235 0.70588235 6 2 C6.04063832 3.66617115 6.042721 5.33388095 6 7 C4.0085944 7.38133299 2.00720923 7.71325582 0 8 C-1 7 -1 7 -1.125 4 C-1 1 -1 1 0 0 Z " fill="#DEF3F0" transform="translate(26,69)"/>
<path d="M0 0 C3.96 0 7.92 0 12 0 C12 0.66 12 1.32 12 2 C16.95 2 21.9 2 27 2 C27 2.33 27 2.66 27 3 C23.45835085 3.0292067 19.91673303 3.04686814 16.375 3.0625 C14.87646484 3.07506836 14.87646484 3.07506836 13.34765625 3.08789062 C8.44979725 3.1041087 3.81343801 3.04318537 -1 2 C-0.67 1.34 -0.34 0.68 0 0 Z " fill="#6A788A" transform="translate(61,70)"/>
<path d="M0 0 C0.33 0 0.66 0 1 0 C1.66 1.98 2.32 3.96 3 6 C4.98 6 6.96 6 9 6 C9.66 4.68 10.32 3.36 11 2 C10.6875 5.375 10.6875 5.375 10 9 C7 11 7 11 5 10.875 C2.30617659 9.69645226 1.39775313 8.58584329 0 6 C-0.1875 2.75 -0.1875 2.75 0 0 Z " fill="#6B7582" transform="translate(23,70)"/>
<path d="M0 0 C0.99 0 1.98 0 3 0 C3.08078641 2.12438339 3.13909141 4.2496323 3.1875 6.375 C3.22230469 7.55835938 3.25710937 8.74171875 3.29296875 9.9609375 C3.19628906 10.96382812 3.09960938 11.96671875 3 13 C2.01 13.66 1.02 14.32 0 15 C0 10.05 0 5.1 0 0 Z " fill="#8C98AA" transform="translate(86,19)"/>
<path d="M0 0 C0.33 0 0.66 0 1 0 C1.1083667 2.7302389 1.18746694 5.45614543 1.25 8.1875 C1.28351563 8.95642578 1.31703125 9.72535156 1.3515625 10.51757812 C1.42243849 14.64610431 1.32932056 16.50155164 -1.015625 20.05078125 C-1.67046875 20.69402344 -2.3253125 21.33726563 -3 22 C-3.125 18.625 -3.125 18.625 -3 15 C-2.34 14.34 -1.68 13.68 -1 13 C-0.53513282 9.87803664 -0.53513282 9.87803664 -0.375 6.375 C-0.30023438 5.18648437 -0.22546875 3.99796875 -0.1484375 2.7734375 C-0.09945312 1.85820312 -0.05046875 0.94296875 0 0 Z " fill="#76849C" transform="translate(89,19)"/>
<path d="M0 0 C3.60654039 2.40436026 3.85452932 3.94679607 5 8 C3.33388095 8.042721 1.66617115 8.04063832 0 8 C-0.33 7.67 -0.66 7.34 -1 7 C-2.51469448 6.76807135 -4.03754562 6.58784762 -5.5625 6.4375 C-6.38878906 6.35371094 -7.21507812 6.26992187 -8.06640625 6.18359375 C-8.70449219 6.12300781 -9.34257813 6.06242187 -10 6 C-10 5.67 -10 5.34 -10 5 C-6.7 5 -3.4 5 0 5 C0 3.35 0 1.7 0 0 Z " fill="#879AAF" transform="translate(58,79)"/>
<path d="M0 0 C3.3 0 6.6 0 10 0 C10 0.33 10 0.66 10 1 C11.65 1.33 13.3 1.66 15 2 C15 2.33 15 2.66 15 3 C9.72 2.67 4.44 2.34 -1 2 C-0.67 1.34 -0.34 0.68 0 0 Z " fill="#5B677A" transform="translate(51,70)"/>
<path d="M0 0 C2.31 0 4.62 0 7 0 C7 0.66 7 1.32 7 2 C6.01 2.495 6.01 2.495 5 3 C5 3.99 5 4.98 5 6 C4.01 6 3.02 6 2 6 C2 4.68 2 3.36 2 2 C1.34 1.34 0.68 0.68 0 0 Z " fill="#78BAC6" transform="translate(32,22)"/>
<path d="M0 0 C1.32 0 2.64 0 4 0 C4.33 1.32 4.66 2.64 5 4 C3.35 4.33 1.7 4.66 0 5 C0 3.35 0 1.7 0 0 Z " fill="#78BDC6" transform="translate(33,38)"/>
<path d="M0 0 C0.7734375 0.2165625 0.7734375 0.2165625 1.5625 0.4375 C4.68509571 1.15809901 7.82550692 1.57266439 11 2 C11 2.33 11 2.66 11 3 C7.7 3 4.4 3 1 3 C0.67 2.01 0.34 1.02 0 0 Z " fill="#4B5769" transform="translate(47,70)"/>
<path d="M0 0 C0.33 0 0.66 0 1 0 C1.1875 2.875 1.1875 2.875 1 6 C0.01 6.66 -0.98 7.32 -2 8 C-1.125 1.125 -1.125 1.125 0 0 Z " fill="#8390A3" transform="translate(88,26)"/>
<path d="" fill="#636B7C" transform="translate(0,0)"/>
<path d="" fill="#CDD8E3" transform="translate(0,0)"/>
<path d="" fill="#7D91AD" transform="translate(0,0)"/>
<path d="" fill="#77889C" transform="translate(0,0)"/>
<path d="" fill="#96A5B9" transform="translate(0,0)"/>
<path d="" fill="#505561" transform="translate(0,0)"/>
<path d="" fill="#5E708A" transform="translate(0,0)"/>
<path d="" fill="#565E6D" transform="translate(0,0)"/>
<path d="" fill="#6A7789" transform="translate(0,0)"/>
<path d="" fill="#6F7E91" transform="translate(0,0)"/>
<path d="" fill="#99A8BB" transform="translate(0,0)"/>
<path d="" fill="#DCE6F1" transform="translate(0,0)"/>
<path d="" fill="#97A4B6" transform="translate(0,0)"/>
<path d="" fill="#C9D6E9" transform="translate(0,0)"/>
<path d="" fill="#AABBD0" transform="translate(0,0)"/>
<path d="" fill="#E8EFF8" transform="translate(0,0)"/>
</svg>
