<?xml version="1.0" encoding="UTF-8"?>
<svg version="1.1" xmlns="http://www.w3.org/2000/svg" width="96" height="96">
<path d="M0 0 C5.6945051 5.28544802 10.15616982 10.66306657 13.06640625 17.91796875 C13.42347656 18.79839844 13.78054687 19.67882812 14.1484375 20.5859375 C17.45601921 32.59175537 15.61195219 45.50387308 9.78125 56.296875 C3.62443547 66.43246661 -5.42878593 73.21898265 -16.84228516 76.45996094 C-26.41720923 78.55692073 -36.78489878 77.57511408 -45.6875 73.75390625 C-51.2049309 71.7004624 -56.4791294 74.43652423 -61.7109375 76.28515625 C-64.90132644 77.19349194 -67.63727891 77.12837182 -70.93359375 76.91796875 C-71.47812312 70.92814564 -69.88542196 66.45447135 -67.7109375 60.8828125 C-66.45960222 56.11013172 -67.63525839 52.57822421 -69.46484375 48.15234375 C-71.28031508 43.48968202 -71.47076633 39.13384371 -71.43359375 34.16796875 C-71.42859863 33.28979492 -71.42360352 32.41162109 -71.41845703 31.50683594 C-71.10176604 19.64730427 -66.28548483 10.47564464 -58.125 2.05078125 C-42.00818474 -13.06075982 -17.0733916 -14.32454501 0 0 Z M-53.26171875 7.03125 C-62.08731325 16.49424855 -64.41288668 25.18428887 -64.23046875 37.8515625 C-64.03035124 42.26129485 -62.86550441 45.85106659 -60.90625 49.8046875 C-58.72289946 54.54843305 -58.87675622 57.76926814 -60.37109375 62.73046875 C-60.65855469 63.70628906 -60.94601563 64.68210937 -61.2421875 65.6875 C-61.47035156 66.42355469 -61.69851562 67.15960938 -61.93359375 67.91796875 C-61.19753906 67.68980469 -60.46148437 67.46164063 -59.703125 67.2265625 C-58.72730469 66.93910156 -57.75148438 66.65164062 -56.74609375 66.35546875 C-55.78316406 66.06542969 -54.82023437 65.77539062 -53.828125 65.4765625 C-49.04071146 64.55267568 -45.86841052 65.87567056 -41.62109375 67.98046875 C-32.65572172 71.61471792 -22.40367969 71.28453958 -13.43359375 67.85546875 C-3.22149353 62.90163152 2.97047521 55.58357882 7.20703125 45.09375 C9.53674473 36.48439971 9.19330838 26.15270186 5.32421875 18.08984375 C-0.67533799 7.73036068 -8.39749921 1.39682226 -19.93359375 -2.08203125 C-31.93978121 -4.93766959 -44.19793495 -1.1961108 -53.26171875 7.03125 Z " fill="#1AA35A" transform="translate(75.93359375,14.08203125)"/>
<path d="M0 0 C3.41830018 4.01800197 5.72469395 8.14168418 6.5 13.375 C6.01404723 15.92625206 5.35765882 17.79380441 4 20 C7.20156421 24.99067362 9.31642687 27.75300597 15 30 C15.66 29.34 16.32 28.68 17 28 C22.98589444 27.00235093 26.91574777 28.95684143 31.9296875 32.23046875 C34 34 34 34 35.5 37.375 C34.70278377 43.15481766 31.69759017 46.70391163 27.3203125 50.4296875 C23.7096895 52.84231577 20.49247974 53.56656937 16.2265625 52.7265625 C2.60661202 48.28215761 -8.52150707 37.50239841 -15.57421875 25.26953125 C-18.54535288 19.36796346 -20.02584348 15.39740045 -18 9 C-13.72632387 2.34163939 -8.22248159 -3.02933532 0 0 Z M-8.5625 9.25 C-11.29136873 12.26607341 -11.29136873 12.26607341 -12 16 C-7.44351691 28.40155832 2.43140584 38.05526256 14 44 C18.34381646 45.89927737 18.34381646 45.89927737 22.75 44.9375 C25.26574643 42.77116279 26.0636063 41.14968791 27 38 C23.59741139 35.87735711 21.6383723 35.9931478 17.75 36.6875 C12.5992243 37.26438688 9.87016196 36.59376702 5.71875 33.53125 C2.03837323 30.25236888 -1.20019521 26.65089741 -3 22 C-2.90010619 19.16967533 -2.49405538 16.45838763 -2.09375 13.65625 C-1.99195841 10.77215496 -2.49421296 9.41838525 -4 7 C-6.31787296 6.78006628 -6.31787296 6.78006628 -8.5625 9.25 Z " fill="#1AA35A" transform="translate(40,22)"/>
</svg>
