<svg xmlns="http://www.w3.org/2000/svg" xmlns:xlink="http://www.w3.org/1999/xlink" width="672" zoomAndPan="magnify" viewBox="0 0 504 107.999999" height="144" preserveAspectRatio="xMidYMid meet" version="1.2"><defs/><g id="f2569a7f06"><rect x="0" width="504" y="0" height="107.999999" style="fill:#ffffff;fill-opacity:1;stroke:none;"/><rect x="0" width="504" y="0" height="107.999999" style="fill:#0b1924;fill-opacity:1;stroke:none;"/><g style="fill:#d9d9d9;fill-opacity:1;"><g transform="translate(35.390627, 28.288176)"><path style="stroke:none" d="M 15.984375 -17.84375 L 15.375 -14.890625 L 7.578125 -14.890625 L 6.578125 -10.171875 L 13.640625 -10.171875 L 13.03125 -7.25 L 5.953125 -7.25 L 4.421875 0 L 0.890625 0 L 4.671875 -17.84375 Z M 15.984375 -17.84375 "/></g></g><g style="fill:#d9d9d9;fill-opacity:1;"><g transform="translate(49.817082, 28.288176)"><path style="stroke:none" d="M 5.828125 -15.078125 C 5.210938 -15.078125 4.710938 -15.257812 4.328125 -15.625 C 3.953125 -16 3.765625 -16.476562 3.765625 -17.0625 C 3.765625 -17.644531 3.953125 -18.117188 4.328125 -18.484375 C 4.710938 -18.859375 5.210938 -19.046875 5.828125 -19.046875 C 6.234375 -19.046875 6.59375 -18.957031 6.90625 -18.78125 C 7.226562 -18.613281 7.472656 -18.378906 7.640625 -18.078125 C 7.816406 -17.785156 7.90625 -17.445312 7.90625 -17.0625 C 7.90625 -16.675781 7.816406 -16.332031 7.640625 -16.03125 C 7.472656 -15.738281 7.226562 -15.503906 6.90625 -15.328125 C 6.59375 -15.160156 6.234375 -15.078125 5.828125 -15.078125 Z M 0.515625 0 L 3.375 -13.46875 L 6.765625 -13.46875 L 3.890625 0 Z M 0.515625 0 "/></g></g><g style="fill:#d9d9d9;fill-opacity:1;"><g transform="translate(57.066925, 28.288176)"><path style="stroke:none" d="M 0.515625 0 L 3.375 -13.46875 L 6.609375 -13.46875 L 6.203125 -11.484375 L 6.4375 -11.421875 C 6.9375 -12.179688 7.535156 -12.753906 8.234375 -13.140625 C 8.929688 -13.523438 9.769531 -13.71875 10.75 -13.71875 C 11.988281 -13.71875 12.929688 -13.378906 13.578125 -12.703125 C 14.222656 -12.035156 14.546875 -11.109375 14.546875 -9.921875 C 14.546875 -9.421875 14.488281 -8.867188 14.375 -8.265625 L 12.609375 0 L 9.234375 0 L 11 -8.34375 C 11.050781 -8.59375 11.078125 -8.847656 11.078125 -9.109375 C 11.078125 -9.671875 10.914062 -10.101562 10.59375 -10.40625 C 10.269531 -10.707031 9.789062 -10.859375 9.15625 -10.859375 C 8.21875 -10.859375 7.421875 -10.546875 6.765625 -9.921875 C 6.117188 -9.296875 5.65625 -8.3125 5.375 -6.96875 L 3.890625 0 Z M 0.515625 0 "/></g></g><g style="fill:#d9d9d9;fill-opacity:1;"><g transform="translate(72.835944, 28.288176)"><path style="stroke:none" d="M 5.359375 0.25 C 4.554688 0.25 3.828125 0.0664062 3.171875 -0.296875 C 2.523438 -0.660156 2.003906 -1.21875 1.609375 -1.96875 C 1.210938 -2.71875 1.015625 -3.648438 1.015625 -4.765625 C 1.015625 -5.472656 1.101562 -6.25 1.28125 -7.09375 C 1.75 -9.269531 2.570312 -10.914062 3.75 -12.03125 C 4.925781 -13.15625 6.382812 -13.71875 8.125 -13.71875 C 8.976562 -13.71875 9.707031 -13.570312 10.3125 -13.28125 C 10.925781 -12.988281 11.378906 -12.539062 11.671875 -11.9375 L 11.9375 -12 L 12.25 -13.484375 L 15.625 -13.484375 L 12.765625 0 L 9.390625 0 L 9.75 -1.75 L 9.515625 -1.796875 C 8.992188 -1.140625 8.394531 -0.632812 7.71875 -0.28125 C 7.050781 0.0703125 6.265625 0.25 5.359375 0.25 Z M 6.875 -2.609375 C 7.8125 -2.609375 8.628906 -2.9375 9.328125 -3.59375 C 10.035156 -4.25 10.523438 -5.210938 10.796875 -6.484375 C 10.910156 -7.085938 10.96875 -7.613281 10.96875 -8.0625 C 10.96875 -8.988281 10.753906 -9.6875 10.328125 -10.15625 C 9.910156 -10.625 9.34375 -10.859375 8.625 -10.859375 C 7.632812 -10.859375 6.804688 -10.535156 6.140625 -9.890625 C 5.484375 -9.242188 5.007812 -8.253906 4.71875 -6.921875 C 4.601562 -6.328125 4.546875 -5.796875 4.546875 -5.328125 C 4.546875 -4.429688 4.75 -3.753906 5.15625 -3.296875 C 5.5625 -2.835938 6.132812 -2.609375 6.875 -2.609375 Z M 6.875 -2.609375 "/></g></g><g style="fill:#d9d9d9;fill-opacity:1;"><g transform="translate(88.971117, 28.288176)"><path style="stroke:none" d="M 4.09375 0.25 C 3.53125 0.25 3.023438 0.128906 2.578125 -0.109375 C 2.140625 -0.359375 1.796875 -0.722656 1.546875 -1.203125 C 1.296875 -1.691406 1.171875 -2.273438 1.171875 -2.953125 C 1.171875 -3.378906 1.222656 -3.835938 1.328125 -4.328125 L 4.4375 -18.875 L 7.8125 -18.875 L 4.609375 -3.84375 C 4.578125 -3.664062 4.5625 -3.539062 4.5625 -3.46875 C 4.5625 -3.195312 4.632812 -2.984375 4.78125 -2.828125 C 4.925781 -2.679688 5.125 -2.609375 5.375 -2.609375 C 5.539062 -2.609375 5.722656 -2.640625 5.921875 -2.703125 L 6.078125 -2.65625 L 6.078125 -0.0625 C 5.609375 0.144531 4.945312 0.25 4.09375 0.25 Z M 4.09375 0.25 "/></g></g><g style="fill:#d9d9d9;fill-opacity:1;"><g transform="translate(96.709165, 28.288176)"><path style="stroke:none" d="M 4.09375 0.25 C 3.53125 0.25 3.023438 0.128906 2.578125 -0.109375 C 2.140625 -0.359375 1.796875 -0.722656 1.546875 -1.203125 C 1.296875 -1.691406 1.171875 -2.273438 1.171875 -2.953125 C 1.171875 -3.378906 1.222656 -3.835938 1.328125 -4.328125 L 4.4375 -18.875 L 7.8125 -18.875 L 4.609375 -3.84375 C 4.578125 -3.664062 4.5625 -3.539062 4.5625 -3.46875 C 4.5625 -3.195312 4.632812 -2.984375 4.78125 -2.828125 C 4.925781 -2.679688 5.125 -2.609375 5.375 -2.609375 C 5.539062 -2.609375 5.722656 -2.640625 5.921875 -2.703125 L 6.078125 -2.65625 L 6.078125 -0.0625 C 5.609375 0.144531 4.945312 0.25 4.09375 0.25 Z M 4.09375 0.25 "/></g></g><g style="fill:#d9d9d9;fill-opacity:1;"><g transform="translate(104.447213, 28.288176)"><path style="stroke:none" d="M 0.390625 5.71875 C -0.179688 5.71875 -0.703125 5.671875 -1.171875 5.578125 C -1.640625 5.484375 -2.003906 5.363281 -2.265625 5.21875 L -1.15625 2.484375 L -0.921875 2.421875 C -0.734375 2.523438 -0.5 2.609375 -0.21875 2.671875 C 0.0625 2.734375 0.363281 2.765625 0.6875 2.765625 C 1.226562 2.765625 1.695312 2.691406 2.09375 2.546875 C 2.488281 2.410156 2.847656 2.175781 3.171875 1.84375 C 3.492188 1.519531 3.8125 1.0625 4.125 0.46875 L 1.71875 -13.46875 L 5.078125 -13.46875 L 6.484375 -4.109375 L 6.78125 -4.109375 L 11.984375 -13.46875 L 15.59375 -13.46875 L 7.1875 1.09375 C 6.53125 2.226562 5.867188 3.128906 5.203125 3.796875 C 4.546875 4.472656 3.828125 4.960938 3.046875 5.265625 C 2.273438 5.566406 1.390625 5.71875 0.390625 5.71875 Z M 0.390625 5.71875 "/></g></g><g style="fill:#d9d9d9;fill-opacity:1;"><g transform="translate(118.898079, 28.288176)"><path style="stroke:none" d=""/></g></g><g style="fill:#d9d9d9;fill-opacity:1;"><g transform="translate(124.793159, 28.288176)"><path style="stroke:none" d="M 8.34375 0 L 4.828125 0 L 6.3125 -7 L 2.4375 -17.84375 L 6.046875 -17.84375 L 8.5625 -10.828125 L 8.859375 -10.828125 L 14.359375 -17.84375 L 18.296875 -17.84375 L 9.84375 -7 Z M 8.34375 0 "/></g></g><g style="fill:#d9d9d9;fill-opacity:1;"><g transform="translate(139.085261, 28.288176)"><path style="stroke:none" d="M 6.703125 0.25 C 5.566406 0.25 4.570312 0.0390625 3.71875 -0.375 C 2.875 -0.789062 2.222656 -1.398438 1.765625 -2.203125 C 1.304688 -3.015625 1.078125 -3.988281 1.078125 -5.125 C 1.078125 -5.789062 1.15625 -6.488281 1.3125 -7.21875 C 1.601562 -8.5625 2.085938 -9.722656 2.765625 -10.703125 C 3.453125 -11.679688 4.316406 -12.425781 5.359375 -12.9375 C 6.410156 -13.457031 7.609375 -13.71875 8.953125 -13.71875 C 10.085938 -13.71875 11.078125 -13.5 11.921875 -13.0625 C 12.773438 -12.632812 13.429688 -12.007812 13.890625 -11.1875 C 14.347656 -10.375 14.578125 -9.40625 14.578125 -8.28125 C 14.578125 -7.65625 14.503906 -6.976562 14.359375 -6.25 C 14.066406 -4.894531 13.578125 -3.726562 12.890625 -2.75 C 12.203125 -1.78125 11.332031 -1.035156 10.28125 -0.515625 C 9.238281 -0.00390625 8.046875 0.25 6.703125 0.25 Z M 7.015625 -2.609375 C 8.003906 -2.609375 8.832031 -2.953125 9.5 -3.640625 C 10.175781 -4.328125 10.664062 -5.351562 10.96875 -6.71875 C 11.082031 -7.300781 11.140625 -7.804688 11.140625 -8.234375 C 11.140625 -9.128906 10.921875 -9.789062 10.484375 -10.21875 C 10.046875 -10.644531 9.425781 -10.859375 8.625 -10.859375 C 7.644531 -10.859375 6.816406 -10.515625 6.140625 -9.828125 C 5.460938 -9.140625 4.976562 -8.101562 4.6875 -6.71875 C 4.5625 -6.164062 4.5 -5.664062 4.5 -5.21875 C 4.5 -4.332031 4.71875 -3.675781 5.15625 -3.25 C 5.601562 -2.820312 6.222656 -2.609375 7.015625 -2.609375 Z M 7.015625 -2.609375 "/></g></g><g style="fill:#d9d9d9;fill-opacity:1;"><g transform="translate(154.732229, 28.288176)"><path style="stroke:none" d="M 4.78125 0.25 C 4.019531 0.25 3.367188 0.09375 2.828125 -0.21875 C 2.296875 -0.539062 1.894531 -0.988281 1.625 -1.5625 C 1.351562 -2.144531 1.21875 -2.816406 1.21875 -3.578125 C 1.21875 -4.046875 1.273438 -4.554688 1.390625 -5.109375 L 3.15625 -13.46875 L 6.546875 -13.46875 L 4.75 -4.96875 C 4.695312 -4.726562 4.671875 -4.5 4.671875 -4.28125 C 4.671875 -3.75 4.828125 -3.332031 5.140625 -3.03125 C 5.453125 -2.738281 5.90625 -2.59375 6.5 -2.59375 C 8.414062 -2.59375 9.644531 -3.867188 10.1875 -6.421875 L 11.6875 -13.46875 L 15.0625 -13.46875 L 12.203125 0 L 8.953125 0 L 9.375 -1.984375 L 9.140625 -2.03125 C 8.609375 -1.25 8.003906 -0.671875 7.328125 -0.296875 C 6.660156 0.0664062 5.8125 0.25 4.78125 0.25 Z M 4.78125 0.25 "/></g></g><g style="fill:#d9d9d9;fill-opacity:1;"><g transform="translate(170.305966, 28.288176)"><path style="stroke:none" d="M 0.515625 0 L 3.375 -13.46875 L 6.65625 -13.46875 L 6.21875 -11.46875 L 6.46875 -11.40625 C 6.9375 -12.175781 7.460938 -12.734375 8.046875 -13.078125 C 8.628906 -13.421875 9.328125 -13.59375 10.140625 -13.59375 C 10.503906 -13.59375 10.832031 -13.554688 11.125 -13.484375 C 11.414062 -13.421875 11.640625 -13.328125 11.796875 -13.203125 L 10.703125 -10.234375 L 10.4375 -10.1875 C 10.007812 -10.382812 9.535156 -10.484375 9.015625 -10.484375 C 7.078125 -10.484375 5.8125 -9.085938 5.21875 -6.296875 L 3.890625 0 Z M 0.515625 0 "/></g></g><g style="fill:#d9d9d9;fill-opacity:1;"><g transform="translate(180.863404, 28.288176)"><path style="stroke:none" d=""/></g></g><g style="fill:#d9d9d9;fill-opacity:1;"><g transform="translate(186.758484, 28.288176)"><path style="stroke:none" d="M 0.890625 0 L 4.671875 -17.84375 L 11.46875 -17.84375 C 12.507812 -17.84375 13.40625 -17.679688 14.15625 -17.359375 C 14.90625 -17.046875 15.472656 -16.585938 15.859375 -15.984375 C 16.253906 -15.390625 16.453125 -14.679688 16.453125 -13.859375 C 16.453125 -13.453125 16.40625 -13.023438 16.3125 -12.578125 C 16.09375 -11.554688 15.609375 -10.703125 14.859375 -10.015625 C 14.117188 -9.335938 13.222656 -8.921875 12.171875 -8.765625 L 12.109375 -8.515625 C 12.640625 -8.253906 13.03125 -7.882812 13.28125 -7.40625 C 13.539062 -6.9375 13.722656 -6.242188 13.828125 -5.328125 L 14.046875 -3.484375 L 14.484375 0 L 10.9375 0 L 10.875 -0.5 C 10.8125 -1.039062 10.734375 -1.710938 10.640625 -2.515625 C 10.546875 -3.316406 10.441406 -4.253906 10.328125 -5.328125 C 10.265625 -5.867188 10.148438 -6.285156 9.984375 -6.578125 C 9.816406 -6.878906 9.578125 -7.097656 9.265625 -7.234375 C 8.953125 -7.367188 8.515625 -7.4375 7.953125 -7.4375 L 6 -7.4375 L 4.421875 0 Z M 9.796875 -10.234375 C 10.691406 -10.234375 11.382812 -10.421875 11.875 -10.796875 C 12.363281 -11.179688 12.691406 -11.757812 12.859375 -12.53125 C 12.910156 -12.78125 12.9375 -13.019531 12.9375 -13.25 C 12.9375 -13.851562 12.742188 -14.300781 12.359375 -14.59375 C 11.984375 -14.894531 11.445312 -15.046875 10.75 -15.046875 L 7.625 -15.046875 L 6.59375 -10.234375 Z M 9.796875 -10.234375 "/></g></g><g style="fill:#d9d9d9;fill-opacity:1;"><g transform="translate(203.088927, 28.288176)"><path style="stroke:none" d="M 13.703125 -9.40625 C 13.390625 -7.90625 12.570312 -6.828125 11.25 -6.171875 C 9.9375 -5.523438 8.328125 -5.203125 6.421875 -5.203125 C 5.742188 -5.203125 5.117188 -5.226562 4.546875 -5.28125 C 4.578125 -4.382812 4.8125 -3.710938 5.25 -3.265625 C 5.6875 -2.828125 6.304688 -2.609375 7.109375 -2.609375 C 7.847656 -2.609375 8.460938 -2.753906 8.953125 -3.046875 C 9.441406 -3.335938 9.890625 -3.785156 10.296875 -4.390625 L 10.546875 -4.390625 L 12.71875 -2.921875 C 12.300781 -2.253906 11.835938 -1.691406 11.328125 -1.234375 C 10.816406 -0.773438 10.164062 -0.410156 9.375 -0.140625 C 8.59375 0.117188 7.632812 0.25 6.5 0.25 C 5.457031 0.25 4.53125 0.03125 3.71875 -0.40625 C 2.914062 -0.851562 2.285156 -1.492188 1.828125 -2.328125 C 1.367188 -3.171875 1.140625 -4.179688 1.140625 -5.359375 C 1.140625 -6.023438 1.21875 -6.726562 1.375 -7.46875 C 1.644531 -8.769531 2.148438 -9.890625 2.890625 -10.828125 C 3.640625 -11.773438 4.539062 -12.492188 5.59375 -12.984375 C 6.644531 -13.472656 7.773438 -13.71875 8.984375 -13.71875 C 10.003906 -13.71875 10.875 -13.5625 11.59375 -13.25 C 12.320312 -12.9375 12.867188 -12.507812 13.234375 -11.96875 C 13.597656 -11.425781 13.78125 -10.828125 13.78125 -10.171875 C 13.78125 -9.890625 13.753906 -9.632812 13.703125 -9.40625 Z M 8.671875 -11.09375 C 8.148438 -11.09375 7.640625 -10.972656 7.140625 -10.734375 C 6.648438 -10.503906 6.207031 -10.148438 5.8125 -9.671875 C 5.414062 -9.191406 5.109375 -8.597656 4.890625 -7.890625 C 5.515625 -7.847656 6.109375 -7.828125 6.671875 -7.828125 C 7.785156 -7.828125 8.664062 -7.960938 9.3125 -8.234375 C 9.96875 -8.515625 10.367188 -9.003906 10.515625 -9.703125 C 10.535156 -9.796875 10.546875 -9.875 10.546875 -9.9375 C 10.546875 -10.28125 10.382812 -10.554688 10.0625 -10.765625 C 9.738281 -10.984375 9.273438 -11.09375 8.671875 -11.09375 Z M 8.671875 -11.09375 "/></g></g><g style="fill:#d9d9d9;fill-opacity:1;"><g transform="translate(217.722876, 28.288176)"><path style="stroke:none" d="M 4.890625 0.25 C 4.085938 0.25 3.335938 0.140625 2.640625 -0.078125 C 1.941406 -0.304688 1.34375 -0.617188 0.84375 -1.015625 C 0.34375 -1.410156 -0.0195312 -1.851562 -0.25 -2.34375 L 1.96875 -4.28125 L 2.21875 -4.28125 C 2.539062 -3.675781 2.972656 -3.222656 3.515625 -2.921875 C 4.066406 -2.628906 4.703125 -2.484375 5.421875 -2.484375 C 6.171875 -2.484375 6.742188 -2.628906 7.140625 -2.921875 C 7.535156 -3.222656 7.734375 -3.644531 7.734375 -4.1875 C 7.734375 -4.5 7.617188 -4.765625 7.390625 -4.984375 C 7.171875 -5.203125 6.800781 -5.382812 6.28125 -5.53125 L 4.609375 -6 C 3.765625 -6.25 3.085938 -6.640625 2.578125 -7.171875 C 2.066406 -7.710938 1.8125 -8.414062 1.8125 -9.28125 C 1.8125 -9.582031 1.847656 -9.921875 1.921875 -10.296875 C 2.148438 -11.378906 2.742188 -12.21875 3.703125 -12.8125 C 4.671875 -13.414062 5.957031 -13.71875 7.5625 -13.71875 C 8.6875 -13.71875 9.632812 -13.53125 10.40625 -13.15625 C 11.1875 -12.789062 11.78125 -12.304688 12.1875 -11.703125 L 10.0625 -9.84375 L 9.8125 -9.84375 C 9.53125 -10.257812 9.175781 -10.566406 8.75 -10.765625 C 8.320312 -10.960938 7.816406 -11.0625 7.234375 -11.0625 C 6.546875 -11.0625 6.019531 -10.960938 5.65625 -10.765625 C 5.289062 -10.578125 5.066406 -10.285156 4.984375 -9.890625 C 4.960938 -9.785156 4.953125 -9.710938 4.953125 -9.671875 C 4.953125 -9.378906 5.078125 -9.128906 5.328125 -8.921875 C 5.585938 -8.710938 5.945312 -8.546875 6.40625 -8.421875 L 7.953125 -8.015625 C 10.035156 -7.484375 11.078125 -6.382812 11.078125 -4.71875 C 11.078125 -4.375 11.035156 -4.019531 10.953125 -3.65625 C 10.660156 -2.351562 10.03125 -1.375 9.0625 -0.71875 C 8.101562 -0.0703125 6.710938 0.25 4.890625 0.25 Z M 4.890625 0.25 "/></g></g><g style="fill:#d9d9d9;fill-opacity:1;"><g transform="translate(230.135503, 28.288176)"><path style="stroke:none" d="M 4.78125 0.25 C 4.019531 0.25 3.367188 0.09375 2.828125 -0.21875 C 2.296875 -0.539062 1.894531 -0.988281 1.625 -1.5625 C 1.351562 -2.144531 1.21875 -2.816406 1.21875 -3.578125 C 1.21875 -4.046875 1.273438 -4.554688 1.390625 -5.109375 L 3.15625 -13.46875 L 6.546875 -13.46875 L 4.75 -4.96875 C 4.695312 -4.726562 4.671875 -4.5 4.671875 -4.28125 C 4.671875 -3.75 4.828125 -3.332031 5.140625 -3.03125 C 5.453125 -2.738281 5.90625 -2.59375 6.5 -2.59375 C 8.414062 -2.59375 9.644531 -3.867188 10.1875 -6.421875 L 11.6875 -13.46875 L 15.0625 -13.46875 L 12.203125 0 L 8.953125 0 L 9.375 -1.984375 L 9.140625 -2.03125 C 8.609375 -1.25 8.003906 -0.671875 7.328125 -0.296875 C 6.660156 0.0664062 5.8125 0.25 4.78125 0.25 Z M 4.78125 0.25 "/></g></g><g style="fill:#d9d9d9;fill-opacity:1;"><g transform="translate(245.709218, 28.288176)"><path style="stroke:none" d="M 0.515625 0 L 3.375 -13.46875 L 6.609375 -13.46875 L 6.234375 -11.65625 L 6.484375 -11.609375 C 6.941406 -12.316406 7.503906 -12.84375 8.171875 -13.1875 C 8.847656 -13.539062 9.648438 -13.71875 10.578125 -13.71875 C 12.484375 -13.71875 13.632812 -12.929688 14.03125 -11.359375 L 14.296875 -11.359375 C 14.804688 -12.171875 15.410156 -12.765625 16.109375 -13.140625 C 16.804688 -13.523438 17.640625 -13.71875 18.609375 -13.71875 C 19.773438 -13.71875 20.65625 -13.414062 21.25 -12.8125 C 21.851562 -12.207031 22.15625 -11.359375 22.15625 -10.265625 C 22.15625 -9.773438 22.09375 -9.25 21.96875 -8.6875 L 20.125 0 L 16.75 0 L 18.578125 -8.625 C 18.640625 -8.882812 18.671875 -9.140625 18.671875 -9.390625 C 18.671875 -10.367188 18.109375 -10.859375 16.984375 -10.859375 C 16.117188 -10.859375 15.394531 -10.566406 14.8125 -9.984375 C 14.226562 -9.398438 13.800781 -8.453125 13.53125 -7.140625 L 12.015625 0 L 8.625 0 L 10.46875 -8.625 C 10.519531 -8.882812 10.546875 -9.140625 10.546875 -9.390625 C 10.546875 -10.367188 9.976562 -10.859375 8.84375 -10.859375 C 7.988281 -10.859375 7.269531 -10.566406 6.6875 -9.984375 C 6.113281 -9.410156 5.691406 -8.488281 5.421875 -7.21875 L 3.890625 0 Z M 0.515625 0 "/></g></g><g style="fill:#d9d9d9;fill-opacity:1;"><g transform="translate(268.996616, 28.288176)"><path style="stroke:none" d="M 13.703125 -9.40625 C 13.390625 -7.90625 12.570312 -6.828125 11.25 -6.171875 C 9.9375 -5.523438 8.328125 -5.203125 6.421875 -5.203125 C 5.742188 -5.203125 5.117188 -5.226562 4.546875 -5.28125 C 4.578125 -4.382812 4.8125 -3.710938 5.25 -3.265625 C 5.6875 -2.828125 6.304688 -2.609375 7.109375 -2.609375 C 7.847656 -2.609375 8.460938 -2.753906 8.953125 -3.046875 C 9.441406 -3.335938 9.890625 -3.785156 10.296875 -4.390625 L 10.546875 -4.390625 L 12.71875 -2.921875 C 12.300781 -2.253906 11.835938 -1.691406 11.328125 -1.234375 C 10.816406 -0.773438 10.164062 -0.410156 9.375 -0.140625 C 8.59375 0.117188 7.632812 0.25 6.5 0.25 C 5.457031 0.25 4.53125 0.03125 3.71875 -0.40625 C 2.914062 -0.851562 2.285156 -1.492188 1.828125 -2.328125 C 1.367188 -3.171875 1.140625 -4.179688 1.140625 -5.359375 C 1.140625 -6.023438 1.21875 -6.726562 1.375 -7.46875 C 1.644531 -8.769531 2.148438 -9.890625 2.890625 -10.828125 C 3.640625 -11.773438 4.539062 -12.492188 5.59375 -12.984375 C 6.644531 -13.472656 7.773438 -13.71875 8.984375 -13.71875 C 10.003906 -13.71875 10.875 -13.5625 11.59375 -13.25 C 12.320312 -12.9375 12.867188 -12.507812 13.234375 -11.96875 C 13.597656 -11.425781 13.78125 -10.828125 13.78125 -10.171875 C 13.78125 -9.890625 13.753906 -9.632812 13.703125 -9.40625 Z M 8.671875 -11.09375 C 8.148438 -11.09375 7.640625 -10.972656 7.140625 -10.734375 C 6.648438 -10.503906 6.207031 -10.148438 5.8125 -9.671875 C 5.414062 -9.191406 5.109375 -8.597656 4.890625 -7.890625 C 5.515625 -7.847656 6.109375 -7.828125 6.671875 -7.828125 C 7.785156 -7.828125 8.664062 -7.960938 9.3125 -8.234375 C 9.96875 -8.515625 10.367188 -9.003906 10.515625 -9.703125 C 10.535156 -9.796875 10.546875 -9.875 10.546875 -9.9375 C 10.546875 -10.28125 10.382812 -10.554688 10.0625 -10.765625 C 9.738281 -10.984375 9.273438 -11.09375 8.671875 -11.09375 Z M 8.671875 -11.09375 "/></g></g><g style="fill:#d9d9d9;fill-opacity:1;"><g transform="translate(283.630542, 28.288176)"><path style="stroke:none" d=""/></g></g><g style="fill:#d9d9d9;fill-opacity:1;"><g transform="translate(289.525622, 28.288176)"><path style="stroke:none" d="M 7.171875 0 L 3.15625 0 L 2.84375 -17.84375 L 6.28125 -17.84375 L 6.3125 -5.296875 L 6.609375 -5.296875 L 12.46875 -17.84375 L 15.515625 -17.84375 L 16.171875 -5.296875 L 16.484375 -5.296875 L 21.78125 -17.84375 L 25.25 -17.84375 L 17.4375 0 L 13.484375 0 L 12.8125 -11.515625 L 12.5625 -11.515625 Z M 7.171875 0 "/></g></g><g style="fill:#d9d9d9;fill-opacity:1;"><g transform="translate(312.678735, 28.288176)"><path style="stroke:none" d="M 5.828125 -15.078125 C 5.210938 -15.078125 4.710938 -15.257812 4.328125 -15.625 C 3.953125 -16 3.765625 -16.476562 3.765625 -17.0625 C 3.765625 -17.644531 3.953125 -18.117188 4.328125 -18.484375 C 4.710938 -18.859375 5.210938 -19.046875 5.828125 -19.046875 C 6.234375 -19.046875 6.59375 -18.957031 6.90625 -18.78125 C 7.226562 -18.613281 7.472656 -18.378906 7.640625 -18.078125 C 7.816406 -17.785156 7.90625 -17.445312 7.90625 -17.0625 C 7.90625 -16.675781 7.816406 -16.332031 7.640625 -16.03125 C 7.472656 -15.738281 7.226562 -15.503906 6.90625 -15.328125 C 6.59375 -15.160156 6.234375 -15.078125 5.828125 -15.078125 Z M 0.515625 0 L 3.375 -13.46875 L 6.765625 -13.46875 L 3.890625 0 Z M 0.515625 0 "/></g></g><g style="fill:#d9d9d9;fill-opacity:1;"><g transform="translate(319.92859, 28.288176)"><path style="stroke:none" d="M 4.09375 0.25 C 3.53125 0.25 3.023438 0.128906 2.578125 -0.109375 C 2.140625 -0.359375 1.796875 -0.722656 1.546875 -1.203125 C 1.296875 -1.691406 1.171875 -2.273438 1.171875 -2.953125 C 1.171875 -3.378906 1.222656 -3.835938 1.328125 -4.328125 L 4.4375 -18.875 L 7.8125 -18.875 L 4.609375 -3.84375 C 4.578125 -3.664062 4.5625 -3.539062 4.5625 -3.46875 C 4.5625 -3.195312 4.632812 -2.984375 4.78125 -2.828125 C 4.925781 -2.679688 5.125 -2.609375 5.375 -2.609375 C 5.539062 -2.609375 5.722656 -2.640625 5.921875 -2.703125 L 6.078125 -2.65625 L 6.078125 -0.0625 C 5.609375 0.144531 4.945312 0.25 4.09375 0.25 Z M 4.09375 0.25 "/></g></g><g style="fill:#d9d9d9;fill-opacity:1;"><g transform="translate(327.666626, 28.288176)"><path style="stroke:none" d="M 4.09375 0.25 C 3.53125 0.25 3.023438 0.128906 2.578125 -0.109375 C 2.140625 -0.359375 1.796875 -0.722656 1.546875 -1.203125 C 1.296875 -1.691406 1.171875 -2.273438 1.171875 -2.953125 C 1.171875 -3.378906 1.222656 -3.835938 1.328125 -4.328125 L 4.4375 -18.875 L 7.8125 -18.875 L 4.609375 -3.84375 C 4.578125 -3.664062 4.5625 -3.539062 4.5625 -3.46875 C 4.5625 -3.195312 4.632812 -2.984375 4.78125 -2.828125 C 4.925781 -2.679688 5.125 -2.609375 5.375 -2.609375 C 5.539062 -2.609375 5.722656 -2.640625 5.921875 -2.703125 L 6.078125 -2.65625 L 6.078125 -0.0625 C 5.609375 0.144531 4.945312 0.25 4.09375 0.25 Z M 4.09375 0.25 "/></g></g><g style="fill:#d9d9d9;fill-opacity:1;"><g transform="translate(335.404663, 28.288176)"><path style="stroke:none" d=""/></g></g><g style="fill:#d9d9d9;fill-opacity:1;"><g transform="translate(341.299743, 28.288176)"><path style="stroke:none" d="M 7.34375 0.25 C 6.289062 0.25 5.332031 0 4.46875 -0.5 C 3.601562 -1.007812 2.914062 -1.773438 2.40625 -2.796875 C 1.90625 -3.816406 1.65625 -5.050781 1.65625 -6.5 C 1.65625 -7.4375 1.769531 -8.453125 2 -9.546875 C 2.394531 -11.410156 3.050781 -12.976562 3.96875 -14.25 C 4.894531 -15.519531 6.039062 -16.476562 7.40625 -17.125 C 8.769531 -17.78125 10.3125 -18.109375 12.03125 -18.109375 C 13.757812 -18.109375 15.171875 -17.789062 16.265625 -17.15625 C 17.367188 -16.519531 18.050781 -15.570312 18.3125 -14.3125 L 15.484375 -12.8125 L 15.171875 -12.828125 C 14.972656 -13.597656 14.578125 -14.160156 13.984375 -14.515625 C 13.390625 -14.878906 12.582031 -15.0625 11.5625 -15.0625 C 10.019531 -15.0625 8.738281 -14.570312 7.71875 -13.59375 C 6.695312 -12.625 5.957031 -11.066406 5.5 -8.921875 C 5.320312 -8.078125 5.234375 -7.3125 5.234375 -6.625 C 5.234375 -5.3125 5.546875 -4.335938 6.171875 -3.703125 C 6.796875 -3.078125 7.644531 -2.765625 8.71875 -2.765625 C 9.863281 -2.765625 10.835938 -3.0625 11.640625 -3.65625 C 12.453125 -4.25 12.972656 -5.101562 13.203125 -6.21875 L 13.359375 -6.984375 L 9.140625 -6.984375 L 9.75 -9.84375 L 17.484375 -9.84375 L 15.390625 0 L 12.03125 0 L 12.53125 -2.390625 L 12.28125 -2.421875 C 11.90625 -1.835938 11.5 -1.347656 11.0625 -0.953125 C 10.632812 -0.566406 10.113281 -0.269531 9.5 -0.0625 C 8.894531 0.144531 8.175781 0.25 7.34375 0.25 Z M 7.34375 0.25 "/></g></g><g style="fill:#d9d9d9;fill-opacity:1;"><g transform="translate(359.912573, 28.288176)"><path style="stroke:none" d="M 13.703125 -9.40625 C 13.390625 -7.90625 12.570312 -6.828125 11.25 -6.171875 C 9.9375 -5.523438 8.328125 -5.203125 6.421875 -5.203125 C 5.742188 -5.203125 5.117188 -5.226562 4.546875 -5.28125 C 4.578125 -4.382812 4.8125 -3.710938 5.25 -3.265625 C 5.6875 -2.828125 6.304688 -2.609375 7.109375 -2.609375 C 7.847656 -2.609375 8.460938 -2.753906 8.953125 -3.046875 C 9.441406 -3.335938 9.890625 -3.785156 10.296875 -4.390625 L 10.546875 -4.390625 L 12.71875 -2.921875 C 12.300781 -2.253906 11.835938 -1.691406 11.328125 -1.234375 C 10.816406 -0.773438 10.164062 -0.410156 9.375 -0.140625 C 8.59375 0.117188 7.632812 0.25 6.5 0.25 C 5.457031 0.25 4.53125 0.03125 3.71875 -0.40625 C 2.914062 -0.851562 2.285156 -1.492188 1.828125 -2.328125 C 1.367188 -3.171875 1.140625 -4.179688 1.140625 -5.359375 C 1.140625 -6.023438 1.21875 -6.726562 1.375 -7.46875 C 1.644531 -8.769531 2.148438 -9.890625 2.890625 -10.828125 C 3.640625 -11.773438 4.539062 -12.492188 5.59375 -12.984375 C 6.644531 -13.472656 7.773438 -13.71875 8.984375 -13.71875 C 10.003906 -13.71875 10.875 -13.5625 11.59375 -13.25 C 12.320312 -12.9375 12.867188 -12.507812 13.234375 -11.96875 C 13.597656 -11.425781 13.78125 -10.828125 13.78125 -10.171875 C 13.78125 -9.890625 13.753906 -9.632812 13.703125 -9.40625 Z M 8.671875 -11.09375 C 8.148438 -11.09375 7.640625 -10.972656 7.140625 -10.734375 C 6.648438 -10.503906 6.207031 -10.148438 5.8125 -9.671875 C 5.414062 -9.191406 5.109375 -8.597656 4.890625 -7.890625 C 5.515625 -7.847656 6.109375 -7.828125 6.671875 -7.828125 C 7.785156 -7.828125 8.664062 -7.960938 9.3125 -8.234375 C 9.96875 -8.515625 10.367188 -9.003906 10.515625 -9.703125 C 10.535156 -9.796875 10.546875 -9.875 10.546875 -9.9375 C 10.546875 -10.28125 10.382812 -10.554688 10.0625 -10.765625 C 9.738281 -10.984375 9.273438 -11.09375 8.671875 -11.09375 Z M 8.671875 -11.09375 "/></g></g><g style="fill:#d9d9d9;fill-opacity:1;"><g transform="translate(374.546521, 28.288176)"><path style="stroke:none" d="M 6.703125 -10.796875 L 5.390625 -4.640625 C 5.347656 -4.410156 5.328125 -4.195312 5.328125 -4 C 5.328125 -3.582031 5.4375 -3.265625 5.65625 -3.046875 C 5.882812 -2.828125 6.203125 -2.71875 6.609375 -2.71875 C 6.910156 -2.71875 7.1875 -2.757812 7.4375 -2.84375 C 7.6875 -2.925781 7.941406 -3.046875 8.203125 -3.203125 L 8.453125 -3.203125 L 8.921875 -0.703125 C 8.492188 -0.390625 8.035156 -0.15625 7.546875 0 C 7.054688 0.164062 6.414062 0.25 5.625 0.25 C 4.882812 0.25 4.234375 0.117188 3.671875 -0.140625 C 3.109375 -0.398438 2.664062 -0.800781 2.34375 -1.34375 C 2.03125 -1.882812 1.875 -2.546875 1.875 -3.328125 C 1.875 -3.773438 1.925781 -4.253906 2.03125 -4.765625 L 3.328125 -10.796875 L 1.265625 -10.796875 L 1.84375 -13.484375 L 3.890625 -13.484375 L 4.453125 -16.09375 L 7.953125 -16.65625 L 7.28125 -13.484375 L 11.09375 -13.484375 L 10.515625 -10.796875 Z M 6.703125 -10.796875 "/></g></g><g style="fill:#d9d9d9;fill-opacity:1;"><g transform="translate(385.006329, 28.288176)"><path style="stroke:none" d=""/></g></g><g style="fill:#d9d9d9;fill-opacity:1;"><g transform="translate(390.901409, 28.288176)"><path style="stroke:none" d="M 0.890625 0 L 4.671875 -17.84375 L 11.46875 -17.84375 C 12.507812 -17.84375 13.40625 -17.679688 14.15625 -17.359375 C 14.90625 -17.046875 15.472656 -16.585938 15.859375 -15.984375 C 16.253906 -15.390625 16.453125 -14.679688 16.453125 -13.859375 C 16.453125 -13.453125 16.40625 -13.023438 16.3125 -12.578125 C 16.09375 -11.554688 15.609375 -10.703125 14.859375 -10.015625 C 14.117188 -9.335938 13.222656 -8.921875 12.171875 -8.765625 L 12.109375 -8.515625 C 12.640625 -8.253906 13.03125 -7.882812 13.28125 -7.40625 C 13.539062 -6.9375 13.722656 -6.242188 13.828125 -5.328125 L 14.046875 -3.484375 L 14.484375 0 L 10.9375 0 L 10.875 -0.5 C 10.8125 -1.039062 10.734375 -1.710938 10.640625 -2.515625 C 10.546875 -3.316406 10.441406 -4.253906 10.328125 -5.328125 C 10.265625 -5.867188 10.148438 -6.285156 9.984375 -6.578125 C 9.816406 -6.878906 9.578125 -7.097656 9.265625 -7.234375 C 8.953125 -7.367188 8.515625 -7.4375 7.953125 -7.4375 L 6 -7.4375 L 4.421875 0 Z M 9.796875 -10.234375 C 10.691406 -10.234375 11.382812 -10.421875 11.875 -10.796875 C 12.363281 -11.179688 12.691406 -11.757812 12.859375 -12.53125 C 12.910156 -12.78125 12.9375 -13.019531 12.9375 -13.25 C 12.9375 -13.851562 12.742188 -14.300781 12.359375 -14.59375 C 11.984375 -14.894531 11.445312 -15.046875 10.75 -15.046875 L 7.625 -15.046875 L 6.59375 -10.234375 Z M 9.796875 -10.234375 "/></g></g><g style="fill:#d9d9d9;fill-opacity:1;"><g transform="translate(407.231853, 28.288176)"><path style="stroke:none" d="M 13.703125 -9.40625 C 13.390625 -7.90625 12.570312 -6.828125 11.25 -6.171875 C 9.9375 -5.523438 8.328125 -5.203125 6.421875 -5.203125 C 5.742188 -5.203125 5.117188 -5.226562 4.546875 -5.28125 C 4.578125 -4.382812 4.8125 -3.710938 5.25 -3.265625 C 5.6875 -2.828125 6.304688 -2.609375 7.109375 -2.609375 C 7.847656 -2.609375 8.460938 -2.753906 8.953125 -3.046875 C 9.441406 -3.335938 9.890625 -3.785156 10.296875 -4.390625 L 10.546875 -4.390625 L 12.71875 -2.921875 C 12.300781 -2.253906 11.835938 -1.691406 11.328125 -1.234375 C 10.816406 -0.773438 10.164062 -0.410156 9.375 -0.140625 C 8.59375 0.117188 7.632812 0.25 6.5 0.25 C 5.457031 0.25 4.53125 0.03125 3.71875 -0.40625 C 2.914062 -0.851562 2.285156 -1.492188 1.828125 -2.328125 C 1.367188 -3.171875 1.140625 -4.179688 1.140625 -5.359375 C 1.140625 -6.023438 1.21875 -6.726562 1.375 -7.46875 C 1.644531 -8.769531 2.148438 -9.890625 2.890625 -10.828125 C 3.640625 -11.773438 4.539062 -12.492188 5.59375 -12.984375 C 6.644531 -13.472656 7.773438 -13.71875 8.984375 -13.71875 C 10.003906 -13.71875 10.875 -13.5625 11.59375 -13.25 C 12.320312 -12.9375 12.867188 -12.507812 13.234375 -11.96875 C 13.597656 -11.425781 13.78125 -10.828125 13.78125 -10.171875 C 13.78125 -9.890625 13.753906 -9.632812 13.703125 -9.40625 Z M 8.671875 -11.09375 C 8.148438 -11.09375 7.640625 -10.972656 7.140625 -10.734375 C 6.648438 -10.503906 6.207031 -10.148438 5.8125 -9.671875 C 5.414062 -9.191406 5.109375 -8.597656 4.890625 -7.890625 C 5.515625 -7.847656 6.109375 -7.828125 6.671875 -7.828125 C 7.785156 -7.828125 8.664062 -7.960938 9.3125 -8.234375 C 9.96875 -8.515625 10.367188 -9.003906 10.515625 -9.703125 C 10.535156 -9.796875 10.546875 -9.875 10.546875 -9.9375 C 10.546875 -10.28125 10.382812 -10.554688 10.0625 -10.765625 C 9.738281 -10.984375 9.273438 -11.09375 8.671875 -11.09375 Z M 8.671875 -11.09375 "/></g></g><g style="fill:#d9d9d9;fill-opacity:1;"><g transform="translate(421.865778, 28.288176)"><path style="stroke:none" d="M 5.359375 0.25 C 4.554688 0.25 3.828125 0.0664062 3.171875 -0.296875 C 2.523438 -0.660156 2.003906 -1.21875 1.609375 -1.96875 C 1.210938 -2.71875 1.015625 -3.648438 1.015625 -4.765625 C 1.015625 -5.472656 1.101562 -6.25 1.28125 -7.09375 C 1.75 -9.269531 2.570312 -10.914062 3.75 -12.03125 C 4.925781 -13.15625 6.382812 -13.71875 8.125 -13.71875 C 8.976562 -13.71875 9.707031 -13.570312 10.3125 -13.28125 C 10.925781 -12.988281 11.378906 -12.539062 11.671875 -11.9375 L 11.9375 -12 L 12.25 -13.484375 L 15.625 -13.484375 L 12.765625 0 L 9.390625 0 L 9.75 -1.75 L 9.515625 -1.796875 C 8.992188 -1.140625 8.394531 -0.632812 7.71875 -0.28125 C 7.050781 0.0703125 6.265625 0.25 5.359375 0.25 Z M 6.875 -2.609375 C 7.8125 -2.609375 8.628906 -2.9375 9.328125 -3.59375 C 10.035156 -4.25 10.523438 -5.210938 10.796875 -6.484375 C 10.910156 -7.085938 10.96875 -7.613281 10.96875 -8.0625 C 10.96875 -8.988281 10.753906 -9.6875 10.328125 -10.15625 C 9.910156 -10.625 9.34375 -10.859375 8.625 -10.859375 C 7.632812 -10.859375 6.804688 -10.535156 6.140625 -9.890625 C 5.484375 -9.242188 5.007812 -8.253906 4.71875 -6.921875 C 4.601562 -6.328125 4.546875 -5.796875 4.546875 -5.328125 C 4.546875 -4.429688 4.75 -3.753906 5.15625 -3.296875 C 5.5625 -2.835938 6.132812 -2.609375 6.875 -2.609375 Z M 6.875 -2.609375 "/></g></g><g style="fill:#d9d9d9;fill-opacity:1;"><g transform="translate(438.000986, 28.288176)"><path style="stroke:none" d="M 5.53125 0.25 C 4.675781 0.25 3.910156 0.0703125 3.234375 -0.28125 C 2.554688 -0.644531 2.019531 -1.203125 1.625 -1.953125 C 1.226562 -2.710938 1.03125 -3.65625 1.03125 -4.78125 C 1.03125 -5.53125 1.128906 -6.367188 1.328125 -7.296875 C 1.773438 -9.390625 2.585938 -10.984375 3.765625 -12.078125 C 4.941406 -13.171875 6.429688 -13.71875 8.234375 -13.71875 C 9.046875 -13.71875 9.738281 -13.550781 10.3125 -13.21875 C 10.882812 -12.894531 11.328125 -12.4375 11.640625 -11.84375 L 11.921875 -11.90625 L 13.40625 -18.875 L 16.78125 -18.875 L 12.765625 0 L 9.390625 0 L 9.734375 -1.625 L 9.5 -1.671875 C 9.007812 -1.035156 8.460938 -0.554688 7.859375 -0.234375 C 7.253906 0.0859375 6.476562 0.25 5.53125 0.25 Z M 6.90625 -2.609375 C 7.863281 -2.609375 8.675781 -2.921875 9.34375 -3.546875 C 10.019531 -4.179688 10.503906 -5.160156 10.796875 -6.484375 C 10.910156 -7.066406 10.96875 -7.582031 10.96875 -8.03125 C 10.96875 -8.976562 10.742188 -9.6875 10.296875 -10.15625 C 9.847656 -10.625 9.273438 -10.859375 8.578125 -10.859375 C 7.609375 -10.859375 6.789062 -10.523438 6.125 -9.859375 C 5.46875 -9.203125 5.003906 -8.238281 4.734375 -6.96875 C 4.609375 -6.363281 4.546875 -5.816406 4.546875 -5.328125 C 4.546875 -4.398438 4.757812 -3.710938 5.1875 -3.265625 C 5.613281 -2.828125 6.1875 -2.609375 6.90625 -2.609375 Z M 6.90625 -2.609375 "/></g></g><g style="fill:#d9d9d9;fill-opacity:1;"><g transform="translate(454.136147, 28.288176)"><path style="stroke:none" d="M 0.390625 5.71875 C -0.179688 5.71875 -0.703125 5.671875 -1.171875 5.578125 C -1.640625 5.484375 -2.003906 5.363281 -2.265625 5.21875 L -1.15625 2.484375 L -0.921875 2.421875 C -0.734375 2.523438 -0.5 2.609375 -0.21875 2.671875 C 0.0625 2.734375 0.363281 2.765625 0.6875 2.765625 C 1.226562 2.765625 1.695312 2.691406 2.09375 2.546875 C 2.488281 2.410156 2.847656 2.175781 3.171875 1.84375 C 3.492188 1.519531 3.8125 1.0625 4.125 0.46875 L 1.71875 -13.46875 L 5.078125 -13.46875 L 6.484375 -4.109375 L 6.78125 -4.109375 L 11.984375 -13.46875 L 15.59375 -13.46875 L 7.1875 1.09375 C 6.53125 2.226562 5.867188 3.128906 5.203125 3.796875 C 4.546875 4.472656 3.828125 4.960938 3.046875 5.265625 C 2.273438 5.566406 1.390625 5.71875 0.390625 5.71875 Z M 0.390625 5.71875 "/></g></g><g style="fill:#49e0e5;fill-opacity:1;"><g transform="translate(39.316408, 62.538267)"><path style="stroke:none" d="M 5.984375 0.3125 C 4.210938 0.3125 2.78125 -0.03125 1.6875 -0.71875 C 0.601562 -1.40625 -0.164062 -2.332031 -0.625 -3.5 L 2.28125 -6.28125 L 2.65625 -6.28125 C 3.300781 -4.34375 4.5 -3.375 6.25 -3.375 C 7.34375 -3.375 8.203125 -3.675781 8.828125 -4.28125 C 9.460938 -4.894531 9.929688 -5.910156 10.234375 -7.328125 L 13.25 -21.421875 L 17.46875 -21.421875 L 14.4375 -7.25 C 14.0625 -5.46875 13.535156 -4.03125 12.859375 -2.9375 C 12.179688 -1.84375 11.285156 -1.023438 10.171875 -0.484375 C 9.066406 0.046875 7.671875 0.3125 5.984375 0.3125 Z M 5.984375 0.3125 "/></g></g><g style="fill:#49e0e5;fill-opacity:1;"><g transform="translate(56.594811, 62.538267)"><path style="stroke:none" d="M 5.75 0.3125 C 4.820312 0.3125 4.039062 0.117188 3.40625 -0.265625 C 2.769531 -0.648438 2.285156 -1.191406 1.953125 -1.890625 C 1.628906 -2.585938 1.46875 -3.390625 1.46875 -4.296875 C 1.46875 -4.859375 1.535156 -5.472656 1.671875 -6.140625 L 3.796875 -16.15625 L 7.859375 -16.15625 L 5.703125 -5.96875 C 5.640625 -5.664062 5.609375 -5.390625 5.609375 -5.140625 C 5.609375 -4.503906 5.789062 -4.007812 6.15625 -3.65625 C 6.53125 -3.300781 7.078125 -3.125 7.796875 -3.125 C 10.097656 -3.125 11.578125 -4.648438 12.234375 -7.703125 L 14.015625 -16.15625 L 18.078125 -16.15625 L 14.65625 0 L 10.75 0 L 11.25 -2.375 L 10.96875 -2.453125 C 10.320312 -1.515625 9.597656 -0.816406 8.796875 -0.359375 C 7.992188 0.0859375 6.976562 0.3125 5.75 0.3125 Z M 5.75 0.3125 "/></g></g><g style="fill:#49e0e5;fill-opacity:1;"><g transform="translate(75.278915, 62.538267)"><path style="stroke:none" d="M 5.875 0.3125 C 4.90625 0.3125 4 0.175781 3.15625 -0.09375 C 2.320312 -0.375 1.609375 -0.75 1.015625 -1.21875 C 0.421875 -1.695312 -0.0195312 -2.226562 -0.3125 -2.8125 L 2.359375 -5.140625 L 2.671875 -5.140625 C 3.054688 -4.421875 3.578125 -3.878906 4.234375 -3.515625 C 4.890625 -3.148438 5.644531 -2.96875 6.5 -2.96875 C 7.40625 -2.96875 8.09375 -3.144531 8.5625 -3.5 C 9.039062 -3.863281 9.28125 -4.375 9.28125 -5.03125 C 9.28125 -5.394531 9.144531 -5.707031 8.875 -5.96875 C 8.613281 -6.238281 8.171875 -6.460938 7.546875 -6.640625 L 5.515625 -7.203125 C 4.515625 -7.492188 3.707031 -7.960938 3.09375 -8.609375 C 2.476562 -9.253906 2.171875 -10.097656 2.171875 -11.140625 C 2.171875 -11.503906 2.210938 -11.90625 2.296875 -12.34375 C 2.566406 -13.644531 3.285156 -14.65625 4.453125 -15.375 C 5.617188 -16.101562 7.160156 -16.46875 9.078125 -16.46875 C 10.429688 -16.46875 11.570312 -16.242188 12.5 -15.796875 C 13.4375 -15.347656 14.144531 -14.765625 14.625 -14.046875 L 12.078125 -11.8125 L 11.78125 -11.8125 C 11.4375 -12.3125 11.007812 -12.675781 10.5 -12.90625 C 9.988281 -13.144531 9.382812 -13.265625 8.6875 -13.265625 C 7.851562 -13.265625 7.21875 -13.148438 6.78125 -12.921875 C 6.34375 -12.691406 6.078125 -12.335938 5.984375 -11.859375 C 5.960938 -11.742188 5.953125 -11.660156 5.953125 -11.609375 C 5.953125 -11.265625 6.101562 -10.960938 6.40625 -10.703125 C 6.707031 -10.453125 7.132812 -10.253906 7.6875 -10.109375 L 9.53125 -9.625 C 12.03125 -8.976562 13.28125 -7.660156 13.28125 -5.671875 C 13.28125 -5.253906 13.234375 -4.828125 13.140625 -4.390625 C 12.785156 -2.816406 12.03125 -1.640625 10.875 -0.859375 C 9.726562 -0.078125 8.0625 0.3125 5.875 0.3125 Z M 5.875 0.3125 "/></g></g><g style="fill:#49e0e5;fill-opacity:1;"><g transform="translate(90.170561, 62.538267)"><path style="stroke:none" d="M 8.046875 -12.953125 L 6.46875 -5.5625 C 6.414062 -5.289062 6.390625 -5.039062 6.390625 -4.8125 C 6.390625 -4.3125 6.519531 -3.925781 6.78125 -3.65625 C 7.050781 -3.394531 7.4375 -3.265625 7.9375 -3.265625 C 8.289062 -3.265625 8.617188 -3.3125 8.921875 -3.40625 C 9.222656 -3.507812 9.53125 -3.660156 9.84375 -3.859375 L 10.15625 -3.859375 L 10.703125 -0.84375 C 10.203125 -0.46875 9.65625 -0.179688 9.0625 0.015625 C 8.46875 0.210938 7.695312 0.3125 6.75 0.3125 C 5.863281 0.3125 5.082031 0.15625 4.40625 -0.15625 C 3.738281 -0.476562 3.210938 -0.960938 2.828125 -1.609375 C 2.441406 -2.253906 2.25 -3.046875 2.25 -3.984375 C 2.25 -4.535156 2.316406 -5.113281 2.453125 -5.71875 L 3.984375 -12.953125 L 1.53125 -12.953125 L 2.21875 -16.171875 L 4.671875 -16.171875 L 5.34375 -19.328125 L 9.53125 -19.984375 L 8.734375 -16.171875 L 13.3125 -16.171875 L 12.625 -12.953125 Z M 8.046875 -12.953125 "/></g></g><g style="fill:#49e0e5;fill-opacity:1;"><g transform="translate(102.719373, 62.538267)"><path style="stroke:none" d=""/></g></g><g style="fill:#49e0e5;fill-opacity:1;"><g transform="translate(109.79181, 62.538267)"><path style="stroke:none" d="M 13.453125 -21.421875 C 14.773438 -21.421875 15.910156 -21.203125 16.859375 -20.765625 C 17.816406 -20.328125 18.546875 -19.703125 19.046875 -18.890625 C 19.554688 -18.085938 19.8125 -17.132812 19.8125 -16.03125 C 19.8125 -15.445312 19.742188 -14.859375 19.609375 -14.265625 C 19.148438 -12.148438 18.238281 -10.570312 16.875 -9.53125 C 15.507812 -8.5 13.5625 -7.984375 11.03125 -7.984375 L 7 -7.984375 L 5.296875 0 L 1.0625 0 L 5.609375 -21.421875 Z M 15.421875 -14.625 C 15.503906 -15.007812 15.546875 -15.34375 15.546875 -15.625 C 15.546875 -16.425781 15.285156 -17.03125 14.765625 -17.4375 C 14.253906 -17.851562 13.503906 -18.0625 12.515625 -18.0625 L 9.125 -18.0625 L 7.703125 -11.34375 L 11.1875 -11.34375 C 12.40625 -11.34375 13.359375 -11.613281 14.046875 -12.15625 C 14.734375 -12.695312 15.191406 -13.519531 15.421875 -14.625 Z M 15.421875 -14.625 "/></g></g><g style="fill:#49e0e5;fill-opacity:1;"><g transform="translate(128.505086, 62.538267)"><path style="stroke:none" d="M 6.4375 0.3125 C 5.476562 0.3125 4.601562 0.09375 3.8125 -0.34375 C 3.03125 -0.789062 2.398438 -1.460938 1.921875 -2.359375 C 1.453125 -3.265625 1.21875 -4.382812 1.21875 -5.71875 C 1.21875 -6.570312 1.320312 -7.503906 1.53125 -8.515625 C 2.09375 -11.117188 3.082031 -13.09375 4.5 -14.4375 C 5.914062 -15.789062 7.664062 -16.46875 9.75 -16.46875 C 10.78125 -16.46875 11.660156 -16.289062 12.390625 -15.9375 C 13.117188 -15.582031 13.65625 -15.046875 14 -14.328125 L 14.328125 -14.40625 L 14.6875 -16.171875 L 18.75 -16.171875 L 15.328125 0 L 11.265625 0 L 11.703125 -2.09375 L 11.40625 -2.15625 C 10.78125 -1.375 10.066406 -0.765625 9.265625 -0.328125 C 8.472656 0.0976562 7.53125 0.3125 6.4375 0.3125 Z M 8.25 -3.140625 C 9.382812 -3.140625 10.367188 -3.53125 11.203125 -4.3125 C 12.046875 -5.101562 12.628906 -6.257812 12.953125 -7.78125 C 13.097656 -8.5 13.171875 -9.132812 13.171875 -9.6875 C 13.171875 -10.789062 12.914062 -11.617188 12.40625 -12.171875 C 11.894531 -12.734375 11.210938 -13.015625 10.359375 -13.015625 C 9.160156 -13.015625 8.164062 -12.628906 7.375 -11.859375 C 6.582031 -11.085938 6.015625 -9.90625 5.671875 -8.3125 C 5.523438 -7.59375 5.453125 -6.953125 5.453125 -6.390625 C 5.453125 -5.328125 5.695312 -4.519531 6.1875 -3.96875 C 6.675781 -3.414062 7.363281 -3.140625 8.25 -3.140625 Z M 8.25 -3.140625 "/></g></g><g style="fill:#49e0e5;fill-opacity:1;"><g transform="translate(147.862754, 62.538267)"><path style="stroke:none" d="M 0.46875 6.859375 C -0.226562 6.859375 -0.851562 6.800781 -1.40625 6.6875 C -1.96875 6.582031 -2.40625 6.441406 -2.71875 6.265625 L -1.390625 2.984375 L -1.109375 2.90625 C -0.890625 3.03125 -0.609375 3.128906 -0.265625 3.203125 C 0.078125 3.285156 0.441406 3.328125 0.828125 3.328125 C 1.472656 3.328125 2.03125 3.238281 2.5 3.0625 C 2.976562 2.894531 3.410156 2.613281 3.796875 2.21875 C 4.179688 1.820312 4.566406 1.273438 4.953125 0.578125 L 2.0625 -16.15625 L 6.09375 -16.15625 L 7.78125 -4.921875 L 8.125 -4.921875 L 14.390625 -16.15625 L 18.71875 -16.15625 L 8.625 1.296875 C 7.832031 2.671875 7.035156 3.757812 6.234375 4.5625 C 5.441406 5.363281 4.582031 5.945312 3.65625 6.3125 C 2.726562 6.675781 1.664062 6.859375 0.46875 6.859375 Z M 0.46875 6.859375 "/></g></g><g style="fill:#49e0e5;fill-opacity:1;"><g transform="translate(165.199728, 62.538267)"><path style="stroke:none" d=""/></g></g><g style="fill:#49e0e5;fill-opacity:1;"><g transform="translate(172.272165, 62.538267)"><path style="stroke:none" d="M 5.296875 0 L 1.0625 0 L 5.609375 -21.421875 L 9.84375 -21.421875 Z M 5.296875 0 "/></g></g><g style="fill:#49e0e5;fill-opacity:1;"><g transform="translate(182.068147, 62.538267)"><path style="stroke:none" d="M 0.609375 0 L 4.046875 -16.15625 L 7.9375 -16.15625 L 7.4375 -13.78125 L 7.71875 -13.71875 C 8.320312 -14.625 9.039062 -15.304688 9.875 -15.765625 C 10.71875 -16.234375 11.726562 -16.46875 12.90625 -16.46875 C 14.382812 -16.46875 15.515625 -16.0625 16.296875 -15.25 C 17.078125 -14.445312 17.46875 -13.332031 17.46875 -11.90625 C 17.46875 -11.300781 17.390625 -10.640625 17.234375 -9.921875 L 15.125 0 L 11.078125 0 L 13.203125 -10 C 13.265625 -10.300781 13.296875 -10.609375 13.296875 -10.921875 C 13.296875 -11.597656 13.097656 -12.117188 12.703125 -12.484375 C 12.316406 -12.847656 11.742188 -13.03125 10.984375 -13.03125 C 9.859375 -13.03125 8.90625 -12.65625 8.125 -11.90625 C 7.34375 -11.15625 6.785156 -9.972656 6.453125 -8.359375 L 4.671875 0 Z M 0.609375 0 "/></g></g><g style="fill:#49e0e5;fill-opacity:1;"><g transform="translate(200.986534, 62.538267)"><path style="stroke:none" d="M 6.640625 0.3125 C 5.609375 0.3125 4.6875 0.09375 3.875 -0.34375 C 3.070312 -0.78125 2.429688 -1.445312 1.953125 -2.34375 C 1.484375 -3.25 1.25 -4.382812 1.25 -5.75 C 1.25 -6.644531 1.363281 -7.648438 1.59375 -8.765625 C 2.132812 -11.273438 3.109375 -13.1875 4.515625 -14.5 C 5.929688 -15.8125 7.71875 -16.46875 9.875 -16.46875 C 10.863281 -16.46875 11.695312 -16.269531 12.375 -15.875 C 13.0625 -15.476562 13.59375 -14.921875 13.96875 -14.203125 L 14.296875 -14.28125 L 16.078125 -22.640625 L 20.140625 -22.640625 L 15.328125 0 L 11.265625 0 L 11.6875 -1.953125 L 11.390625 -2 C 10.804688 -1.238281 10.148438 -0.660156 9.421875 -0.265625 C 8.703125 0.117188 7.773438 0.3125 6.640625 0.3125 Z M 8.296875 -3.140625 C 9.429688 -3.140625 10.40625 -3.515625 11.21875 -4.265625 C 12.03125 -5.023438 12.609375 -6.195312 12.953125 -7.78125 C 13.097656 -8.476562 13.171875 -9.097656 13.171875 -9.640625 C 13.171875 -10.773438 12.898438 -11.617188 12.359375 -12.171875 C 11.828125 -12.734375 11.140625 -13.015625 10.296875 -13.015625 C 9.140625 -13.015625 8.160156 -12.617188 7.359375 -11.828125 C 6.566406 -11.046875 6.007812 -9.890625 5.6875 -8.359375 C 5.53125 -7.640625 5.453125 -6.984375 5.453125 -6.390625 C 5.453125 -5.273438 5.707031 -4.453125 6.21875 -3.921875 C 6.726562 -3.398438 7.421875 -3.140625 8.296875 -3.140625 Z M 8.296875 -3.140625 "/></g></g><g style="fill:#49e0e5;fill-opacity:1;"><g transform="translate(220.344203, 62.538267)"><path style="stroke:none" d="M 6.984375 -18.09375 C 6.253906 -18.09375 5.660156 -18.3125 5.203125 -18.75 C 4.742188 -19.195312 4.515625 -19.773438 4.515625 -20.484375 C 4.515625 -21.171875 4.742188 -21.738281 5.203125 -22.1875 C 5.660156 -22.632812 6.253906 -22.859375 6.984375 -22.859375 C 7.472656 -22.859375 7.90625 -22.753906 8.28125 -22.546875 C 8.664062 -22.335938 8.960938 -22.054688 9.171875 -21.703125 C 9.390625 -21.347656 9.5 -20.941406 9.5 -20.484375 C 9.5 -20.023438 9.390625 -19.613281 9.171875 -19.25 C 8.960938 -18.882812 8.664062 -18.597656 8.28125 -18.390625 C 7.90625 -18.191406 7.472656 -18.09375 6.984375 -18.09375 Z M 0.609375 0 L 4.0625 -16.15625 L 8.109375 -16.15625 L 4.671875 0 Z M 0.609375 0 "/></g></g><g style="fill:#49e0e5;fill-opacity:1;"><g transform="translate(229.041975, 62.538267)"><path style="stroke:none" d="M 6.4375 0.3125 C 5.476562 0.3125 4.601562 0.09375 3.8125 -0.34375 C 3.03125 -0.789062 2.398438 -1.460938 1.921875 -2.359375 C 1.453125 -3.265625 1.21875 -4.382812 1.21875 -5.71875 C 1.21875 -6.570312 1.320312 -7.503906 1.53125 -8.515625 C 2.09375 -11.117188 3.082031 -13.09375 4.5 -14.4375 C 5.914062 -15.789062 7.664062 -16.46875 9.75 -16.46875 C 10.78125 -16.46875 11.660156 -16.289062 12.390625 -15.9375 C 13.117188 -15.582031 13.65625 -15.046875 14 -14.328125 L 14.328125 -14.40625 L 14.6875 -16.171875 L 18.75 -16.171875 L 15.328125 0 L 11.265625 0 L 11.703125 -2.09375 L 11.40625 -2.15625 C 10.78125 -1.375 10.066406 -0.765625 9.265625 -0.328125 C 8.472656 0.0976562 7.53125 0.3125 6.4375 0.3125 Z M 8.25 -3.140625 C 9.382812 -3.140625 10.367188 -3.53125 11.203125 -4.3125 C 12.046875 -5.101562 12.628906 -6.257812 12.953125 -7.78125 C 13.097656 -8.5 13.171875 -9.132812 13.171875 -9.6875 C 13.171875 -10.789062 12.914062 -11.617188 12.40625 -12.171875 C 11.894531 -12.734375 11.210938 -13.015625 10.359375 -13.015625 C 9.160156 -13.015625 8.164062 -12.628906 7.375 -11.859375 C 6.582031 -11.085938 6.015625 -9.90625 5.671875 -8.3125 C 5.523438 -7.59375 5.453125 -6.953125 5.453125 -6.390625 C 5.453125 -5.328125 5.695312 -4.519531 6.1875 -3.96875 C 6.675781 -3.414062 7.363281 -3.140625 8.25 -3.140625 Z M 8.25 -3.140625 "/></g></g><g style="fill:#49e0e5;fill-opacity:1;"><g transform="translate(248.399632, 62.538267)"><path style="stroke:none" d="M 0.609375 0 L 4.046875 -16.15625 L 7.9375 -16.15625 L 7.4375 -13.78125 L 7.71875 -13.71875 C 8.320312 -14.625 9.039062 -15.304688 9.875 -15.765625 C 10.71875 -16.234375 11.726562 -16.46875 12.90625 -16.46875 C 14.382812 -16.46875 15.515625 -16.0625 16.296875 -15.25 C 17.078125 -14.445312 17.46875 -13.332031 17.46875 -11.90625 C 17.46875 -11.300781 17.390625 -10.640625 17.234375 -9.921875 L 15.125 0 L 11.078125 0 L 13.203125 -10 C 13.265625 -10.300781 13.296875 -10.609375 13.296875 -10.921875 C 13.296875 -11.597656 13.097656 -12.117188 12.703125 -12.484375 C 12.316406 -12.847656 11.742188 -13.03125 10.984375 -13.03125 C 9.859375 -13.03125 8.90625 -12.65625 8.125 -11.90625 C 7.34375 -11.15625 6.785156 -9.972656 6.453125 -8.359375 L 4.671875 0 Z M 0.609375 0 "/></g></g><g style="fill:#49e0e5;fill-opacity:1;"><g transform="translate(267.318042, 62.538267)"><path style="stroke:none" d=""/></g></g><g style="fill:#49e0e5;fill-opacity:1;"><g transform="translate(274.390468, 62.538267)"><path style="stroke:none" d="M 1.0625 0 L 5.609375 -21.421875 L 13.765625 -21.421875 C 15.015625 -21.421875 16.085938 -21.226562 16.984375 -20.84375 C 17.890625 -20.46875 18.578125 -19.921875 19.046875 -19.203125 C 19.515625 -18.484375 19.75 -17.625 19.75 -16.625 C 19.75 -16.144531 19.691406 -15.632812 19.578125 -15.09375 C 19.316406 -13.863281 18.738281 -12.835938 17.84375 -12.015625 C 16.957031 -11.203125 15.878906 -10.703125 14.609375 -10.515625 L 14.53125 -10.203125 C 15.164062 -9.898438 15.632812 -9.460938 15.9375 -8.890625 C 16.25 -8.328125 16.46875 -7.492188 16.59375 -6.390625 L 16.859375 -4.171875 L 17.390625 0 L 13.125 0 L 13.046875 -0.59375 C 12.972656 -1.238281 12.878906 -2.046875 12.765625 -3.015625 C 12.648438 -3.984375 12.523438 -5.113281 12.390625 -6.40625 C 12.316406 -7.050781 12.179688 -7.550781 11.984375 -7.90625 C 11.785156 -8.257812 11.492188 -8.515625 11.109375 -8.671875 C 10.734375 -8.835938 10.210938 -8.921875 9.546875 -8.921875 L 7.1875 -8.921875 L 5.296875 0 Z M 11.765625 -12.28125 C 12.835938 -12.28125 13.664062 -12.507812 14.25 -12.96875 C 14.832031 -13.425781 15.222656 -14.113281 15.421875 -15.03125 C 15.492188 -15.332031 15.53125 -15.625 15.53125 -15.90625 C 15.53125 -16.632812 15.300781 -17.175781 14.84375 -17.53125 C 14.394531 -17.882812 13.75 -18.0625 12.90625 -18.0625 L 9.140625 -18.0625 L 7.90625 -12.28125 Z M 11.765625 -12.28125 "/></g></g><g style="fill:#49e0e5;fill-opacity:1;"><g transform="translate(294.407076, 62.538267)"><path style="stroke:none" d="M 5.75 0.3125 C 4.820312 0.3125 4.039062 0.117188 3.40625 -0.265625 C 2.769531 -0.648438 2.285156 -1.191406 1.953125 -1.890625 C 1.628906 -2.585938 1.46875 -3.390625 1.46875 -4.296875 C 1.46875 -4.859375 1.535156 -5.472656 1.671875 -6.140625 L 3.796875 -16.15625 L 7.859375 -16.15625 L 5.703125 -5.96875 C 5.640625 -5.664062 5.609375 -5.390625 5.609375 -5.140625 C 5.609375 -4.503906 5.789062 -4.007812 6.15625 -3.65625 C 6.53125 -3.300781 7.078125 -3.125 7.796875 -3.125 C 10.097656 -3.125 11.578125 -4.648438 12.234375 -7.703125 L 14.015625 -16.15625 L 18.078125 -16.15625 L 14.65625 0 L 10.75 0 L 11.25 -2.375 L 10.96875 -2.453125 C 10.320312 -1.515625 9.597656 -0.816406 8.796875 -0.359375 C 7.992188 0.0859375 6.976562 0.3125 5.75 0.3125 Z M 5.75 0.3125 "/></g></g><g style="fill:#49e0e5;fill-opacity:1;"><g transform="translate(313.091156, 62.538267)"><path style="stroke:none" d="M -0.78125 6.546875 L 4.046875 -16.15625 L 8.09375 -16.15625 L 7.6875 -14.1875 L 7.984375 -14.140625 C 8.597656 -14.921875 9.3125 -15.503906 10.125 -15.890625 C 10.9375 -16.273438 11.867188 -16.46875 12.921875 -16.46875 C 13.992188 -16.46875 14.921875 -16.234375 15.703125 -15.765625 C 16.484375 -15.304688 17.082031 -14.625 17.5 -13.71875 C 17.914062 -12.820312 18.125 -11.734375 18.125 -10.453125 C 18.125 -9.453125 18.003906 -8.414062 17.765625 -7.34375 C 17.242188 -4.851562 16.273438 -2.953125 14.859375 -1.640625 C 13.441406 -0.335938 11.617188 0.3125 9.390625 0.3125 C 8.429688 0.3125 7.613281 0.125 6.9375 -0.25 C 6.269531 -0.625 5.742188 -1.128906 5.359375 -1.765625 L 5.046875 -1.71875 L 3.28125 6.546875 Z M 9.09375 -3.140625 C 11.476562 -3.140625 12.992188 -4.640625 13.640625 -7.640625 C 13.804688 -8.453125 13.890625 -9.148438 13.890625 -9.734375 C 13.890625 -10.835938 13.632812 -11.660156 13.125 -12.203125 C 12.613281 -12.742188 11.894531 -13.015625 10.96875 -13.015625 C 9.863281 -13.015625 8.910156 -12.625 8.109375 -11.84375 C 7.304688 -11.070312 6.75 -9.960938 6.4375 -8.515625 C 6.28125 -7.785156 6.203125 -7.125 6.203125 -6.53125 C 6.203125 -5.394531 6.460938 -4.546875 6.984375 -3.984375 C 7.515625 -3.421875 8.21875 -3.140625 9.09375 -3.140625 Z M 9.09375 -3.140625 "/></g></g><g style="fill:#49e0e5;fill-opacity:1;"><g transform="translate(332.434188, 62.538267)"><path style="stroke:none" d="M 16.4375 -11.28125 C 16.0625 -9.476562 15.082031 -8.1875 13.5 -7.40625 C 11.925781 -6.625 9.992188 -6.234375 7.703125 -6.234375 C 6.890625 -6.234375 6.140625 -6.269531 5.453125 -6.34375 C 5.492188 -5.269531 5.773438 -4.46875 6.296875 -3.9375 C 6.828125 -3.40625 7.570312 -3.140625 8.53125 -3.140625 C 9.414062 -3.140625 10.148438 -3.3125 10.734375 -3.65625 C 11.316406 -4.007812 11.851562 -4.550781 12.34375 -5.28125 L 12.65625 -5.28125 L 15.265625 -3.5 C 14.765625 -2.695312 14.207031 -2.019531 13.59375 -1.46875 C 12.976562 -0.925781 12.195312 -0.492188 11.25 -0.171875 C 10.3125 0.148438 9.160156 0.3125 7.796875 0.3125 C 6.554688 0.3125 5.445312 0.046875 4.46875 -0.484375 C 3.5 -1.023438 2.738281 -1.800781 2.1875 -2.8125 C 1.632812 -3.820312 1.359375 -5.03125 1.359375 -6.4375 C 1.359375 -7.226562 1.453125 -8.070312 1.640625 -8.96875 C 1.972656 -10.53125 2.582031 -11.875 3.46875 -13 C 4.363281 -14.125 5.441406 -14.984375 6.703125 -15.578125 C 7.972656 -16.171875 9.332031 -16.46875 10.78125 -16.46875 C 12.007812 -16.46875 13.054688 -16.28125 13.921875 -15.90625 C 14.785156 -15.53125 15.4375 -15.015625 15.875 -14.359375 C 16.3125 -13.710938 16.53125 -12.992188 16.53125 -12.203125 C 16.53125 -11.867188 16.5 -11.5625 16.4375 -11.28125 Z M 10.40625 -13.3125 C 9.78125 -13.3125 9.171875 -13.171875 8.578125 -12.890625 C 7.984375 -12.609375 7.445312 -12.179688 6.96875 -11.609375 C 6.488281 -11.035156 6.125 -10.328125 5.875 -9.484375 C 6.625 -9.421875 7.335938 -9.390625 8.015625 -9.390625 C 9.335938 -9.390625 10.390625 -9.554688 11.171875 -9.890625 C 11.960938 -10.222656 12.445312 -10.804688 12.625 -11.640625 C 12.644531 -11.765625 12.65625 -11.859375 12.65625 -11.921875 C 12.65625 -12.335938 12.457031 -12.671875 12.0625 -12.921875 C 11.675781 -13.179688 11.125 -13.3125 10.40625 -13.3125 Z M 10.40625 -13.3125 "/></g></g><g style="fill:#49e0e5;fill-opacity:1;"><g transform="translate(349.99082, 62.538267)"><path style="stroke:none" d="M 16.4375 -11.28125 C 16.0625 -9.476562 15.082031 -8.1875 13.5 -7.40625 C 11.925781 -6.625 9.992188 -6.234375 7.703125 -6.234375 C 6.890625 -6.234375 6.140625 -6.269531 5.453125 -6.34375 C 5.492188 -5.269531 5.773438 -4.46875 6.296875 -3.9375 C 6.828125 -3.40625 7.570312 -3.140625 8.53125 -3.140625 C 9.414062 -3.140625 10.148438 -3.3125 10.734375 -3.65625 C 11.316406 -4.007812 11.851562 -4.550781 12.34375 -5.28125 L 12.65625 -5.28125 L 15.265625 -3.5 C 14.765625 -2.695312 14.207031 -2.019531 13.59375 -1.46875 C 12.976562 -0.925781 12.195312 -0.492188 11.25 -0.171875 C 10.3125 0.148438 9.160156 0.3125 7.796875 0.3125 C 6.554688 0.3125 5.445312 0.046875 4.46875 -0.484375 C 3.5 -1.023438 2.738281 -1.800781 2.1875 -2.8125 C 1.632812 -3.820312 1.359375 -5.03125 1.359375 -6.4375 C 1.359375 -7.226562 1.453125 -8.070312 1.640625 -8.96875 C 1.972656 -10.53125 2.582031 -11.875 3.46875 -13 C 4.363281 -14.125 5.441406 -14.984375 6.703125 -15.578125 C 7.972656 -16.171875 9.332031 -16.46875 10.78125 -16.46875 C 12.007812 -16.46875 13.054688 -16.28125 13.921875 -15.90625 C 14.785156 -15.53125 15.4375 -15.015625 15.875 -14.359375 C 16.3125 -13.710938 16.53125 -12.992188 16.53125 -12.203125 C 16.53125 -11.867188 16.5 -11.5625 16.4375 -11.28125 Z M 10.40625 -13.3125 C 9.78125 -13.3125 9.171875 -13.171875 8.578125 -12.890625 C 7.984375 -12.609375 7.445312 -12.179688 6.96875 -11.609375 C 6.488281 -11.035156 6.125 -10.328125 5.875 -9.484375 C 6.625 -9.421875 7.335938 -9.390625 8.015625 -9.390625 C 9.335938 -9.390625 10.390625 -9.554688 11.171875 -9.890625 C 11.960938 -10.222656 12.445312 -10.804688 12.625 -11.640625 C 12.644531 -11.765625 12.65625 -11.859375 12.65625 -11.921875 C 12.65625 -12.335938 12.457031 -12.671875 12.0625 -12.921875 C 11.675781 -13.179688 11.125 -13.3125 10.40625 -13.3125 Z M 10.40625 -13.3125 "/></g></g><g style="fill:#49e0e5;fill-opacity:1;"><g transform="translate(367.547452, 62.538267)"><path style="stroke:none" d="M 5.875 0.3125 C 4.90625 0.3125 4 0.175781 3.15625 -0.09375 C 2.320312 -0.375 1.609375 -0.75 1.015625 -1.21875 C 0.421875 -1.695312 -0.0195312 -2.226562 -0.3125 -2.8125 L 2.359375 -5.140625 L 2.671875 -5.140625 C 3.054688 -4.421875 3.578125 -3.878906 4.234375 -3.515625 C 4.890625 -3.148438 5.644531 -2.96875 6.5 -2.96875 C 7.40625 -2.96875 8.09375 -3.144531 8.5625 -3.5 C 9.039062 -3.863281 9.28125 -4.375 9.28125 -5.03125 C 9.28125 -5.394531 9.144531 -5.707031 8.875 -5.96875 C 8.613281 -6.238281 8.171875 -6.460938 7.546875 -6.640625 L 5.515625 -7.203125 C 4.515625 -7.492188 3.707031 -7.960938 3.09375 -8.609375 C 2.476562 -9.253906 2.171875 -10.097656 2.171875 -11.140625 C 2.171875 -11.503906 2.210938 -11.90625 2.296875 -12.34375 C 2.566406 -13.644531 3.285156 -14.65625 4.453125 -15.375 C 5.617188 -16.101562 7.160156 -16.46875 9.078125 -16.46875 C 10.429688 -16.46875 11.570312 -16.242188 12.5 -15.796875 C 13.4375 -15.347656 14.144531 -14.765625 14.625 -14.046875 L 12.078125 -11.8125 L 11.78125 -11.8125 C 11.4375 -12.3125 11.007812 -12.675781 10.5 -12.90625 C 9.988281 -13.144531 9.382812 -13.265625 8.6875 -13.265625 C 7.851562 -13.265625 7.21875 -13.148438 6.78125 -12.921875 C 6.34375 -12.691406 6.078125 -12.335938 5.984375 -11.859375 C 5.960938 -11.742188 5.953125 -11.660156 5.953125 -11.609375 C 5.953125 -11.265625 6.101562 -10.960938 6.40625 -10.703125 C 6.707031 -10.453125 7.132812 -10.253906 7.6875 -10.109375 L 9.53125 -9.625 C 12.03125 -8.976562 13.28125 -7.660156 13.28125 -5.671875 C 13.28125 -5.253906 13.234375 -4.828125 13.140625 -4.390625 C 12.785156 -2.816406 12.03125 -1.640625 10.875 -0.859375 C 9.726562 -0.078125 8.0625 0.3125 5.875 0.3125 Z M 5.875 0.3125 "/></g></g><g style="fill:#49e0e5;fill-opacity:1;"><g transform="translate(382.439099, 62.538267)"><path style="stroke:none" d="M 2.90625 0.125 C 2.382812 0.125 1.925781 0.0195312 1.53125 -0.1875 C 1.132812 -0.394531 0.832031 -0.679688 0.625 -1.046875 C 0.414062 -1.421875 0.3125 -1.84375 0.3125 -2.3125 C 0.3125 -2.78125 0.414062 -3.195312 0.625 -3.5625 C 0.832031 -3.9375 1.132812 -4.234375 1.53125 -4.453125 C 1.925781 -4.671875 2.382812 -4.78125 2.90625 -4.78125 C 3.425781 -4.78125 3.882812 -4.671875 4.28125 -4.453125 C 4.675781 -4.242188 4.976562 -3.953125 5.1875 -3.578125 C 5.40625 -3.210938 5.515625 -2.796875 5.515625 -2.328125 C 5.515625 -1.617188 5.273438 -1.03125 4.796875 -0.5625 C 4.328125 -0.101562 3.695312 0.125 2.90625 0.125 Z M 5.359375 -11.421875 C 4.835938 -11.421875 4.378906 -11.523438 3.984375 -11.734375 C 3.585938 -11.941406 3.285156 -12.226562 3.078125 -12.59375 C 2.867188 -12.96875 2.765625 -13.390625 2.765625 -13.859375 C 2.765625 -14.328125 2.867188 -14.742188 3.078125 -15.109375 C 3.285156 -15.484375 3.585938 -15.78125 3.984375 -16 C 4.378906 -16.21875 4.835938 -16.328125 5.359375 -16.328125 C 5.878906 -16.328125 6.335938 -16.21875 6.734375 -16 C 7.128906 -15.789062 7.429688 -15.5 7.640625 -15.125 C 7.859375 -14.757812 7.96875 -14.34375 7.96875 -13.875 C 7.96875 -13.164062 7.726562 -12.578125 7.25 -12.109375 C 6.78125 -11.648438 6.148438 -11.421875 5.359375 -11.421875 Z M 5.359375 -11.421875 "/></g></g><g style="fill:#49e0e5;fill-opacity:1;"><g transform="translate(390.712215, 62.538267)"><path style="stroke:none" d=""/></g></g><g style="fill:#49e0e5;fill-opacity:1;"><g transform="translate(397.784664, 62.538267)"><path style="stroke:none" d="M -0.59375 0 L 0.140625 -3.5 L 5.3125 -3.5 L 8.15625 -16.828125 L 7.84375 -16.921875 C 6.632812 -16.160156 5.007812 -15.71875 2.96875 -15.59375 L 3.734375 -19.21875 C 6.179688 -19.632812 8.257812 -20.367188 9.96875 -21.421875 L 13.3125 -21.421875 L 9.5 -3.5 L 14.125 -3.5 L 13.390625 0 Z M -0.59375 0 "/></g></g><g style="fill:#49e0e5;fill-opacity:1;"><g transform="translate(413.027644, 62.538267)"><path style="stroke:none" d="M 8.96875 0.3125 C 7.5625 0.3125 6.335938 0.0351562 5.296875 -0.515625 C 4.265625 -1.078125 3.460938 -1.929688 2.890625 -3.078125 C 2.316406 -4.222656 2.03125 -5.644531 2.03125 -7.34375 C 2.03125 -8.59375 2.1875 -9.953125 2.5 -11.421875 C 3.25 -14.910156 4.5 -17.5 6.25 -19.1875 C 8 -20.875 10.269531 -21.71875 13.0625 -21.71875 C 14.46875 -21.71875 15.691406 -21.4375 16.734375 -20.875 C 17.773438 -20.320312 18.582031 -19.472656 19.15625 -18.328125 C 19.726562 -17.191406 20.015625 -15.773438 20.015625 -14.078125 C 20.015625 -12.828125 19.859375 -11.460938 19.546875 -9.984375 C 18.796875 -6.503906 17.546875 -3.914062 15.796875 -2.21875 C 14.046875 -0.53125 11.769531 0.3125 8.96875 0.3125 Z M 9.578125 -3.28125 C 10.953125 -3.28125 12.128906 -3.859375 13.109375 -5.015625 C 14.097656 -6.171875 14.867188 -8.066406 15.421875 -10.703125 C 15.679688 -11.890625 15.8125 -12.945312 15.8125 -13.875 C 15.8125 -15.34375 15.503906 -16.421875 14.890625 -17.109375 C 14.285156 -17.796875 13.472656 -18.140625 12.453125 -18.140625 C 9.609375 -18.140625 7.660156 -15.660156 6.609375 -10.703125 C 6.347656 -9.523438 6.21875 -8.472656 6.21875 -7.546875 C 6.21875 -6.066406 6.519531 -4.984375 7.125 -4.296875 C 7.738281 -3.617188 8.554688 -3.28125 9.578125 -3.28125 Z M 9.578125 -3.28125 "/></g></g><g style="fill:#49e0e5;fill-opacity:1;"><g transform="translate(433.468851, 62.538267)"><path style="stroke:none" d="M 1.75 3.0625 L -2.28125 3.0625 L 11 -22.640625 L 15.046875 -22.640625 Z M 1.75 3.0625 "/></g></g><g style="fill:#49e0e5;fill-opacity:1;"><g transform="translate(446.046914, 62.538267)"><path style="stroke:none" d="M 10.390625 -8.609375 L 1.40625 -8.609375 L 2.171875 -12.1875 L 11.140625 -12.1875 Z M 10.390625 -8.609375 "/></g></g><g style="fill:#49e0e5;fill-opacity:1;"><g transform="translate(457.605451, 62.538267)"><path style="stroke:none" d=""/></g></g><g style="fill:#49e0e5;fill-opacity:1;"><g transform="translate(60.738281, 103.788265)"><path style="stroke:none" d="M 6.96875 0.3125 C 5.65625 0.3125 4.519531 0.0820312 3.5625 -0.375 C 2.613281 -0.832031 1.882812 -1.472656 1.375 -2.296875 C 0.875 -3.128906 0.625 -4.109375 0.625 -5.234375 C 0.625 -5.816406 0.691406 -6.40625 0.828125 -7 C 0.984375 -7.726562 1.289062 -8.4375 1.75 -9.125 C 2.21875 -9.8125 2.828125 -10.425781 3.578125 -10.96875 C 4.328125 -11.507812 5.191406 -11.9375 6.171875 -12.25 L 6.265625 -12.546875 C 5.929688 -13.148438 5.679688 -13.707031 5.515625 -14.21875 C 5.359375 -14.726562 5.28125 -15.265625 5.28125 -15.828125 C 5.28125 -16.242188 5.328125 -16.675781 5.421875 -17.125 C 5.710938 -18.488281 6.398438 -19.59375 7.484375 -20.4375 C 8.578125 -21.289062 10.085938 -21.71875 12.015625 -21.71875 C 13.566406 -21.71875 14.773438 -21.375 15.640625 -20.6875 C 16.503906 -20 16.9375 -19.019531 16.9375 -17.75 C 16.9375 -17.3125 16.882812 -16.867188 16.78125 -16.421875 C 16.539062 -15.242188 15.988281 -14.257812 15.125 -13.46875 C 14.269531 -12.675781 13.003906 -11.972656 11.328125 -11.359375 L 11.234375 -11.046875 L 13.953125 -6.25 C 14.703125 -7.476562 15.238281 -9.03125 15.5625 -10.90625 L 19.109375 -10.90625 C 18.472656 -7.894531 17.363281 -5.460938 15.78125 -3.609375 C 15.96875 -3.410156 16.144531 -3.269531 16.3125 -3.1875 C 16.476562 -3.113281 16.671875 -3.078125 16.890625 -3.078125 C 17.234375 -3.078125 17.550781 -3.117188 17.84375 -3.203125 L 18.046875 -3.15625 L 18.046875 -0.203125 C 17.828125 -0.078125 17.523438 0.015625 17.140625 0.078125 C 16.765625 0.148438 16.359375 0.1875 15.921875 0.1875 C 15.210938 0.1875 14.609375 0.0703125 14.109375 -0.15625 C 13.617188 -0.394531 13.179688 -0.757812 12.796875 -1.25 L 12.5 -1.25 C 11.0625 -0.207031 9.21875 0.3125 6.96875 0.3125 Z M 9.828125 -13.75 C 10.859375 -14.21875 11.640625 -14.675781 12.171875 -15.125 C 12.710938 -15.582031 13.054688 -16.148438 13.203125 -16.828125 C 13.234375 -16.992188 13.25 -17.164062 13.25 -17.34375 C 13.25 -17.789062 13.101562 -18.128906 12.8125 -18.359375 C 12.53125 -18.597656 12.140625 -18.71875 11.640625 -18.71875 C 11.035156 -18.71875 10.515625 -18.539062 10.078125 -18.1875 C 9.640625 -17.84375 9.359375 -17.363281 9.234375 -16.75 C 9.179688 -16.5 9.15625 -16.273438 9.15625 -16.078125 C 9.15625 -15.367188 9.378906 -14.59375 9.828125 -13.75 Z M 8.234375 -3.171875 C 8.703125 -3.171875 9.164062 -3.234375 9.625 -3.359375 C 10.082031 -3.492188 10.507812 -3.664062 10.90625 -3.875 L 7.46875 -9.828125 C 6.0625 -9.023438 5.226562 -7.976562 4.96875 -6.6875 C 4.90625 -6.394531 4.875 -6.125 4.875 -5.875 C 4.875 -5.03125 5.171875 -4.367188 5.765625 -3.890625 C 6.359375 -3.410156 7.179688 -3.171875 8.234375 -3.171875 Z M 8.234375 -3.171875 "/></g></g><g style="fill:#49e0e5;fill-opacity:1;"><g transform="translate(80.74023, 103.788265)"><path style="stroke:none" d=""/></g></g><g style="fill:#49e0e5;fill-opacity:1;"><g transform="translate(87.812667, 103.788265)"><path style="stroke:none" d="M 13.125 -21.421875 C 15.019531 -21.421875 16.628906 -21.085938 17.953125 -20.421875 C 19.273438 -19.765625 20.273438 -18.820312 20.953125 -17.59375 C 21.628906 -16.375 21.96875 -14.914062 21.96875 -13.21875 C 21.96875 -12.269531 21.847656 -11.195312 21.609375 -10 C 20.898438 -6.707031 19.5 -4.21875 17.40625 -2.53125 C 15.320312 -0.84375 12.445312 0 8.78125 0 L 1.0625 0 L 5.609375 -21.421875 Z M 17.390625 -10.703125 C 17.578125 -11.566406 17.671875 -12.359375 17.671875 -13.078125 C 17.671875 -14.679688 17.210938 -15.878906 16.296875 -16.671875 C 15.390625 -17.460938 14.0625 -17.859375 12.3125 -17.859375 L 9.078125 -17.859375 L 6.0625 -3.5625 L 9.265625 -3.5625 C 11.441406 -3.5625 13.203125 -4.125 14.546875 -5.25 C 15.898438 -6.382812 16.847656 -8.203125 17.390625 -10.703125 Z M 17.390625 -10.703125 "/></g></g><g style="fill:#49e0e5;fill-opacity:1;"><g transform="translate(110.699236, 103.788265)"><path style="stroke:none" d="M 8.046875 0.3125 C 6.671875 0.3125 5.472656 0.0625 4.453125 -0.4375 C 3.441406 -0.945312 2.660156 -1.6875 2.109375 -2.65625 C 1.566406 -3.625 1.296875 -4.789062 1.296875 -6.15625 C 1.296875 -6.957031 1.382812 -7.789062 1.5625 -8.65625 C 1.914062 -10.28125 2.503906 -11.675781 3.328125 -12.84375 C 4.148438 -14.019531 5.1875 -14.914062 6.4375 -15.53125 C 7.695312 -16.15625 9.128906 -16.46875 10.734375 -16.46875 C 12.097656 -16.46875 13.285156 -16.207031 14.296875 -15.6875 C 15.316406 -15.164062 16.101562 -14.414062 16.65625 -13.4375 C 17.207031 -12.457031 17.484375 -11.289062 17.484375 -9.9375 C 17.484375 -9.175781 17.398438 -8.363281 17.234375 -7.5 C 16.878906 -5.875 16.285156 -4.472656 15.453125 -3.296875 C 14.628906 -2.128906 13.585938 -1.234375 12.328125 -0.609375 C 11.078125 0.00390625 9.648438 0.3125 8.046875 0.3125 Z M 8.421875 -3.140625 C 9.609375 -3.140625 10.601562 -3.550781 11.40625 -4.375 C 12.21875 -5.195312 12.800781 -6.429688 13.15625 -8.078125 C 13.300781 -8.765625 13.375 -9.367188 13.375 -9.890625 C 13.375 -10.953125 13.109375 -11.738281 12.578125 -12.25 C 12.054688 -12.757812 11.316406 -13.015625 10.359375 -13.015625 C 9.171875 -13.015625 8.171875 -12.601562 7.359375 -11.78125 C 6.554688 -10.957031 5.976562 -9.722656 5.625 -8.078125 C 5.476562 -7.398438 5.40625 -6.796875 5.40625 -6.265625 C 5.40625 -5.203125 5.671875 -4.414062 6.203125 -3.90625 C 6.734375 -3.394531 7.472656 -3.140625 8.421875 -3.140625 Z M 8.421875 -3.140625 "/></g></g><g style="fill:#49e0e5;fill-opacity:1;"><g transform="translate(129.354042, 103.788265)"><path style="stroke:none" d="M 7.09375 0 L 2.8125 0 L 2.296875 -16.15625 L 5.9375 -16.15625 L 6.03125 -5.234375 L 6.34375 -5.234375 L 11.6875 -16.15625 L 15.25 -16.15625 L 16.15625 -5.234375 L 16.46875 -5.234375 L 21.046875 -16.15625 L 24.765625 -16.15625 L 17.59375 0 L 13.375 0 L 12.640625 -11 L 12.328125 -11 Z M 7.09375 0 "/></g></g><g style="fill:#49e0e5;fill-opacity:1;"><g transform="translate(152.972747, 103.788265)"><path style="stroke:none" d="M 0.609375 0 L 4.046875 -16.15625 L 7.9375 -16.15625 L 7.4375 -13.78125 L 7.71875 -13.71875 C 8.320312 -14.625 9.039062 -15.304688 9.875 -15.765625 C 10.71875 -16.234375 11.726562 -16.46875 12.90625 -16.46875 C 14.382812 -16.46875 15.515625 -16.0625 16.296875 -15.25 C 17.078125 -14.445312 17.46875 -13.332031 17.46875 -11.90625 C 17.46875 -11.300781 17.390625 -10.640625 17.234375 -9.921875 L 15.125 0 L 11.078125 0 L 13.203125 -10 C 13.265625 -10.300781 13.296875 -10.609375 13.296875 -10.921875 C 13.296875 -11.597656 13.097656 -12.117188 12.703125 -12.484375 C 12.316406 -12.847656 11.742188 -13.03125 10.984375 -13.03125 C 9.859375 -13.03125 8.90625 -12.65625 8.125 -11.90625 C 7.34375 -11.15625 6.785156 -9.972656 6.453125 -8.359375 L 4.671875 0 Z M 0.609375 0 "/></g></g><g style="fill:#49e0e5;fill-opacity:1;"><g transform="translate(171.891135, 103.788265)"><path style="stroke:none" d="M 4.90625 0.3125 C 4.226562 0.3125 3.625 0.160156 3.09375 -0.140625 C 2.5625 -0.441406 2.144531 -0.878906 1.84375 -1.453125 C 1.550781 -2.035156 1.40625 -2.734375 1.40625 -3.546875 C 1.40625 -4.066406 1.46875 -4.613281 1.59375 -5.1875 L 5.3125 -22.640625 L 9.375 -22.640625 L 5.53125 -4.609375 C 5.5 -4.398438 5.484375 -4.25 5.484375 -4.15625 C 5.484375 -3.832031 5.566406 -3.582031 5.734375 -3.40625 C 5.910156 -3.226562 6.148438 -3.140625 6.453125 -3.140625 C 6.648438 -3.140625 6.867188 -3.175781 7.109375 -3.25 L 7.296875 -3.1875 L 7.296875 -0.078125 C 6.734375 0.179688 5.9375 0.3125 4.90625 0.3125 Z M 4.90625 0.3125 "/></g></g><g style="fill:#49e0e5;fill-opacity:1;"><g transform="translate(181.174616, 103.788265)"><path style="stroke:none" d="M 8.046875 0.3125 C 6.671875 0.3125 5.472656 0.0625 4.453125 -0.4375 C 3.441406 -0.945312 2.660156 -1.6875 2.109375 -2.65625 C 1.566406 -3.625 1.296875 -4.789062 1.296875 -6.15625 C 1.296875 -6.957031 1.382812 -7.789062 1.5625 -8.65625 C 1.914062 -10.28125 2.503906 -11.675781 3.328125 -12.84375 C 4.148438 -14.019531 5.1875 -14.914062 6.4375 -15.53125 C 7.695312 -16.15625 9.128906 -16.46875 10.734375 -16.46875 C 12.097656 -16.46875 13.285156 -16.207031 14.296875 -15.6875 C 15.316406 -15.164062 16.101562 -14.414062 16.65625 -13.4375 C 17.207031 -12.457031 17.484375 -11.289062 17.484375 -9.9375 C 17.484375 -9.175781 17.398438 -8.363281 17.234375 -7.5 C 16.878906 -5.875 16.285156 -4.472656 15.453125 -3.296875 C 14.628906 -2.128906 13.585938 -1.234375 12.328125 -0.609375 C 11.078125 0.00390625 9.648438 0.3125 8.046875 0.3125 Z M 8.421875 -3.140625 C 9.609375 -3.140625 10.601562 -3.550781 11.40625 -4.375 C 12.21875 -5.195312 12.800781 -6.429688 13.15625 -8.078125 C 13.300781 -8.765625 13.375 -9.367188 13.375 -9.890625 C 13.375 -10.953125 13.109375 -11.738281 12.578125 -12.25 C 12.054688 -12.757812 11.316406 -13.015625 10.359375 -13.015625 C 9.171875 -13.015625 8.171875 -12.601562 7.359375 -11.78125 C 6.554688 -10.957031 5.976562 -9.722656 5.625 -8.078125 C 5.476562 -7.398438 5.40625 -6.796875 5.40625 -6.265625 C 5.40625 -5.203125 5.671875 -4.414062 6.203125 -3.90625 C 6.734375 -3.394531 7.472656 -3.140625 8.421875 -3.140625 Z M 8.421875 -3.140625 "/></g></g><g style="fill:#49e0e5;fill-opacity:1;"><g transform="translate(199.946576, 103.788265)"><path style="stroke:none" d="M 6.4375 0.3125 C 5.476562 0.3125 4.601562 0.09375 3.8125 -0.34375 C 3.03125 -0.789062 2.398438 -1.460938 1.921875 -2.359375 C 1.453125 -3.265625 1.21875 -4.382812 1.21875 -5.71875 C 1.21875 -6.570312 1.320312 -7.503906 1.53125 -8.515625 C 2.09375 -11.117188 3.082031 -13.09375 4.5 -14.4375 C 5.914062 -15.789062 7.664062 -16.46875 9.75 -16.46875 C 10.78125 -16.46875 11.660156 -16.289062 12.390625 -15.9375 C 13.117188 -15.582031 13.65625 -15.046875 14 -14.328125 L 14.328125 -14.40625 L 14.6875 -16.171875 L 18.75 -16.171875 L 15.328125 0 L 11.265625 0 L 11.703125 -2.09375 L 11.40625 -2.15625 C 10.78125 -1.375 10.066406 -0.765625 9.265625 -0.328125 C 8.472656 0.0976562 7.53125 0.3125 6.4375 0.3125 Z M 8.25 -3.140625 C 9.382812 -3.140625 10.367188 -3.53125 11.203125 -4.3125 C 12.046875 -5.101562 12.628906 -6.257812 12.953125 -7.78125 C 13.097656 -8.5 13.171875 -9.132812 13.171875 -9.6875 C 13.171875 -10.789062 12.914062 -11.617188 12.40625 -12.171875 C 11.894531 -12.734375 11.210938 -13.015625 10.359375 -13.015625 C 9.160156 -13.015625 8.164062 -12.628906 7.375 -11.859375 C 6.582031 -11.085938 6.015625 -9.90625 5.671875 -8.3125 C 5.523438 -7.59375 5.453125 -6.953125 5.453125 -6.390625 C 5.453125 -5.328125 5.695312 -4.519531 6.1875 -3.96875 C 6.675781 -3.414062 7.363281 -3.140625 8.25 -3.140625 Z M 8.25 -3.140625 "/></g></g><g style="fill:#49e0e5;fill-opacity:1;"><g transform="translate(219.304244, 103.788265)"><path style="stroke:none" d="M 6.640625 0.3125 C 5.609375 0.3125 4.6875 0.09375 3.875 -0.34375 C 3.070312 -0.78125 2.429688 -1.445312 1.953125 -2.34375 C 1.484375 -3.25 1.25 -4.382812 1.25 -5.75 C 1.25 -6.644531 1.363281 -7.648438 1.59375 -8.765625 C 2.132812 -11.273438 3.109375 -13.1875 4.515625 -14.5 C 5.929688 -15.8125 7.71875 -16.46875 9.875 -16.46875 C 10.863281 -16.46875 11.695312 -16.269531 12.375 -15.875 C 13.0625 -15.476562 13.59375 -14.921875 13.96875 -14.203125 L 14.296875 -14.28125 L 16.078125 -22.640625 L 20.140625 -22.640625 L 15.328125 0 L 11.265625 0 L 11.6875 -1.953125 L 11.390625 -2 C 10.804688 -1.238281 10.148438 -0.660156 9.421875 -0.265625 C 8.703125 0.117188 7.773438 0.3125 6.640625 0.3125 Z M 8.296875 -3.140625 C 9.429688 -3.140625 10.40625 -3.515625 11.21875 -4.265625 C 12.03125 -5.023438 12.609375 -6.195312 12.953125 -7.78125 C 13.097656 -8.476562 13.171875 -9.097656 13.171875 -9.640625 C 13.171875 -10.773438 12.898438 -11.617188 12.359375 -12.171875 C 11.828125 -12.734375 11.140625 -13.015625 10.296875 -13.015625 C 9.140625 -13.015625 8.160156 -12.617188 7.359375 -11.828125 C 6.566406 -11.046875 6.007812 -9.890625 5.6875 -8.359375 C 5.53125 -7.640625 5.453125 -6.984375 5.453125 -6.390625 C 5.453125 -5.273438 5.707031 -4.453125 6.21875 -3.921875 C 6.726562 -3.398438 7.421875 -3.140625 8.296875 -3.140625 Z M 8.296875 -3.140625 "/></g></g><g style="fill:#49e0e5;fill-opacity:1;"><g transform="translate(238.661913, 103.788265)"><path style="stroke:none" d=""/></g></g><g style="fill:#49e0e5;fill-opacity:1;"><g transform="translate(245.73435, 103.788265)"><path style="stroke:none" d="M 0.46875 6.859375 C -0.226562 6.859375 -0.851562 6.800781 -1.40625 6.6875 C -1.96875 6.582031 -2.40625 6.441406 -2.71875 6.265625 L -1.390625 2.984375 L -1.109375 2.90625 C -0.890625 3.03125 -0.609375 3.128906 -0.265625 3.203125 C 0.078125 3.285156 0.441406 3.328125 0.828125 3.328125 C 1.472656 3.328125 2.03125 3.238281 2.5 3.0625 C 2.976562 2.894531 3.410156 2.613281 3.796875 2.21875 C 4.179688 1.820312 4.566406 1.273438 4.953125 0.578125 L 2.0625 -16.15625 L 6.09375 -16.15625 L 7.78125 -4.921875 L 8.125 -4.921875 L 14.390625 -16.15625 L 18.71875 -16.15625 L 8.625 1.296875 C 7.832031 2.671875 7.035156 3.757812 6.234375 4.5625 C 5.441406 5.363281 4.582031 5.945312 3.65625 6.3125 C 2.726562 6.675781 1.664062 6.859375 0.46875 6.859375 Z M 0.46875 6.859375 "/></g></g><g style="fill:#49e0e5;fill-opacity:1;"><g transform="translate(262.763799, 103.788265)"><path style="stroke:none" d="M 8.046875 0.3125 C 6.671875 0.3125 5.472656 0.0625 4.453125 -0.4375 C 3.441406 -0.945312 2.660156 -1.6875 2.109375 -2.65625 C 1.566406 -3.625 1.296875 -4.789062 1.296875 -6.15625 C 1.296875 -6.957031 1.382812 -7.789062 1.5625 -8.65625 C 1.914062 -10.28125 2.503906 -11.675781 3.328125 -12.84375 C 4.148438 -14.019531 5.1875 -14.914062 6.4375 -15.53125 C 7.695312 -16.15625 9.128906 -16.46875 10.734375 -16.46875 C 12.097656 -16.46875 13.285156 -16.207031 14.296875 -15.6875 C 15.316406 -15.164062 16.101562 -14.414062 16.65625 -13.4375 C 17.207031 -12.457031 17.484375 -11.289062 17.484375 -9.9375 C 17.484375 -9.175781 17.398438 -8.363281 17.234375 -7.5 C 16.878906 -5.875 16.285156 -4.472656 15.453125 -3.296875 C 14.628906 -2.128906 13.585938 -1.234375 12.328125 -0.609375 C 11.078125 0.00390625 9.648438 0.3125 8.046875 0.3125 Z M 8.421875 -3.140625 C 9.609375 -3.140625 10.601562 -3.550781 11.40625 -4.375 C 12.21875 -5.195312 12.800781 -6.429688 13.15625 -8.078125 C 13.300781 -8.765625 13.375 -9.367188 13.375 -9.890625 C 13.375 -10.953125 13.109375 -11.738281 12.578125 -12.25 C 12.054688 -12.757812 11.316406 -13.015625 10.359375 -13.015625 C 9.171875 -13.015625 8.171875 -12.601562 7.359375 -11.78125 C 6.554688 -10.957031 5.976562 -9.722656 5.625 -8.078125 C 5.476562 -7.398438 5.40625 -6.796875 5.40625 -6.265625 C 5.40625 -5.203125 5.671875 -4.414062 6.203125 -3.90625 C 6.734375 -3.394531 7.472656 -3.140625 8.421875 -3.140625 Z M 8.421875 -3.140625 "/></g></g><g style="fill:#49e0e5;fill-opacity:1;"><g transform="translate(281.535747, 103.788265)"><path style="stroke:none" d="M 5.75 0.3125 C 4.820312 0.3125 4.039062 0.117188 3.40625 -0.265625 C 2.769531 -0.648438 2.285156 -1.191406 1.953125 -1.890625 C 1.628906 -2.585938 1.46875 -3.390625 1.46875 -4.296875 C 1.46875 -4.859375 1.535156 -5.472656 1.671875 -6.140625 L 3.796875 -16.15625 L 7.859375 -16.15625 L 5.703125 -5.96875 C 5.640625 -5.664062 5.609375 -5.390625 5.609375 -5.140625 C 5.609375 -4.503906 5.789062 -4.007812 6.15625 -3.65625 C 6.53125 -3.300781 7.078125 -3.125 7.796875 -3.125 C 10.097656 -3.125 11.578125 -4.648438 12.234375 -7.703125 L 14.015625 -16.15625 L 18.078125 -16.15625 L 14.65625 0 L 10.75 0 L 11.25 -2.375 L 10.96875 -2.453125 C 10.320312 -1.515625 9.597656 -0.816406 8.796875 -0.359375 C 7.992188 0.0859375 6.976562 0.3125 5.75 0.3125 Z M 5.75 0.3125 "/></g></g><g style="fill:#49e0e5;fill-opacity:1;"><g transform="translate(300.219851, 103.788265)"><path style="stroke:none" d="M 0.609375 0 L 4.046875 -16.15625 L 7.984375 -16.15625 L 7.46875 -13.75 L 7.765625 -13.703125 C 8.328125 -14.617188 8.957031 -15.28125 9.65625 -15.6875 C 10.351562 -16.09375 11.191406 -16.296875 12.171875 -16.296875 C 12.609375 -16.296875 13 -16.253906 13.34375 -16.171875 C 13.695312 -16.097656 13.972656 -15.984375 14.171875 -15.828125 L 12.84375 -12.296875 L 12.53125 -12.234375 C 12.007812 -12.460938 11.441406 -12.578125 10.828125 -12.578125 C 8.503906 -12.578125 6.984375 -10.90625 6.265625 -7.5625 L 4.671875 0 Z M 0.609375 0 "/></g></g><g style="fill:#49e0e5;fill-opacity:1;"><g transform="translate(312.885805, 103.788265)"><path style="stroke:none" d=""/></g></g><g style="fill:#49e0e5;fill-opacity:1;"><g transform="translate(319.958253, 103.788265)"><path style="stroke:none" d="M 1.0625 0 L 5.609375 -21.421875 L 13.765625 -21.421875 C 15.015625 -21.421875 16.085938 -21.226562 16.984375 -20.84375 C 17.890625 -20.46875 18.578125 -19.921875 19.046875 -19.203125 C 19.515625 -18.484375 19.75 -17.625 19.75 -16.625 C 19.75 -16.144531 19.691406 -15.632812 19.578125 -15.09375 C 19.316406 -13.863281 18.738281 -12.835938 17.84375 -12.015625 C 16.957031 -11.203125 15.878906 -10.703125 14.609375 -10.515625 L 14.53125 -10.203125 C 15.164062 -9.898438 15.632812 -9.460938 15.9375 -8.890625 C 16.25 -8.328125 16.46875 -7.492188 16.59375 -6.390625 L 16.859375 -4.171875 L 17.390625 0 L 13.125 0 L 13.046875 -0.59375 C 12.972656 -1.238281 12.878906 -2.046875 12.765625 -3.015625 C 12.648438 -3.984375 12.523438 -5.113281 12.390625 -6.40625 C 12.316406 -7.050781 12.179688 -7.550781 11.984375 -7.90625 C 11.785156 -8.257812 11.492188 -8.515625 11.109375 -8.671875 C 10.734375 -8.835938 10.210938 -8.921875 9.546875 -8.921875 L 7.1875 -8.921875 L 5.296875 0 Z M 11.765625 -12.28125 C 12.835938 -12.28125 13.664062 -12.507812 14.25 -12.96875 C 14.832031 -13.425781 15.222656 -14.113281 15.421875 -15.03125 C 15.492188 -15.332031 15.53125 -15.625 15.53125 -15.90625 C 15.53125 -16.632812 15.300781 -17.175781 14.84375 -17.53125 C 14.394531 -17.882812 13.75 -18.0625 12.90625 -18.0625 L 9.140625 -18.0625 L 7.90625 -12.28125 Z M 11.765625 -12.28125 "/></g></g><g style="fill:#49e0e5;fill-opacity:1;"><g transform="translate(339.550125, 103.788265)"><path style="stroke:none" d="M 16.4375 -11.28125 C 16.0625 -9.476562 15.082031 -8.1875 13.5 -7.40625 C 11.925781 -6.625 9.992188 -6.234375 7.703125 -6.234375 C 6.890625 -6.234375 6.140625 -6.269531 5.453125 -6.34375 C 5.492188 -5.269531 5.773438 -4.46875 6.296875 -3.9375 C 6.828125 -3.40625 7.570312 -3.140625 8.53125 -3.140625 C 9.414062 -3.140625 10.148438 -3.3125 10.734375 -3.65625 C 11.316406 -4.007812 11.851562 -4.550781 12.34375 -5.28125 L 12.65625 -5.28125 L 15.265625 -3.5 C 14.765625 -2.695312 14.207031 -2.019531 13.59375 -1.46875 C 12.976562 -0.925781 12.195312 -0.492188 11.25 -0.171875 C 10.3125 0.148438 9.160156 0.3125 7.796875 0.3125 C 6.554688 0.3125 5.445312 0.046875 4.46875 -0.484375 C 3.5 -1.023438 2.738281 -1.800781 2.1875 -2.8125 C 1.632812 -3.820312 1.359375 -5.03125 1.359375 -6.4375 C 1.359375 -7.226562 1.453125 -8.070312 1.640625 -8.96875 C 1.972656 -10.53125 2.582031 -11.875 3.46875 -13 C 4.363281 -14.125 5.441406 -14.984375 6.703125 -15.578125 C 7.972656 -16.171875 9.332031 -16.46875 10.78125 -16.46875 C 12.007812 -16.46875 13.054688 -16.28125 13.921875 -15.90625 C 14.785156 -15.53125 15.4375 -15.015625 15.875 -14.359375 C 16.3125 -13.710938 16.53125 -12.992188 16.53125 -12.203125 C 16.53125 -11.867188 16.5 -11.5625 16.4375 -11.28125 Z M 10.40625 -13.3125 C 9.78125 -13.3125 9.171875 -13.171875 8.578125 -12.890625 C 7.984375 -12.609375 7.445312 -12.179688 6.96875 -11.609375 C 6.488281 -11.035156 6.125 -10.328125 5.875 -9.484375 C 6.625 -9.421875 7.335938 -9.390625 8.015625 -9.390625 C 9.335938 -9.390625 10.390625 -9.554688 11.171875 -9.890625 C 11.960938 -10.222656 12.445312 -10.804688 12.625 -11.640625 C 12.644531 -11.765625 12.65625 -11.859375 12.65625 -11.921875 C 12.65625 -12.335938 12.457031 -12.671875 12.0625 -12.921875 C 11.675781 -13.179688 11.125 -13.3125 10.40625 -13.3125 Z M 10.40625 -13.3125 "/></g></g><g style="fill:#49e0e5;fill-opacity:1;"><g transform="translate(357.106757, 103.788265)"><path style="stroke:none" d="M 5.875 0.3125 C 4.90625 0.3125 4 0.175781 3.15625 -0.09375 C 2.320312 -0.375 1.609375 -0.75 1.015625 -1.21875 C 0.421875 -1.695312 -0.0195312 -2.226562 -0.3125 -2.8125 L 2.359375 -5.140625 L 2.671875 -5.140625 C 3.054688 -4.421875 3.578125 -3.878906 4.234375 -3.515625 C 4.890625 -3.148438 5.644531 -2.96875 6.5 -2.96875 C 7.40625 -2.96875 8.09375 -3.144531 8.5625 -3.5 C 9.039062 -3.863281 9.28125 -4.375 9.28125 -5.03125 C 9.28125 -5.394531 9.144531 -5.707031 8.875 -5.96875 C 8.613281 -6.238281 8.171875 -6.460938 7.546875 -6.640625 L 5.515625 -7.203125 C 4.515625 -7.492188 3.707031 -7.960938 3.09375 -8.609375 C 2.476562 -9.253906 2.171875 -10.097656 2.171875 -11.140625 C 2.171875 -11.503906 2.210938 -11.90625 2.296875 -12.34375 C 2.566406 -13.644531 3.285156 -14.65625 4.453125 -15.375 C 5.617188 -16.101562 7.160156 -16.46875 9.078125 -16.46875 C 10.429688 -16.46875 11.570312 -16.242188 12.5 -15.796875 C 13.4375 -15.347656 14.144531 -14.765625 14.625 -14.046875 L 12.078125 -11.8125 L 11.78125 -11.8125 C 11.4375 -12.3125 11.007812 -12.675781 10.5 -12.90625 C 9.988281 -13.144531 9.382812 -13.265625 8.6875 -13.265625 C 7.851562 -13.265625 7.21875 -13.148438 6.78125 -12.921875 C 6.34375 -12.691406 6.078125 -12.335938 5.984375 -11.859375 C 5.960938 -11.742188 5.953125 -11.660156 5.953125 -11.609375 C 5.953125 -11.265625 6.101562 -10.960938 6.40625 -10.703125 C 6.707031 -10.453125 7.132812 -10.253906 7.6875 -10.109375 L 9.53125 -9.625 C 12.03125 -8.976562 13.28125 -7.660156 13.28125 -5.671875 C 13.28125 -5.253906 13.234375 -4.828125 13.140625 -4.390625 C 12.785156 -2.816406 12.03125 -1.640625 10.875 -0.859375 C 9.726562 -0.078125 8.0625 0.3125 5.875 0.3125 Z M 5.875 0.3125 "/></g></g><g style="fill:#49e0e5;fill-opacity:1;"><g transform="translate(371.998404, 103.788265)"><path style="stroke:none" d="M 5.75 0.3125 C 4.820312 0.3125 4.039062 0.117188 3.40625 -0.265625 C 2.769531 -0.648438 2.285156 -1.191406 1.953125 -1.890625 C 1.628906 -2.585938 1.46875 -3.390625 1.46875 -4.296875 C 1.46875 -4.859375 1.535156 -5.472656 1.671875 -6.140625 L 3.796875 -16.15625 L 7.859375 -16.15625 L 5.703125 -5.96875 C 5.640625 -5.664062 5.609375 -5.390625 5.609375 -5.140625 C 5.609375 -4.503906 5.789062 -4.007812 6.15625 -3.65625 C 6.53125 -3.300781 7.078125 -3.125 7.796875 -3.125 C 10.097656 -3.125 11.578125 -4.648438 12.234375 -7.703125 L 14.015625 -16.15625 L 18.078125 -16.15625 L 14.65625 0 L 10.75 0 L 11.25 -2.375 L 10.96875 -2.453125 C 10.320312 -1.515625 9.597656 -0.816406 8.796875 -0.359375 C 7.992188 0.0859375 6.976562 0.3125 5.75 0.3125 Z M 5.75 0.3125 "/></g></g><g style="fill:#49e0e5;fill-opacity:1;"><g transform="translate(390.682508, 103.788265)"><path style="stroke:none" d="M 0.609375 0 L 4.046875 -16.15625 L 7.9375 -16.15625 L 7.484375 -13.984375 L 7.78125 -13.9375 C 8.320312 -14.78125 8.992188 -15.410156 9.796875 -15.828125 C 10.609375 -16.253906 11.578125 -16.46875 12.703125 -16.46875 C 14.984375 -16.46875 16.363281 -15.519531 16.84375 -13.625 L 17.15625 -13.625 C 17.769531 -14.601562 18.492188 -15.320312 19.328125 -15.78125 C 20.160156 -16.238281 21.160156 -16.46875 22.328125 -16.46875 C 23.734375 -16.46875 24.796875 -16.101562 25.515625 -15.375 C 26.234375 -14.644531 26.59375 -13.625 26.59375 -12.3125 C 26.59375 -11.726562 26.519531 -11.101562 26.375 -10.4375 L 24.15625 0 L 20.09375 0 L 22.296875 -10.359375 C 22.359375 -10.671875 22.390625 -10.972656 22.390625 -11.265625 C 22.390625 -12.441406 21.71875 -13.03125 20.375 -13.03125 C 19.34375 -13.03125 18.476562 -12.675781 17.78125 -11.96875 C 17.082031 -11.269531 16.566406 -10.132812 16.234375 -8.5625 L 14.421875 0 L 10.359375 0 L 12.546875 -10.359375 C 12.617188 -10.671875 12.65625 -10.972656 12.65625 -11.265625 C 12.65625 -12.441406 11.976562 -13.03125 10.625 -13.03125 C 9.59375 -13.03125 8.726562 -12.679688 8.03125 -11.984375 C 7.332031 -11.296875 6.820312 -10.1875 6.5 -8.65625 L 4.671875 0 Z M 0.609375 0 "/></g></g><g style="fill:#49e0e5;fill-opacity:1;"><g transform="translate(418.620807, 103.788265)"><path style="stroke:none" d="M 16.4375 -11.28125 C 16.0625 -9.476562 15.082031 -8.1875 13.5 -7.40625 C 11.925781 -6.625 9.992188 -6.234375 7.703125 -6.234375 C 6.890625 -6.234375 6.140625 -6.269531 5.453125 -6.34375 C 5.492188 -5.269531 5.773438 -4.46875 6.296875 -3.9375 C 6.828125 -3.40625 7.570312 -3.140625 8.53125 -3.140625 C 9.414062 -3.140625 10.148438 -3.3125 10.734375 -3.65625 C 11.316406 -4.007812 11.851562 -4.550781 12.34375 -5.28125 L 12.65625 -5.28125 L 15.265625 -3.5 C 14.765625 -2.695312 14.207031 -2.019531 13.59375 -1.46875 C 12.976562 -0.925781 12.195312 -0.492188 11.25 -0.171875 C 10.3125 0.148438 9.160156 0.3125 7.796875 0.3125 C 6.554688 0.3125 5.445312 0.046875 4.46875 -0.484375 C 3.5 -1.023438 2.738281 -1.800781 2.1875 -2.8125 C 1.632812 -3.820312 1.359375 -5.03125 1.359375 -6.4375 C 1.359375 -7.226562 1.453125 -8.070312 1.640625 -8.96875 C 1.972656 -10.53125 2.582031 -11.875 3.46875 -13 C 4.363281 -14.125 5.441406 -14.984375 6.703125 -15.578125 C 7.972656 -16.171875 9.332031 -16.46875 10.78125 -16.46875 C 12.007812 -16.46875 13.054688 -16.28125 13.921875 -15.90625 C 14.785156 -15.53125 15.4375 -15.015625 15.875 -14.359375 C 16.3125 -13.710938 16.53125 -12.992188 16.53125 -12.203125 C 16.53125 -11.867188 16.5 -11.5625 16.4375 -11.28125 Z M 10.40625 -13.3125 C 9.78125 -13.3125 9.171875 -13.171875 8.578125 -12.890625 C 7.984375 -12.609375 7.445312 -12.179688 6.96875 -11.609375 C 6.488281 -11.035156 6.125 -10.328125 5.875 -9.484375 C 6.625 -9.421875 7.335938 -9.390625 8.015625 -9.390625 C 9.335938 -9.390625 10.390625 -9.554688 11.171875 -9.890625 C 11.960938 -10.222656 12.445312 -10.804688 12.625 -11.640625 C 12.644531 -11.765625 12.65625 -11.859375 12.65625 -11.921875 C 12.65625 -12.335938 12.457031 -12.671875 12.0625 -12.921875 C 11.675781 -13.179688 11.125 -13.3125 10.40625 -13.3125 Z M 10.40625 -13.3125 "/></g></g><g style="fill:#49e0e5;fill-opacity:1;"><g transform="translate(436.183577, 103.788265)"><path style="stroke:none" d=""/></g></g></g></svg>