<svg xmlns="http://www.w3.org/2000/svg" version="1.1" viewBox="37 21.58 1875 252.73" transform="matrix(1, 0, 0, 1, 0, 0)">
<path d="M0 0 C1.89468434 -0.00134952 3.78936835 -0.00329244 5.68405151 -0.00579834 C9.63949913 -0.00873465 13.59485596 -0.00449926 17.55029297 0.00488281 C22.60501368 0.0162921 27.65952231 0.00969901 32.71423531 -0.00226212 C36.62114037 -0.00950779 40.52799558 -0.00718063 44.43490219 -0.00200653 C46.29831849 -0.00067833 48.1617394 -0.00228847 50.0251503 -0.00696564 C52.63293617 -0.01207731 55.24038369 -0.00425658 57.84814453 0.00683594 C58.60783539 0.00278748 59.36752625 -0.00126099 60.15023804 -0.00543213 C71.31999217 0.08203903 80.71134957 4.28006172 88.6796875 12.203125 C89.2778125 12.88375 89.8759375 13.564375 90.4921875 14.265625 C90.88148438 13.74613281 91.27078125 13.22664063 91.671875 12.69140625 C97.03118954 6.01078605 102.95495919 1.68773174 111.6153717 0.71781921 C116.20110657 0.24156645 120.73418863 0.11763352 125.34155273 0.12036133 C126.59227066 0.11532341 126.59227066 0.11532341 127.86825562 0.11018372 C130.59577975 0.10076639 133.32324192 0.0987355 136.05078125 0.09765625 C137.96452356 0.09443802 139.87826563 0.09107353 141.79200745 0.08757019 C145.79208954 0.08160252 149.7921501 0.07972793 153.79223633 0.08032227 C158.89721782 0.08042393 164.00206036 0.06675697 169.10700893 0.04955006 C173.05602137 0.03839006 177.00500059 0.03640426 180.95402718 0.03693199 C182.83533267 0.03575848 184.7166392 0.03137231 186.597929 0.02359962 C212.43509768 -0.07318653 212.43509768 -0.07318653 219.01953125 6.38671875 C224.14440105 12.92534573 225.15488727 20.09378704 224.87890625 28.23046875 C224.32435593 32.58284852 222.80373062 35.59567505 220.4921875 39.265625 C206.77151513 62.11856307 206.30467896 93.16552839 206.30688477 119.02197266 C206.30470708 121.86506335 206.28650539 124.70775916 206.26757812 127.55078125 C206.2185324 143.09701311 206.40358076 159.23215892 210.8046875 174.265625 C211.0219751 175.04486328 211.2392627 175.82410156 211.46313477 176.62695312 C216.12456434 193.83381685 216.12456434 193.83381685 226.3046875 207.55078125 C229.08805522 208.46034606 231.5025803 208.56705145 234.4296875 208.578125 C235.95916016 208.60326172 235.95916016 208.60326172 237.51953125 208.62890625 C241.0646037 208.19567138 242.71990337 207.52638389 245.4921875 205.265625 C247.0255968 202.83772695 248.27944298 200.59259259 249.4921875 198.015625 C249.83467529 197.30615723 250.17716309 196.59668945 250.5300293 195.86572266 C259.14549888 177.56317739 262.62160761 158.5111161 262.6953125 138.40234375 C262.70101257 137.17514114 262.70671265 135.94793854 262.71258545 134.68354797 C262.72199954 132.09071707 262.72855508 129.4978744 262.73242188 126.9050293 C262.74206296 123.00352123 262.77309535 119.10255518 262.8046875 115.20117188 C262.86566068 100.92678656 262.23801309 87.28207718 259.4921875 73.265625 C259.17000244 71.51052612 259.17000244 71.51052612 258.84130859 69.7199707 C258.28993416 66.82762958 257.68654292 63.95379703 257.0546875 61.078125 C256.86326172 60.14677734 256.67183594 59.21542969 256.47460938 58.25585938 C254.80589309 50.56032313 252.25149797 43.50410447 247.8046875 36.953125 C244.22849451 31.67187405 243.94720142 26.51350118 244.4921875 20.265625 C245.99703674 12.8077692 248.27542374 7.89752262 254.2421875 3.015625 C260.25403726 -0.22152487 267.20540257 0.11623764 273.9050293 0.12036133 C275.1044088 0.11532341 275.1044088 0.11532341 276.32801819 0.11018372 C278.94916373 0.10075163 281.57024483 0.09873435 284.19140625 0.09765625 C286.03213018 0.09443768 287.87285386 0.09107317 289.71357727 0.08757019 C293.56581209 0.08159781 297.41802455 0.07972828 301.27026367 0.08032227 C306.17432141 0.08042364 311.07823356 0.06678869 315.98225689 0.04955006 C319.78384543 0.03835694 323.58539962 0.03640531 327.38700294 0.03693199 C329.19326083 0.0357622 330.99951991 0.0313976 332.80576134 0.02359962 C350.662741 -0.04626317 365.82709567 0.49173481 379.4921875 13.265625 C382.38340304 11.92236114 384.75334443 10.37552877 387.2421875 8.390625 C399.21256392 -0.62573588 411.0393176 0.11445622 425.6237793 0.12036133 C427.11666446 0.11736248 428.60954885 0.1139583 430.10243225 0.11018372 C434.12752439 0.10141267 438.15259522 0.09900851 442.17769599 0.09836793 C444.70141615 0.09765342 447.22513103 0.09551154 449.74884987 0.09287071 C458.57890792 0.08363958 467.40895095 0.07953296 476.23901367 0.08032227 C484.42834518 0.08092222 492.61761066 0.07038081 500.80692548 0.0545786 C507.87231015 0.04143822 514.9376734 0.03614109 522.00307018 0.03677768 C526.20758794 0.03703079 530.41204693 0.03428402 534.61655235 0.02359962 C538.57702782 0.01380864 542.53738966 0.01391347 546.49786949 0.02111626 C547.93762379 0.02214864 549.37738559 0.01988113 550.81712723 0.0137558 C576.76808285 -0.08935342 600.98114156 5.14034551 620.04931641 23.73876953 C632.84633775 37.2806598 636.18314445 51.29891962 635.8984375 69.3671875 C635.54370573 77.30557769 633.30205029 83.31178252 629.4921875 90.265625 C628.68007812 91.75255859 628.68007812 91.75255859 627.8515625 93.26953125 C621.90883875 103.25275175 614.56445419 111.40799473 604.4921875 117.265625 C605.12187787 120.53789754 606.31620024 122.73044689 608.1484375 125.49609375 C612.41067922 132.45783999 615.17662155 139.95355344 617.9921875 147.578125 C618.27632507 148.34074646 618.56046265 149.10336792 618.85321045 149.88909912 C624.95393091 166.38831615 628.52576573 182.90626419 631.296875 200.27734375 C633.87791414 216.37431829 638.50469754 230.64456486 650.4921875 242.265625 C643.8487153 248.13660043 639.1103629 249.56501544 630.30249023 249.58789062 C629.38469284 249.59782043 628.46689545 249.60775024 627.52128601 249.61798096 C624.48942031 249.64715116 621.45776416 249.66081855 618.42578125 249.671875 C616.30933124 249.68338754 614.19288125 249.69490288 612.07643127 249.7064209 C607.63712598 249.7274226 603.19789289 249.73911866 598.75854492 249.74609375 C593.09501963 249.75703482 587.43246293 249.80503432 581.76924038 249.86203766 C577.39463099 249.89946343 573.02025036 249.90971088 568.64549446 249.9127655 C566.55925284 249.91878493 564.47301362 249.93472756 562.38693047 249.96113586 C540.54611312 250.21779665 540.54611312 250.21779665 531.4921875 243.265625 C526.04931884 237.54119328 524.08188744 232.71407446 524.23046875 224.81640625 C524.9132135 218.16219245 528.67160101 215.00732054 533.4921875 210.890625 C539.44280083 205.72113938 542.11894983 201.18462054 542.8671875 193.328125 C542.40262117 185.6702736 540.33381021 178.34182062 538.1796875 171.015625 C537.89702026 170.00532227 537.89702026 170.00532227 537.60864258 168.97460938 C535.88676349 163.35226054 533.33340308 159.27055826 528.421875 155.8046875 C520.89264866 152.45518377 513.65087476 152.21589113 505.6796875 154.265625 C501.55594339 155.86023828 499.20393202 158.22236971 496.48828125 161.64453125 C493.59618325 169.25471854 495.92935677 177.33986064 498.1796875 184.828125 C498.42396484 185.70919922 498.66824219 186.59027344 498.91992188 187.49804688 C501.31223278 195.70458174 504.85430759 202.73547647 510.4921875 209.203125 C517.28924399 217.5835867 520.32811212 224.05457651 519.921875 235.046875 C519.22187341 240.29052326 517.26547332 243.04901773 513.9921875 247.140625 C511.03951001 249.35513312 507.65177409 249.39333015 504.06774902 249.41952515 C503.18769196 249.42812561 502.30763489 249.43672607 501.40090942 249.44558716 C499.96399246 249.45197708 499.96399246 249.45197708 498.49804688 249.45849609 C497.4828598 249.46667358 496.46767273 249.47485107 495.42172241 249.48327637 C492.05980004 249.50809918 488.69791993 249.52464188 485.3359375 249.5390625 C483.60972923 249.54704802 483.60972923 249.54704802 481.84864807 249.55519485 C475.75294664 249.58191771 469.65726559 249.60129217 463.56152344 249.61572266 C458.52943662 249.62904064 453.49775733 249.65685582 448.46582031 249.69775391 C442.37923917 249.74721962 436.2930266 249.7718614 430.20625305 249.77894974 C427.8939461 249.78563978 425.58164664 249.80080274 423.26945496 249.82484055 C396.54246846 250.08676091 396.54246846 250.08676091 384.9296875 240.203125 C383.75212891 239.22666016 383.75212891 239.22666016 382.55078125 238.23046875 C380.54550427 236.31651368 378.88283082 234.66764527 377.4921875 232.265625 C377.94354642 228.97611088 379.28560283 226.86196994 381.22265625 224.2109375 C382.05216797 223.05223145 382.05216797 223.05223145 382.8984375 221.87011719 C383.48625 221.05188477 384.0740625 220.23365234 384.6796875 219.390625 C390.14078045 211.58694826 394.27222144 204.26474838 397.4921875 195.265625 C397.93949219 194.15960938 398.38679687 193.05359375 398.84765625 191.9140625 C406.56449764 171.50177238 405.98634898 148.98586682 405.88330078 127.46533203 C405.86617709 123.8575325 405.87640803 120.2503954 405.89361477 116.64261818 C405.95975265 100.31960452 405.42048784 84.37215384 402.4921875 68.265625 C402.37170044 67.58042786 402.25121338 66.89523071 402.1270752 66.18927002 C401.40806522 62.14942604 400.57259758 58.14519144 399.6796875 54.140625 C399.45732422 53.05265625 399.23496094 51.9646875 399.00585938 50.84375 C396.71247929 40.42720522 392.64202284 31.10482933 385.6171875 23.015625 C384.83601562 22.10296875 384.05484375 21.1903125 383.25 20.25 C382.66992188 19.59515625 382.08984375 18.9403125 381.4921875 18.265625 C366.32857732 33.14747891 359.56596556 53.73747229 354.6171875 74.015625 C354.42640625 74.78044189 354.235625 75.54525879 354.0390625 76.33325195 C350.25250701 92.87027849 350.01862583 110.01542473 349.4296875 126.890625 C347.1238724 190.14953573 347.1238724 190.14953573 323.87890625 214.71484375 C321.8951169 216.83499833 320.10478529 218.99352213 318.3046875 221.265625 C310.62701293 229.97649012 300.40304327 236.17626599 290.0546875 241.203125 C289.34151367 241.55624756 288.62833984 241.90937012 287.89355469 242.27319336 C272.06262676 249.57829565 256.60104158 249.89999796 239.4387207 249.78710938 C235.56593056 249.76568719 231.69499916 249.78698437 227.82226562 249.8125 C214.53606045 249.82801043 202.18073299 249.40292735 189.4921875 245.265625 C188.64084229 244.9886377 187.78949707 244.71165039 186.91235352 244.42626953 C171.91126217 239.01366465 159.73356689 229.33259653 148.4921875 218.265625 C147.71230469 217.51023438 146.93242187 216.75484375 146.12890625 215.9765625 C131.79576557 201.15971014 121.83383912 180.97541346 121.16674805 160.26416016 C121.14376648 159.58982437 121.12078491 158.91548859 121.09710693 158.22071838 C121.04756512 156.76236694 120.99962627 155.30396032 120.95313072 153.84550858 C120.87749318 151.51107544 120.7948986 149.1769846 120.7101593 146.84286499 C120.46940433 140.20744063 120.231787 133.57199189 120.02075195 126.93554688 C118.7947699 88.73370234 115.81796329 46.51663413 86.4921875 18.265625 C86.25113281 18.92949219 86.01007813 19.59335937 85.76171875 20.27734375 C84.47730633 23.30065299 82.97191058 26.07427594 81.36962891 28.93603516 C66.97838582 54.84263483 63.86275113 85.86852371 64.0546875 115.078125 C64.05706421 116.04209198 64.05944092 117.00605896 64.06188965 117.99923706 C64.13070996 135.99926399 65.56293588 153.50879281 68.4921875 171.265625 C68.6576709 172.28414551 68.8231543 173.30266602 68.99365234 174.35205078 C72.13234482 193.05942584 78.24602459 210.23677817 87.4453125 226.83203125 C88.01765625 227.88261719 88.59 228.93320313 89.1796875 230.015625 C89.69917969 230.91796875 90.21867187 231.8203125 90.75390625 232.75 C91.4921875 235.265625 91.4921875 235.265625 90.26171875 237.96484375 C85.6195552 244.00068112 79.78750712 246.59484947 72.4921875 248.265625 C64.9497581 249.03323518 57.32524371 248.8294396 49.75390625 248.796875 C47.5419752 248.79957311 45.3300453 248.80345818 43.11811829 248.80847168 C38.50107438 248.8143455 33.88434155 248.80586791 29.26733398 248.78710938 C23.35470094 248.76425428 17.44279165 248.77749816 11.53018475 248.80139923 C6.97051034 248.81585725 2.41100748 248.81125228 -2.1486721 248.80088806 C-4.32913487 248.79822427 -6.50961332 248.80147825 -8.69005775 248.81080627 C-11.73430305 248.82097906 -14.77737519 248.80546283 -17.8215332 248.78320312 C-18.71775391 248.79130005 -19.61397461 248.79939697 -20.53735352 248.80773926 C-26.02194545 248.73354303 -29.15091058 247.90782303 -33.5078125 244.265625 C-39.93359709 237.28905887 -41.04909852 231.17852278 -40.8671875 221.91015625 C-40.32680248 216.42994733 -38.67158624 212.7900277 -35.0546875 208.5703125 C-28.6404417 199.01373417 -26.89271877 185.1904583 -25.0703125 174.078125 C-24.8064978 172.50285034 -24.8064978 172.50285034 -24.53735352 170.89575195 C-23.47487704 163.90312213 -23.24126581 158.06526506 -25.5078125 151.265625 C-30.75193147 149.86773196 -34.15540999 150.91950159 -38.9453125 153.078125 C-55.448445 160.2570721 -72.27619457 161.43511038 -89.5078125 156.265625 C-92.52161207 155.44733817 -95.42285454 154.80426845 -98.5078125 154.265625 C-101.75631227 155.98788996 -101.75631227 155.98788996 -102.5078125 159.265625 C-104.1139881 176.61758768 -98.23231372 194.01121592 -88.08984375 207.91015625 C-83.30511383 215.03408746 -82.54079293 222.85480365 -83.5078125 231.265625 C-85.31820229 238.9416777 -90.23942843 243.74038273 -96.5078125 248.265625 C-99.20816001 249.16574084 -100.75851246 249.39278338 -103.5284729 249.39933777 C-104.34417755 249.40360275 -105.1598822 249.40786774 -106.00030518 249.41226196 C-106.89175232 249.41180878 -107.78319946 249.41135559 -108.70166016 249.41088867 C-109.64349152 249.41424728 -110.58532288 249.4176059 -111.55569458 249.42106628 C-114.67776805 249.43058519 -117.7997879 249.4325202 -120.921875 249.43359375 C-123.09321108 249.43680684 -125.26454694 249.44017096 -127.43588257 249.44367981 C-131.99388124 249.44967425 -136.55186095 249.4515195 -141.10986328 249.45092773 C-146.93703488 249.45082636 -152.76408396 249.46445155 -158.59122658 249.48169994 C-163.07978874 249.49284838 -167.56832162 249.49484603 -172.05689621 249.49431801 C-174.20418086 249.49549487 -176.35146635 249.49990013 -178.49873734 249.50765038 C-181.51177641 249.51750289 -184.52455391 249.51455094 -187.53759766 249.50854492 C-188.41689941 249.51416443 -189.29620117 249.51978394 -190.20214844 249.52557373 C-198.58208834 249.4833583 -205.69549963 248.21195203 -212.9453125 243.828125 C-213.95464844 243.23128906 -214.96398437 242.63445312 -216.00390625 242.01953125 C-218.5078125 240.265625 -218.5078125 240.265625 -220.5078125 237.265625 C-220.21976181 233.38613377 -219.17271467 231.5182506 -216.4453125 228.828125 C-193.1630343 203.06494831 -192.5326938 160.72965465 -192.80343628 127.77128601 C-192.82061699 125.53855437 -192.82948013 123.30590393 -192.83691406 121.07312012 C-192.93042725 99.06821655 -193.66363948 77.6171086 -199.5078125 56.265625 C-199.98130127 54.52273193 -199.98130127 54.52273193 -200.46435547 52.74462891 C-205.58624476 33.8978646 -205.58624476 33.8978646 -216.7109375 18.28125 C-218.5078125 16.265625 -218.5078125 16.265625 -219 13.7421875 C-218.35299471 10.48662122 -217.25753332 9.62960029 -214.6328125 7.640625 C-213.91351563 7.07085937 -213.19421875 6.50109375 -212.453125 5.9140625 C-205.10049822 1.79893186 -197.57634072 0.82086077 -189.2722168 0.87744141 C-188.30343094 0.87218445 -187.33464508 0.86692749 -186.33650208 0.86151123 C-183.16817604 0.8484204 -180.00036143 0.85700698 -176.83203125 0.8671875 C-174.61627609 0.86516445 -172.40052157 0.86225109 -170.18476868 0.85848999 C-165.5576031 0.85408215 -160.930612 0.86045115 -156.3034668 0.87451172 C-150.37400117 0.89165274 -144.44494149 0.88172144 -138.51549053 0.86379433 C-133.94730057 0.85295763 -129.37920703 0.85640148 -124.81101418 0.8641777 C-122.62414311 0.86617742 -120.43726326 0.86372847 -118.25040245 0.85673904 C-115.19884352 0.84912109 -112.14794525 0.86073177 -109.09643555 0.87744141 C-108.19504852 0.87136871 -107.2936615 0.86529602 -106.36495972 0.85903931 C-101.55280684 0.90785972 -98.45284516 1.21208016 -94.5078125 4.265625 C-93.80398437 4.78640625 -93.10015625 5.3071875 -92.375 5.84375 C-86.40656063 10.85255794 -83.77978133 15.34449911 -82.6953125 23.140625 C-82.01333837 33.15806725 -85.01563755 38.81068263 -91.5078125 46.265625 C-92.34441406 47.20148438 -93.18101562 48.13734375 -94.04296875 49.1015625 C-105.48505475 62.94381247 -105.66856037 85.66766276 -105.9453125 102.703125 C-105.96770996 103.54834717 -105.99010742 104.39356934 -106.01318359 105.2644043 C-105.98346577 113.06376948 -103.05131515 119.72212235 -97.5078125 125.265625 C-83.72878302 134.64659413 -69.42570046 136.18270433 -53.1953125 133.140625 C-40.9389206 130.1322379 -31.91525134 123.7008534 -24.5078125 113.515625 C-19.46367831 97.12218888 -24.51652487 78.180681 -27.9453125 61.890625 C-28.13818848 60.95879395 -28.33106445 60.02696289 -28.52978516 59.06689453 C-30.28795996 51.14436111 -32.89948188 44.19201023 -37.7578125 37.640625 C-42.12077343 30.57152375 -41.40647069 22.72604331 -40.09765625 14.7734375 C-38.47726852 9.2576806 -34.48667983 5.0110511 -29.5078125 2.265625 C-20.07429829 -0.78991342 -9.78267832 -0.02461634 0 0 Z M509.4921875 40.265625 C503.42619887 48.98825098 499.76563559 57.86272628 497.4921875 68.265625 C497.32235352 69.01134766 497.15251953 69.75707031 496.97753906 70.52539062 C492.86997345 88.87202185 491.26758398 107.48003638 491.4921875 126.265625 C506.996159 120.30408298 520.32787046 112.60055678 532.4921875 101.265625 C533.01296875 100.79253906 533.53375 100.31945312 534.0703125 99.83203125 C545.20308536 89.66373128 555.31258844 77.60604589 556.796875 62.078125 C557.15527132 52.97064206 555.31757059 45.59911299 549.11328125 38.6796875 C542.76551593 33.14260064 536.0910385 29.88629655 527.6328125 30.05859375 C520.11544049 30.78563885 514.3624602 34.64027126 509.4921875 40.265625 Z " fill="#0e1e83" transform="translate(257.5078125,22.734375)"/>
<path d="M0 0 C1.22219742 0.00410889 2.44439484 0.00821777 3.70362854 0.01245117 C5.01822556 0.03412354 6.33282257 0.0557959 7.68725586 0.078125 C9.06383067 0.09349691 10.44041291 0.10821568 11.81700134 0.12231445 C14.70296707 0.15578934 17.58845335 0.20125028 20.47412109 0.25439453 C24.13966728 0.32038851 27.80449624 0.3506932 31.47054386 0.37088013 C34.31680428 0.39171253 37.16240689 0.43518578 40.00829887 0.48474121 C42.00635107 0.5147844 44.00468463 0.52380818 46.00294495 0.53222656 C57.23054095 0.79685111 66.85409094 3.51152242 74.96459961 11.515625 C75.69996948 12.23226318 75.69996948 12.23226318 76.45019531 12.96337891 C77.44755806 13.93930166 78.43806369 14.92228783 79.42114258 15.91259766 C80.75196622 17.24067261 82.1246755 18.52639694 83.49975586 19.80859375 C94.52509881 30.25455238 101.66742704 43.11979775 108.83959961 56.328125 C109.19151367 55.84045654 109.54342773 55.35278809 109.90600586 54.8503418 C110.3997168 54.16625244 110.89342773 53.48216309 111.40209961 52.77734375 C111.94769531 52.02122803 112.49329102 51.2651123 113.05541992 50.48608398 C114.25156851 48.82984048 115.4488471 47.17441253 116.6472168 45.51977539 C120.44041061 40.28333092 120.44041061 40.28333092 124.16772461 35 C134.88501207 19.75182678 149.15924417 9.35035404 166.83959961 3.328125 C167.80583755 2.96262291 167.80583755 2.96262291 168.79159546 2.58973694 C176.4629782 -0.0635728 183.93238179 -0.18064777 191.98022461 -0.2109375 C193.43455221 -0.22315492 194.88887757 -0.23564195 196.34320068 -0.24838257 C199.37900399 -0.27073146 202.41455861 -0.2803989 205.45043945 -0.28271484 C209.30143628 -0.28798671 213.1503093 -0.3392985 217.00073624 -0.40223122 C220.00207274 -0.44351121 223.00291437 -0.45236008 226.00450897 -0.45283127 C227.42206557 -0.45814329 228.83963465 -0.47468448 230.2569046 -0.50368118 C241.39982383 -0.71266593 248.43380694 1.75702831 257.83959961 7.328125 C258.69829651 7.79850189 259.55699341 8.26887878 260.44171143 8.75350952 C265.53547493 11.66201121 265.53547493 11.66201121 266.72241211 14.26171875 C266.83959961 16.328125 266.83959961 16.328125 265.68725586 17.9765625 C264.80360352 18.83121094 264.80360352 18.83121094 263.90209961 19.703125 C234.97497053 50.76658896 235.28091392 104.63172396 235.83959961 144.328125 C235.85845215 145.69300049 235.85845215 145.69300049 235.87768555 147.08544922 C236.46143873 177.44657131 243.99540851 209.75056162 265.63647461 232.19140625 C266.03350586 232.56652344 266.43053711 232.94164062 266.83959961 233.328125 C265.34257512 237.31143577 263.10818942 238.72452602 259.52709961 240.890625 C258.10977539 241.75880859 258.10977539 241.75880859 256.66381836 242.64453125 C255.73182617 243.20011719 254.79983398 243.75570312 253.83959961 244.328125 C253.02104492 244.87339844 252.20249023 245.41867187 251.35913086 245.98046875 C245.86617168 248.91856319 239.62387946 248.47660588 233.54882812 248.47338867 C232.63260681 248.47674728 231.7163855 248.4801059 230.7723999 248.48356628 C227.7544213 248.49303757 224.73649838 248.49501735 221.71850586 248.49609375 C219.61392698 248.49930853 217.50934831 248.50267277 215.4047699 248.50617981 C210.99754315 248.51216118 206.59033599 248.51402068 202.18310547 248.51342773 C196.54302911 248.51332606 190.90307851 248.52698786 185.26303196 248.54419994 C180.91781541 248.5553308 176.57262918 248.55734662 172.22739983 248.55681801 C170.14823917 248.55799611 168.06907768 248.56240836 165.98993111 248.57015038 C163.07978678 248.57997391 160.16991455 248.57706304 157.25976562 248.57104492 C156.40603867 248.57666443 155.55231171 248.58228394 154.67271423 248.58807373 C148.49248342 248.55568209 143.16218585 248.16458854 138.15209961 244.203125 C132.63526103 237.34435271 130.01319004 230.18024288 130.83959961 221.328125 C132.18424288 214.59146219 135.63986586 208.51480567 138.88256836 202.52734375 C150.79584366 179.84191148 149.24178315 150.265557 149.27350235 125.40953827 C149.2770458 123.42082225 149.28610914 121.43211854 149.29525757 119.44342041 C149.35490422 99.92685237 148.95386196 80.28293786 143.83959961 61.328125 C127.62119767 76.60894607 118.04361948 105.80268811 110.81762695 126.2878418 C103.75450116 146.24126033 103.75450116 146.24126033 97.08569336 150.4296875 C91.64876647 152.60445825 84.98949584 152.21337639 79.65209961 150.015625 C75.25783279 145.81665893 71.56697422 141.11535556 67.83959961 136.328125 C66.92622876 135.16742415 66.01214656 134.00728277 65.09741211 132.84765625 C63.22857004 130.47596348 61.36440282 128.10070928 59.50366211 125.72265625 C55.98412604 121.22971269 52.41614987 116.77575484 48.83959961 112.328125 C47.84959961 112.823125 47.84959961 112.823125 46.83959961 113.328125 C44.83774681 160.85089812 44.83774681 160.85089812 55.83959961 206.328125 C60.26760771 216.29114323 60.69859069 229.04466832 56.83959961 239.328125 C54.89418159 242.71691768 52.89610845 245.86567566 49.83959961 248.328125 C47.48934937 248.73599243 47.48934937 248.73599243 44.68481445 248.77978516 C43.63296967 248.8021524 42.58112488 248.82451965 41.49740601 248.8475647 C40.35993927 248.85404022 39.22247253 248.86051575 38.05053711 248.8671875 C36.87754059 248.87954437 35.70454407 248.89190125 34.4960022 248.90463257 C32.00951128 248.92422261 29.52294253 248.93543507 27.03637695 248.93896484 C23.2493942 248.95299608 19.4657579 249.02024782 15.67944336 249.08984375 C13.26148925 249.10224906 10.84351627 249.11146508 8.42553711 249.1171875 C7.30021576 249.14390533 6.17489441 249.17062317 5.01547241 249.19815063 C-3.04762526 249.12921582 -7.4809721 247.03472665 -13.16040039 241.328125 C-15.75415039 238.4140625 -15.75415039 238.4140625 -17.66040039 235.703125 C-18.31008789 234.80335938 -18.95977539 233.90359375 -19.62915039 232.9765625 C-21.21207373 230.23875121 -22.08470431 228.49222119 -22.16040039 225.328125 C-20.71899414 223.07421875 -20.71899414 223.07421875 -18.59790039 220.765625 C8.4982809 188.69549434 0.52311441 123.41650613 -2.61734009 84.19042969 C-3.31926693 75.88738875 -4.19795009 67.60495905 -5.16040039 59.328125 C-5.27109863 58.35681641 -5.38179687 57.38550781 -5.49584961 56.38476562 C-7.0717749 43.12659598 -10.17775174 30.76883304 -17.09790039 19.203125 C-18.68092254 16.48568958 -19.15686442 15.37320858 -19.41040039 12.140625 C-16.11196289 4.71914062 -7.90463348 -0.06891967 0 0 Z " fill="#0e1e83" transform="translate(1645.160400390625,23.671875)"/>
<path d="M0 0 C0.70801758 0.18191895 1.41603516 0.36383789 2.14550781 0.55126953 C21.46587014 5.62388461 37.53303968 15.30039795 52 29 C53.25490234 30.15822266 53.25490234 30.15822266 54.53515625 31.33984375 C75.33506135 51.17530194 87.47921685 81.44107802 88.22021484 110.03393555 C88.70046927 146.77339916 74.32484547 179.7508901 49 206 C48.27167969 206.79148438 47.54335937 207.58296875 46.79296875 208.3984375 C25.21441964 231.21805344 -7.47740042 246.4428463 -38.65063477 248.20654297 C-42.35300919 248.30223206 -46.04644866 248.32906587 -49.75 248.3125 C-51.0611377 248.30758545 -52.37227539 248.3026709 -53.72314453 248.29760742 C-63.74862131 248.17697507 -73.27200808 247.44352404 -83 245 C-83.65500488 244.83902832 -84.31000977 244.67805664 -84.98486328 244.51220703 C-105.88162647 239.16867215 -123.39160342 228.74549336 -139 214 C-139.76183594 213.30261719 -140.52367187 212.60523438 -141.30859375 211.88671875 C-162.14607911 192.13263817 -172.1276699 163.44185133 -173.09594727 135.20166016 C-173.3399345 102.95608309 -163.2842133 71.50159438 -142 47 C-140.97132812 45.78957031 -140.97132812 45.78957031 -139.921875 44.5546875 C-105.51723168 5.07597807 -51.11992283 -13.61333612 0 0 Z M-45 63 C-45.87269531 63.88816406 -46.74539063 64.77632812 -47.64453125 65.69140625 C-74.6620333 94.20296371 -93.63170494 137.23806934 -93.42407227 176.80908203 C-93.17846747 185.26218701 -91.85183097 193.72878367 -86.5625 200.625 C-81.38957675 205.41941667 -77.99619138 206.57560963 -70.9609375 206.33984375 C-54.12540283 204.40753304 -40.32934338 190.49780598 -30 178 C-29.39800781 177.3090625 -28.79601563 176.618125 -28.17578125 175.90625 C-18.10393725 163.97530295 -10.46836483 149.92078352 -3.86132812 135.82910156 C-3.06815917 134.14474164 -2.24631086 132.47396605 -1.421875 130.8046875 C8.21404484 110.1635329 13.81829306 86.51935602 9.25 64 C9.09313721 63.19925049 8.93627441 62.39850098 8.7746582 61.57348633 C7.19840552 54.37866774 4.22968513 49.20503746 -2 45 C-19.18340371 39.72946021 -33.72994025 51.27978094 -45 63 Z " fill="#0e1e83" transform="translate(1539,26)"/>
<path d="M0 0 C3.73499006 -0.00206095 7.46997534 -0.00582166 11.20496368 -0.00990677 C17.13482935 -0.01578487 23.06466877 -0.01589666 28.99453545 -0.011446 C31.18956422 -0.01041294 33.3845944 -0.01095645 35.57962227 -0.01320457 C38.60830588 -0.01577197 41.63691766 -0.01193986 44.66559601 -0.00645828 C45.97019492 -0.00949888 45.97019492 -0.00949888 47.30114937 -0.0126009 C53.51135054 0.00850815 59.62724428 0.47764808 65.8025589 1.12293625 C63.45928404 4.83312145 60.93134256 8.19326277 58.1150589 11.56043625 C50.60378772 20.89051801 45.034166 31.51947956 39.4275589 42.06043625 C39.01070831 42.84088303 38.59385773 43.6213298 38.16437531 44.42542648 C35.65139342 49.22447403 33.60457363 54.01335255 31.8025589 59.12293625 C26.97618469 58.64301536 23.86589819 56.27855698 20.1150589 53.43543625 C18.86691394 52.52014081 17.61690513 51.60738167 16.3650589 50.697155 C15.7566214 50.2542009 15.1481839 49.8112468 14.5213089 49.35486984 C2.94358128 41.056402 -9.77854336 35.80010159 -24.1974411 37.12293625 C-30.70987141 38.55480834 -35.70199547 40.65848472 -39.88103485 45.95106125 C-44.29151676 53.22770202 -46.46516309 60.08966909 -48.2599411 68.37293625 C-48.51598114 69.5328508 -48.77202118 70.69276535 -49.03582001 71.88782883 C-51.76521633 84.85810777 -53.08717659 97.92462931 -54.1974411 111.12293625 C-36.02984195 106.24900586 -36.02984195 106.24900586 -20.60759735 96.45887375 C-18.1974411 94.12293625 -18.1974411 94.12293625 -16.0568161 93.572155 C-9.00164632 94.36912788 -4.76746087 97.82024797 -0.1974411 103.12293625 C4.51465914 110.32738703 5.64481006 117.6081231 4.8025589 126.12293625 C3.83013205 129.35764111 2.46276365 132.18875494 0.8025589 135.12293625 C0.2250589 136.15418625 -0.3524411 137.18543625 -0.9474411 138.24793625 C-4.79735005 143.16726435 -9.87412696 148.75573319 -16.1974411 150.12293625 C-18.7599411 150.06043625 -18.7599411 150.06043625 -21.1974411 149.12293625 C-21.79298798 148.35336594 -22.38853485 147.58379562 -23.0021286 146.790905 C-30.79429569 137.32106493 -43.64959137 134.68537594 -55.1974411 133.12293625 C-55.40128619 167.55864227 -55.40128619 167.55864227 -43.31853485 198.38856125 C-41.12021198 200.18608492 -39.46369479 200.99977873 -36.7599411 201.81043625 C-36.01873016 202.04117844 -35.27751923 202.27192062 -34.51384735 202.509655 C-21.32232185 206.00218367 -9.4829387 204.82404951 2.8025589 199.12293625 C3.59533234 198.63695969 4.38810577 198.15098312 5.20490265 197.65028 C8.5624673 195.67613296 12.03464146 194.35296535 15.6775589 192.99793625 C16.35947296 192.73367844 17.04138702 192.46942062 17.74396515 192.197155 C22.11310935 190.55768565 26.16103926 189.61980911 30.8025589 189.12293625 C31.02806427 189.92175217 31.02806427 189.92175217 31.25812531 190.73670578 C36.77094625 210.1003331 43.42476943 226.2652813 56.25959015 242.08778 C57.96516538 244.33741213 59.36620497 246.69470111 60.8025589 249.12293625 C35.50639546 249.14634056 10.21023365 249.16395235 -15.08593845 249.17474842 C-26.83250097 249.1798954 -38.57905674 249.18690755 -50.32561493 249.1983757 C-60.56896149 249.20837147 -70.81230316 249.21480129 -81.05565447 249.21702474 C-86.47480559 249.21832356 -91.89394274 249.22135665 -97.31308937 249.22866631 C-102.42411239 249.23550385 -107.5351158 249.23753762 -112.64614296 249.23604393 C-114.51202247 249.23631681 -116.3779027 249.2382757 -118.24377823 249.24214172 C-150.75069414 249.30613457 -150.75069414 249.30613457 -158.1974411 244.12293625 C-158.90642548 243.6537175 -159.61540985 243.18449875 -160.3458786 242.70106125 C-164.18112624 240.01500333 -167.4280989 237.60526982 -169.1974411 233.12293625 C-168.77211273 229.37374541 -166.91552026 227.31131835 -164.5099411 224.49793625 C-160.51052083 219.61450864 -157.18999599 214.67705308 -154.1974411 209.12293625 C-153.6818161 208.17031906 -153.1661911 207.21770187 -152.6349411 206.2362175 C-141.19105663 183.4342777 -140.84775027 155.1472365 -140.1974411 130.12293625 C-140.17020966 129.36690109 -140.14297821 128.61086594 -140.11492157 127.83192062 C-139.28677926 103.76891762 -142.04974764 78.8043728 -146.1974411 55.12293625 C-146.38693329 53.99887375 -146.57642548 52.87481125 -146.77165985 51.71668625 C-149.29906536 39.48211182 -156.03013355 27.60161975 -165.1974411 19.12293625 C-165.8574411 18.79293625 -166.5174411 18.46293625 -167.1974411 18.12293625 C-166.89147545 14.93761529 -166.58098839 13.48898039 -164.2286911 11.24403 C-150.50196544 2.11406278 -139.58627973 0.99953878 -123.2833786 0.80653 C-121.76109274 0.78566097 -120.23880989 0.76457137 -118.71652985 0.74328232 C-114.54527255 0.68679667 -110.37396005 0.63740371 -106.20258713 0.59030533 C-103.56445493 0.56034555 -100.92634332 0.52891388 -98.2882309 0.49726486 C-65.52626639 0.11033507 -32.7640287 0.01423442 0 0 Z " fill="#0e1e83" transform="translate(1075.1974411010742,22.877063751220703)"/>
<path d="M0 0 C0.7729541 0.34901367 1.5459082 0.69802734 2.34228516 1.05761719 C20.89225512 9.54396796 40.30226879 20.97943017 48 41 C52.2974115 53.37202154 51.0524783 69.02314655 45.7109375 80.85546875 C41.06986793 89.05800079 34.24068559 96.99794986 25 100 C18.84085838 100 14.40177802 96.32863195 9.5 93 C7.70592646 91.80699491 5.91165484 90.61428766 4.1171875 89.421875 C3.24288086 88.83599609 2.36857422 88.25011719 1.46777344 87.64648438 C-1.78798367 85.47426178 -5.07657628 83.35660859 -8.375 81.25 C-9.46296875 80.55003906 -10.5509375 79.85007812 -11.671875 79.12890625 C-14.05188127 77.6064844 -16.43657932 76.09387361 -18.828125 74.58984375 C-19.46314941 74.18797852 -20.09817383 73.78611328 -20.75244141 73.37207031 C-21.96032286 72.60797112 -23.17076266 71.84789415 -24.38427734 71.09277344 C-27.64879378 69.02174648 -30.37973874 66.8439421 -33 64 C-31.86196347 60.96523591 -30.54430592 58.15333142 -29 55.3125 C-26.66699871 50.68131833 -25.66991519 46.12006613 -25 41 C-24.83757812 39.85144531 -24.83757812 39.85144531 -24.671875 38.6796875 C-24.23793577 33.018753 -25.85965554 29.41008167 -29.23046875 24.88671875 C-32.92910277 20.94314208 -36.64392674 20.1312329 -41.875 19.625 C-50.93702171 20.06151357 -57.39787334 24.02608288 -64 30 C-64.64582031 30.5671875 -65.29164062 31.134375 -65.95703125 31.71875 C-78.58300518 44.26757949 -84.87120897 63.10315209 -89 80 C-89.16967285 80.68771484 -89.3393457 81.37542969 -89.51416016 82.08398438 C-96.38632926 110.53518911 -93.08453793 139.72537527 -78 165 C-75.84754256 168.18798843 -73.52369417 171.10197799 -71 174 C-70.54367187 174.598125 -70.08734375 175.19625 -69.6171875 175.8125 C-62.82772625 184.50301041 -53.18371624 190.13721108 -43 194 C-42.1853125 194.3196875 -41.370625 194.639375 -40.53125 194.96875 C-23.45778582 200.65990473 -5.13615323 196.81535792 10.5 189 C13.66484612 187.37558664 16.80605847 185.72885782 19.84326172 183.87475586 C25.1245153 180.66414795 28.96656805 180.15122906 35 181 C37.95733901 182.23222459 39.37110863 183.19142538 41.3125 185.6875 C42.78557263 190.64238065 42.93230088 194.08023251 40.6796875 198.71875 C29.17561422 217.49669921 10.60720074 224.69822609 -10 230 C-26.08770934 233.72614498 -42.83283633 233.29199611 -59.25 233.375 C-60.26626465 233.38321777 -61.2825293 233.39143555 -62.32958984 233.39990234 C-85.83186161 233.54022573 -108.40201005 231.19809988 -129.875 221.1875 C-130.74318359 220.78523193 -131.61136719 220.38296387 -132.50585938 219.96850586 C-142.68247157 215.02544068 -150.77837013 207.66313053 -159 200 C-160.14662109 198.95199219 -160.14662109 198.95199219 -161.31640625 197.8828125 C-180.54966184 179.61958197 -191.78202613 151.75018036 -193.18920898 125.46582031 C-193.26668511 121.82914539 -193.2732296 118.19986821 -193.25 114.5625 C-193.25773437 113.35529297 -193.26546875 112.14808594 -193.2734375 110.90429688 C-193.20495037 78.90368673 -180.34413961 47.73625718 -158.41894531 24.50390625 C-157.25624145 23.2715842 -156.12023869 22.01411962 -154.9921875 20.75 C-114.00258379 -23.36437171 -51.69785575 -23.63989143 0 0 Z " fill="#0e1e83" transform="translate(1312,38)"/>
</svg>